<svg width="100px" height="100px" viewBox="0 0 132 47" version="1.1" xmlns="http://www.w3.org/2000/svg" xmlns:xlink="http://www.w3.org/1999/xlink"><g id="HOMEPAGES-" stroke="none" stroke-width="1" fill="none" fill-rule="evenodd"><g id="Carrier-/-Contenu" transform="translate(-955.000000, -666.000000)" fill="#FFFFFF"><g id="bloc-reassurance" transform="translate(0.000000, 638.000000)"><g id="logos" transform="translate(230.000000, 23.000000)"><g id="Codognotto" transform="translate(725.000000, 5.000000)"><path d="M48.9484109,16.2756644 C49.4913083,16.2720269 49.7095688,16.0299661 49.7118876,15.4251447 C49.7153658,14.3444688 49.7153658,13.2641236 49.7115977,12.1834477 C49.7095688,11.660636 49.4478302,11.3484701 48.9889905,11.3431791 C47.6394281,11.3279677 46.2898657,11.3197006 44.9405931,11.3197006 C44.4434927,11.3197006 44.1446527,11.6689031 44.1429136,12.2241218 C44.1397252,13.2780123 44.1400151,14.3312414 44.1426237,15.3848012 C44.1446527,16.0507992 44.3724783,16.3007964 44.9710278,16.3024499 C45.622041,16.3041033 46.273344,16.3027805 46.9243571,16.3027805 L48.9484109,16.2756644 Z M46.9014586,18.388075 C46.2023296,18.388075 45.5029108,18.3963421 44.8040717,18.3864216 C43.3371182,18.3655885 42.3255261,17.2366327 42.2962508,15.5623787 C42.2759609,14.4000237 42.2765407,13.2370075 42.2962508,12.0746526 C42.3234971,10.4473557 43.2994371,9.28037119 44.7266805,9.23308336 C46.2066774,9.18447278 47.6892831,9.18678757 49.1701496,9.2195253 C50.4976831,9.2489562 51.5373911,10.4867071 51.5527533,11.9982645 C51.5655069,13.2148516 51.5660867,14.4321001 51.5524635,15.6486872 C51.5362316,17.1099806 50.531596,18.3080494 49.2472509,18.3718715 C48.4669626,18.4105615 47.6837758,18.3788159 46.9014586,18.3788159 L46.9014586,18.388075 Z" id="Fill-1"></path><path d="M70.6045941,16.2756644 C71.1477878,16.2720269 71.3660508,16.0299661 71.3680798,15.4251447 C71.3715581,14.3444688 71.3718479,13.2641236 71.3677899,12.1834477 C71.3657609,11.660636 71.1043091,11.3484701 70.645464,11.3431791 C69.2955958,11.3279677 67.9463072,11.3197006 66.5967289,11.3197006 C66.0999124,11.3197006 65.8007791,11.6689031 65.7993298,12.2241218 C65.7961413,13.2780123 65.7961413,14.3312414 65.7990399,15.3848012 C65.8007791,16.0507992 66.0286074,16.3007964 66.6274538,16.3024499 C67.2781848,16.3041033 67.9294955,16.3027805 68.5805163,16.3027805 L70.6045941,16.2756644 Z M68.5576176,18.388075 C67.8584803,18.388075 67.159343,18.3963421 66.4602058,18.3864216 C64.9935248,18.3655885 63.9816309,17.2366327 63.9526451,15.5623787 C63.932355,14.4000237 63.9326449,13.2370075 63.9523552,12.0746526 C63.9798917,10.4473557 64.9558433,9.28037119 66.3831036,9.23308336 C67.863118,9.18447278 69.3457412,9.18678757 70.8263353,9.2195253 C72.1538845,9.2489562 73.1936048,10.4867071 73.2092572,11.9982645 C73.221721,13.2148516 73.2223008,14.4321001 73.2086774,15.6486872 C73.1924454,17.1099806 72.1880878,18.3080494 70.9037274,18.3718715 C70.1231401,18.4105615 69.339944,18.3788159 68.5576176,18.3788159 L68.5576176,18.388075 Z" id="Fill-3"></path><path d="M100.511134,16.2756644 C101.054038,16.2720269 101.272301,16.0299661 101.27433,15.4251447 C101.278098,14.3444688 101.278098,13.2641236 101.27404,12.1834477 C101.272011,11.660636 101.010559,11.3484701 100.551714,11.3431791 C99.2021356,11.3279677 97.8525572,11.3197006 96.5032687,11.3197006 C96.0061624,11.3197006 95.7073189,11.6689031 95.7055798,12.2241218 C95.7023913,13.2780123 95.7023913,14.3312414 95.7052899,15.3848012 C95.7070291,16.0507992 95.9348574,16.3007964 96.5337038,16.3024499 C97.1847246,16.3041033 97.8357455,16.3027805 98.4867663,16.3027805 L100.511134,16.2756644 Z M98.4641574,18.388075 C97.7647303,18.388075 97.065593,18.3963421 96.3664558,18.3864216 C94.8997748,18.3655885 93.8878809,17.2366327 93.8588951,15.5623787 C93.838605,14.4000237 93.8388949,13.2370075 93.8586052,12.0746526 C93.8861417,10.4473557 94.8620933,9.28037119 96.2893536,9.23308336 C97.769368,9.18447278 99.2519912,9.18678757 100.732585,9.2195253 C102.060135,9.2489562 103.099855,10.4867071 103.115507,11.9982645 C103.127971,13.2148516 103.128551,14.4321001 103.114927,15.6486872 C103.098695,17.1099806 102.094338,18.3080494 100.809977,18.3718715 C100.02939,18.4105615 99.246194,18.3788159 98.4641574,18.3788159 L98.4641574,18.388075 Z" id="Fill-5"></path><path d="M111.91589,11.2911386 L113.4375,11.2911386 L113.4375,9.19565217 L104.15625,9.19565217 L104.15625,11.3014809 L107.709144,11.3014809 L107.709144,18.3913043 L109.852604,18.3913043 L109.852604,17.9148906 C109.852604,16.5376947 109.847551,15.1805161 109.84553,13.8033201 L109.844856,13.7833028 L109.844856,11.3028154 L110.043605,11.3028154" id="Fill-7"></path><path d="M83.4164457,9.20531135 L83.4164457,11.3004001 L82.9871563,11.3004001 C81.0058654,11.3004001 79.0245745,11.2997384 77.0432835,11.300731 C76.3681469,11.3010619 76.104594,11.6067887 76.104594,12.3830171 C76.1043037,13.3842392 76.1022719,14.3847997 76.1054647,15.3860218 C76.106916,15.9961519 76.3553756,16.2883129 76.886545,16.2873203 C78.2507506,16.2843424 79.6149562,16.2740853 80.9794521,16.2615122 C81.4302204,16.2572108 81.6839046,15.9925123 81.6792605,15.5537745 C81.6743261,15.1209924 81.4136758,14.8602644 80.9600049,14.8576174 C79.9774866,14.8523234 78.9955488,14.855963 77.9799413,14.855963 C77.9799413,14.1250642 77.9802315,13.4385024 77.9802315,12.7522715 C78.0826921,12.7499554 78.1700593,12.750948 78.2600388,12.7506172 C79.1972771,12.7492937 80.1342251,12.743338 81.0717536,12.7516098 C82.4458279,12.7631903 83.5055545,13.9606203 83.5308068,15.5203563 C83.5554786,17.0585856 82.5474177,18.3218593 81.1852439,18.3599097 C79.6555921,18.4025923 78.1239085,18.400938 76.5942567,18.3599097 C75.2851998,18.3248371 74.2812026,17.120128 74.2620456,15.6249122 C74.2460815,14.4082916 74.2457913,13.1906785 74.2623359,11.973727 C74.2812026,10.549649 75.2071208,9.37008617 76.4552238,9.24667049 C77.2560415,9.16792268 78.0664377,9.20498047 78.8730606,9.20067912" id="Fill-9"></path><path d="M55.6213123,16.2323812 C55.6708772,16.2466152 55.7073495,16.2658145 55.7441335,16.2658145 C57.2476023,16.2678006 58.7513828,16.2754142 60.2548516,16.2651525 C60.6981302,16.2621733 60.9175874,15.9814656 60.9197695,15.4617593 C60.9247572,14.3657418 60.9241337,13.2697242 60.920393,12.1733756 C60.9185226,11.6470488 60.6413955,11.3385353 60.1441878,11.3329079 C58.7298735,11.3173498 57.3152475,11.3176808 55.9006214,11.3034468 C55.6824112,11.3014607 55.576735,11.3560795 55.5786054,11.6172567 C55.5876456,13.0922958 55.5832814,14.5673348 55.5857752,16.0420429 C55.5860869,16.1062614 55.6091549,16.1704798 55.6213123,16.2323812 Z M53.625,9.19615361 L54.0611088,9.19615361 C56.0608501,9.19615361 58.0605914,9.19482951 60.0606445,9.19648463 C61.7901168,9.19780872 62.9008071,10.3779062 62.9033009,12.2157466 C62.9048595,13.338577 62.9098472,14.4610764 62.9017423,15.5839069 C62.8908317,17.1221713 61.8156785,18.3446397 60.368321,18.3701285 C58.1905824,18.4085272 56.0119087,18.3830384 53.8338584,18.3827074 C53.7721361,18.3827074 53.7104137,18.362515 53.625,18.3472879 L53.625,9.19615361 Z" id="Fill-11"></path><path d="M129.386093,16.2756644 C129.929006,16.2720269 130.147272,16.0299661 130.149301,15.4251447 C130.153069,14.3444688 130.153069,13.2641236 130.149301,12.1834477 C130.147272,11.660636 129.885526,11.3484701 129.426674,11.3431791 C128.077075,11.3279677 126.727475,11.3197006 125.378166,11.3197006 C124.881052,11.3197006 124.582204,11.6689031 124.580465,12.2241218 C124.577276,13.2780123 124.577276,14.3312414 124.580175,15.3848012 C124.582204,16.0507992 124.809746,16.3007964 125.408601,16.3024499 C126.059632,16.3041033 126.710953,16.3027805 127.361694,16.3027805 L129.386093,16.2756644 Z M127.339085,18.388075 C126.639647,18.388075 125.940499,18.3963421 125.241351,18.3864216 C123.774647,18.3655885 122.763027,17.2366327 122.733751,15.5623787 C122.713461,14.4000237 122.714041,13.2370075 122.733751,12.0746526 C122.760998,10.4473557 123.736965,9.28037119 125.164247,9.23308336 C126.644285,9.18447278 128.126931,9.18678757 129.607548,9.2195253 C130.935118,9.2489562 131.974854,10.4867071 131.990507,11.9982645 C132.002971,13.2148516 132.003551,14.4321001 131.989927,15.6486872 C131.973985,17.1099806 130.969322,18.3080494 129.684941,18.3718715 C128.904342,18.4105615 128.121134,18.3788159 127.339085,18.3788159 L127.339085,18.388075 Z" id="Fill-13"></path><path d="M90.0475221,9.19565217 C91.6516475,9.19996985 92.8033752,10.4158937 92.8089873,12.1134043 C92.8158465,14.0816001 92.8105462,16.0497958 92.8105462,18.0176594 L92.8105462,18.3913043 L90.8279158,18.3913043 L90.8279158,17.9323022 C90.8279158,16.0454781 90.829163,14.1589861 90.8272923,12.2724941 C90.8269805,11.5896371 90.5996904,11.3422011 89.9533635,11.3362228 C88.5902467,11.3242661 87.2268181,11.3285838 85.8640131,11.3050027 C85.5590889,11.2996886 85.4767781,11.3996594 85.4786488,11.7191674 C85.4911202,13.7684025 85.4848845,15.8176377 85.4848845,17.8668729 L85.4848845,18.3813405 L83.53125,18.3813405 L83.53125,9.21524778" id="Fill-15"></path><path d="M43.3125,16.2721168 L43.3125,18.3628874 C43.1702743,18.3718521 43.0316042,18.3877894 42.8929342,18.3877894 C41.241823,18.3897816 39.5907118,18.394762 37.9396007,18.3874574 C36.2083259,18.3801528 35.0718132,17.2007948 35.0666414,15.4164846 C35.0630858,14.303864 35.0588836,13.1912433 35.0679344,12.0786226 C35.0805407,10.5287231 36.1055355,9.28926835 37.6014914,9.22352711 C39.5060229,9.17604733 41.3733818,9.20360552 43.2966612,9.20360552 L43.2966612,11.2883997 L42.8179424,11.2883997 C41.2725308,11.2883997 39.7271192,11.2874036 38.1817076,11.2887317 C37.3697281,11.2893957 37.1253585,11.54406 37.1250353,12.384751 C37.1250353,13.3748539 37.1234191,14.3656209 37.1256818,15.3560558 C37.1276212,16.035714 37.3710211,16.2933665 38.0365728,16.2927025 C39.5157201,16.2917064 40.9951907,16.2794214 42.4743381,16.2721168 C42.7361626,16.2707887 42.9983105,16.2721168 43.3125,16.2721168" id="Fill-17"></path><path d="M13.2553982,35.7603024 C12.49412,35.7625082 11.7674168,35.227128 11.475101,34.4484791 C11.1928435,33.6956697 11.3676043,32.999896 11.9789528,32.4607344 C14.0820546,30.6069136 16.1854706,28.7530928 18.2895153,26.899587 C18.740876,26.5019121 19.1422601,26.4603169 19.6542841,26.7675539 C20.1408484,27.0593503 20.4554807,27.4872763 20.5884372,28.0380971 C20.6780179,28.4096175 20.6072963,28.7445847 20.3284962,29.0344903 C18.3222044,31.1205509 16.3199987,33.211023 14.3168501,35.3005498 C14.0267346,35.6033752 13.6803562,35.7719616 13.2553982,35.7603024" id="Fill-19"></path><path d="M5.15626369,25.9382886 C5.15870065,25.4215964 5.47855187,25.0546307 6.10332792,24.8779536 C7.99867486,24.3424776 9.8955449,23.8116296 11.7918057,23.2788759 C12.6572317,23.0360469 13.5342333,22.8223466 14.3841237,22.5422221 C15.3092553,22.2378692 16.4189867,23.0763369 16.4954464,23.8609032 C16.5283453,24.1965625 16.38426,24.4470139 16.0214573,24.5760508 C13.2844447,25.5476388 10.5526107,26.5331106 7.80645951,27.483737 C6.61661297,27.8953484 5.15108514,27.0138684 5.15626369,25.9382886" id="Fill-21"></path><path d="M18.9119286,41.8913043 C18.6715396,41.7493399 18.4031008,41.6480221 18.1965288,41.458238 C17.5762883,40.8894834 17.3521524,39.7869424 17.6850795,38.9611574 C18.738125,36.3478154 19.8013943,33.740152 20.8644014,31.1318908 C21.0513124,30.6734202 21.3263048,30.5538712 21.7287009,30.7293094 C22.4451493,31.0413324 22.8761194,32.0912718 22.6063699,32.9006188 C21.7106127,35.5880812 20.8106612,38.2737504 19.9086125,40.958523 C19.7075455,41.5568659 19.4018818,41.8195749 18.9119286,41.8913043" id="Fill-23"></path><path d="M8.93624642,20.3359458 C7.41775701,20.3692104 5.89956506,20.4061204 4.3807782,20.4341447 C3.65172481,20.4475872 3.02261509,20.2484553 2.51486555,19.8490523 C2.16922702,19.5770117 1.93364551,19.2548463 2.13918443,18.8668353 C2.34859021,18.4713055 2.82272775,18.383815 3.31560472,18.3917894 C5.68480514,18.429383 8.05400556,18.4785964 10.4229085,18.5225694 C11.1519619,18.5362398 11.8813128,18.5403409 12.6100687,18.5592516 C13.3834423,18.5795294 13.9503847,18.8718477 14.3016748,19.3892717 C14.6229223,19.8627227 14.3587855,20.2115453 13.6734575,20.230456 C12.0948829,20.2737455 10.5154159,20.3047317 8.93624642,20.3407304 C8.93624642,20.3393633 8.93624642,20.3377685 8.93624642,20.3359458" id="Fill-25"></path><path d="M24.7500061,42.6749611 C24.8543972,41.7470371 24.9712158,40.7016581 25.0895878,39.6559861 C25.2806608,37.9691445 25.4723552,36.2823029 25.6646709,34.5951683 C25.7134489,34.1675266 25.7597414,33.739299 25.8150438,33.312536 C25.8877448,32.7501578 26.3438344,32.5275498 26.8589548,32.8333429 C27.5188557,33.2252502 27.876768,33.8175048 27.8413496,34.5500609 C27.7587066,36.2579917 27.6338102,37.9638722 27.5232053,39.6703385 C27.4340379,41.0425998 27.3395888,42.4145683 27.2504214,43.7868296 C27.2115854,44.3846493 26.9496756,44.8199066 26.557277,44.9250596 C26.1192072,45.0422217 25.6522434,44.8289867 25.2722722,44.3383703 C24.9385936,43.9075066 24.7487633,43.3465929 24.7500061,42.6749611" id="Fill-27"></path><path d="M0.990472724,12.2608696 C1.57001516,12.4215781 2.1516148,12.5747278 2.72880615,12.7449671 C5.4393132,13.5425941 8.14776305,14.3474514 10.8582701,15.1447498 C11.428996,15.3126886 11.8915719,15.6472516 12.1998579,16.2131823 C12.3517968,16.4928612 12.4717021,16.8096772 12.2636311,17.1156479 C12.0734871,17.3953267 11.7951774,17.4035429 11.5095206,17.3309119 C9.22073944,16.7459196 6.93195825,16.1625706 4.64317706,15.5782357 C3.74418096,15.3485112 2.8463604,15.1125424 1.94648264,14.8861044 C1.32226959,14.7296683 0.763005256,14.4411159 0.340397738,13.8896457 C0.102056503,13.5787453 -0.109835028,13.2290646 0.0632636011,12.7955788 C0.237537772,12.3578205 0.606658108,12.3180542 0.990472724,12.2608696" id="Fill-29"></path><path d="M28.8830666,35.2081254 C28.88834,35.1487556 28.9027725,35.0905442 28.9260865,35.0360977 C28.996861,34.8695727 29.014069,34.8272898 29.1575609,34.7656031 C29.3290851,34.6920425 29.6310566,34.7821108 29.8025808,34.9089595 C30.2588686,35.2463538 30.4698045,35.7609887 30.554734,36.3283324 C31.0235114,39.4555286 31.4922887,42.5830144 31.9510744,45.7119482 C31.9846576,45.9398704 31.9674497,46.1860379 31.9241523,46.4136704 C31.8103579,47.0105542 31.3396377,47.1796858 30.8844602,46.7910307 C30.4542619,46.4240964 30.2016938,45.9285756 30.1181521,45.3678929 C29.959395,44.3061869 29.8381069,43.2383992 29.7065495,42.172349 C29.4437122,40.0396696 29.184483,37.9061213 28.9235885,35.7734418 C28.9080459,35.6445659 28.8916706,35.51569 28.8758504,35.3871037 C28.8730749,35.3442415 28.8775157,35.2695225 28.8830666,35.2081254" id="Fill-31"></path><path d="M11.6897487,12.2608696 C11.4848816,12.2093053 10.8449844,12.0508394 10.6488616,11.9829255 C7.43094959,10.8671245 4.63651279,9.87985695 1.43265414,8.73764501 C0.961397424,8.56962088 0.547291121,8.26375659 0.175032665,7.96644443 C0.0260668231,7.84746926 -0.0557550859,7.51821239 0.0435554754,7.39395503 C0.160979284,7.24630508 0.507629356,7.14946482 0.752782786,7.15223169 C1.08506718,7.15650775 1.43515252,7.24077135 1.74276542,7.35270359 C4.85512094,8.48435115 7.96091821,9.62782076 11.0664032,10.7712904 C11.5526502,10.9501304 12.0726253,11.1606637 12.303413,11.5643743 C12.5229581,11.9482139 12.2147206,12.2402438 11.6897487,12.2608696" id="Fill-33"></path><path d="M37.125,46.2039342 C37.10619,46.3127149 37.0956301,46.4254679 37.0665901,46.5333319 C36.9349204,47.0204004 36.5616913,47.1414036 36.1330223,46.8242285 C35.6736634,46.4847472 35.421214,46.0166237 35.2519244,45.5078601 C34.7879455,44.1138786 34.3289166,42.7192859 33.8682377,41.3243877 C33.2775391,39.5365345 32.6842004,37.7486814 32.1004318,35.9586893 C32.027502,35.7344056 31.9677721,35.4960659 31.9687621,35.2641431 C31.9704121,34.7740189 32.3462812,34.5943474 32.7871602,34.865688 C33.282819,35.1709461 33.5402184,35.6347918 33.718748,36.1438609 C34.583676,38.6100654 35.4525639,41.0753533 36.3125419,43.5430856 C36.5765413,44.3014947 36.8200807,45.0663206 37.0662601,45.8302298 C37.10454,45.9481774 37.10586,46.0762086 37.125,46.2039342" id="Fill-35"></path><path d="M2.61766915,3.06521739 C3.04663454,3.23272927 3.49212352,3.34128445 3.8650383,3.56276198 C6.74662302,5.27656132 9.53651802,7.01874722 12.3989872,8.76249282 C12.7019197,8.94684946 13.0822863,9.17456579 13.2945011,9.45780748 C13.4775565,9.70268052 13.3994745,9.92883715 13.3155605,10.0573565 C13.2368305,10.1777654 12.9465337,10.2354743 12.7641262,10.2123908 C12.5110884,10.1802609 12.2509229,10.0798162 12.0299603,9.9509849 C9.04178226,8.21004676 6.05554812,6.46567728 3.08259765,4.70134363 C2.73236231,4.49327953 2.43817759,4.17977965 2.16796827,3.87439022 C2.06526281,3.75803653 2.02865172,3.48914409 2.09831,3.35688146 C2.16829227,3.22399494 2.40837033,3.17408451 2.61766915,3.06521739" id="Fill-37"></path><path d="M40.1979935,45.1966408 C40.2330819,45.3499268 40.2233827,45.5120259 40.171178,45.6596463 C40.1186881,45.8075814 40.0630602,45.9517395 39.982899,45.9709396 C39.8148742,46.0109135 39.5490013,45.8812342 39.4214851,45.727004 C39.1986882,45.4572584 39.0132618,45.1321159 38.8743347,44.798475 C37.665355,41.8939102 36.4677861,38.9833651 35.2747815,36.070302 C35.1706575,35.8162942 35.090211,35.5377355 35.0645366,35.2629539 C35.0494172,35.098022 35.1198792,34.8408666 35.2294234,34.7681581 C35.3335474,34.6995414 35.585442,34.7609187 35.6904218,34.8651028 C35.9106512,35.0841727 36.1317365,35.3406985 36.2569706,35.6315327 C37.5127348,38.5543533 38.7528091,41.485987 39.9854664,44.421083 C40.0833145,44.6536874 40.1329517,44.9114722 40.1979935,45.1966408" id="Fill-39"></path><path d="M4.60099527,1.02173913 C5.09828986,1.0606905 5.5568302,1.34255118 5.98932768,1.67869842 C7.71156674,3.01776669 9.43287571,4.35775508 11.1544947,5.69774346 C11.6917837,6.11578058 12.2399239,6.52154955 12.7595409,6.96013581 C12.9849356,7.1505988 13.1911083,7.38829415 13.334034,7.64377832 C13.5222246,7.97992555 13.3244229,8.24614435 12.9511419,8.15628017 C12.6401778,8.08113777 12.3158822,7.95170882 12.0641346,7.76063242 C9.60308439,5.892807 7.15381551,4.00933969 4.70888711,2.12096513 C4.51387571,1.97068032 4.34521719,1.76733578 4.21655307,1.55755046 C4.01534098,1.22907082 4.14679541,1.02695309 4.60099527,1.02173913" id="Fill-41"></path><path d="M42.2261137,42.225539 C42.2834053,42.412151 42.3116438,42.5957676 42.2323587,42.7724949 C42.2081931,42.8261122 42.0963251,42.89231 42.0634706,42.9027938 C41.9518741,42.9384388 41.8193703,42.876734 41.7303103,42.785375 C41.5543626,42.6056524 41.3987791,42.3893861 41.274421,42.1617375 C39.9806077,39.7944908 38.704715,37.3954931 37.4301799,35.0159653 C37.2778548,34.7311049 37.1725033,34.4156917 37.1304171,34.0862002 C37.0867017,33.7450267 37.314239,33.6096357 37.5724586,33.8127223 C37.7570952,33.957399 37.9300561,34.1778588 38.0478977,34.390231 C39.3465984,36.7254272 40.5907228,39.0636187 41.866887,41.4137917 C42.0059075,41.670196 42.1378683,41.9376832 42.2261137,42.225539" id="Fill-43"></path><path d="M7.32084395,0.0795120436 C7.44642618,-0.0158316787 7.62257617,-0.0237243709 7.76523758,0.0466784439 C8.12724926,0.225053289 8.50767968,0.382591426 8.81477007,0.623476393 C9.4661232,1.1330286 10.0612155,1.70666948 10.6757312,2.2575794 C12.0825869,3.52009445 13.4894427,4.78324091 14.8906054,6.0514387 C15.0764671,6.2197109 15.2593148,6.40345278 15.3875761,6.61087273 C15.4639301,6.73431444 15.5037816,6.9751994 15.4284322,7.05823053 C15.3470549,7.14883863 15.088523,7.17819945 14.9518895,7.12737051 C14.6514969,7.0162414 14.2492989,6.76841087 14.0182276,6.5644637 C11.8310876,4.63422688 9.74340874,2.80406941 7.57334794,0.857100084 C7.43838891,0.736184038 7.32486259,0.57612024 7.25420166,0.413846487 C7.1888989,0.26451675 7.21535489,0.159386089 7.32084395,0.0795120436" id="Fill-45"></path><path d="M43.268677,40.7437543 C43.2477013,40.7834528 43.2079292,40.8205902 43.1823225,40.8343566 C43.0774439,40.8955052 42.9221692,40.8721342 42.848618,40.8017013 C42.7042398,40.6627564 42.5685787,40.4485764 42.4571622,40.2715336 C41.1632062,38.2107308 39.916105,36.1953893 38.6395833,34.1198596 C38.4499847,33.8115556 38.2919858,33.4753985 38.1800246,33.1117086 C38.1301732,32.9500331 38.1565972,32.7547418 38.2794549,32.7057589 C38.360906,32.6731037 38.5456012,32.7236873 38.6278696,32.7986023 C38.7836891,32.9401084 38.9136296,33.110428 39.0318563,33.2973953 C40.2789575,35.2688764 41.4576834,37.2774948 42.6846261,39.266264 C42.8804902,39.5838524 43.0711784,39.92129 43.2297221,40.2510441 C43.3032733,40.4043957 43.3523074,40.5836795 43.268677,40.7437543 Z" id="Fill-48"></path><path d="M15.0137927,5.07709653 C14.7526979,4.91876179 14.5172583,4.73640723 14.3045342,4.53517996 C13.7732585,4.03321473 13.2863448,3.49178836 12.7825949,2.96580331 C11.9904917,2.1390803 11.1927763,1.31701419 10.4140351,0.479996968 C10.3915869,0.455732047 10.371811,0.429751424 10.3539058,0.402055101 C10.2229576,0.200337627 10.4228541,-0.0506449892 10.6703196,0.00891436204 C10.711742,0.0189634707 10.7510264,0.0324439823 10.7873713,0.0510715983 C11.0580867,0.188327717 11.3135694,0.37779018 11.5204142,0.590046962 C12.7331553,1.83638154 13.9317326,3.09472602 15.1303099,4.3525803 C15.2505685,4.47880691 15.3617409,4.62121013 15.4373702,4.77268206 C15.4876116,4.87317315 15.4801288,4.95846802 15.3959478,5.02489018 C15.3005426,5.10038105 15.1185513,5.14082258 15.0137927,5.07709653 Z" id="Fill-50"></path><path d="M43.2557465,37.7116549 C43.2326499,37.7486292 43.1562318,37.7893349 43.1379827,37.7954407 C43.0541509,37.8229171 42.9492185,37.783229 42.8676678,37.7255627 C42.7701491,37.6567022 42.6860322,37.5430656 42.6093289,37.4396053 C41.3045177,35.6834948 40.0652893,33.8829473 38.7792976,32.1075016 C38.5520391,31.7933895 38.3216442,31.450105 38.1762216,31.0627227 C38.1402937,30.9667251 38.1411491,30.7703203 38.2785877,30.6729659 C38.3441704,30.6264936 38.5012838,30.6638071 38.5868265,30.7269009 C38.7125743,30.8191671 38.8186472,30.9575663 38.9181619,31.0915558 C40.1693662,32.7743962 41.3635422,34.5149028 42.5933609,36.219792 C42.8049365,36.5128729 43.0125201,36.8117203 43.190734,37.1268501 C43.2905338,37.3032413 43.3712291,37.5237304 43.2557465,37.7116549 Z" id="Fill-52"></path><path d="M12.8411192,0.053737099 C13.1789483,0.251435373 13.4971207,0.570485027 13.7399979,0.826581979 C14.9940302,2.14885661 16.2623886,3.35326236 17.4724431,4.70178961 C17.4940989,4.72589916 17.5090913,4.75402696 17.5194194,4.78456572 C17.585386,4.97663843 17.3644977,5.15879945 17.1296166,5.09611463 C17.1076277,5.09048907 17.0869715,5.08272044 17.0683142,5.07280873 C16.7548062,4.90645287 16.1414498,4.32300186 15.9218941,4.08672832 C14.6841869,2.75454198 13.7519918,1.81319816 12.5366066,0.467617632 C12.4886309,0.414576632 12.440322,0.359392561 12.4110035,0.299118697 C12.3530328,0.180714039 12.3603624,0.0971342812 12.4676415,0.0406107908 C12.5815838,-0.0196630732 12.7308417,-0.0108229065 12.8411192,0.053737099 Z" id="Fill-54"></path><path d="M38.4458417,27.5881292 C38.4698215,27.5857007 38.4928791,27.5869149 38.5143994,27.5929861 C38.6370655,27.6291095 38.7422078,27.7411223 38.8415089,27.8343146 C40.0703213,28.989656 41.2530187,30.1538005 42.454777,31.335855 C43.1016175,31.9830404 43.2833108,32.2802236 43.2974527,32.3269715 C43.3103649,32.3700767 43.3257366,32.457805 43.2925338,32.5327838 C43.2245909,32.6860805 43.015536,32.7446672 42.8759611,32.6496536 C42.8704273,32.6457073 42.7914169,32.5928882 42.7861905,32.5886384 C42.544855,32.3910222 42.3702327,32.2052448 42.1421169,31.9921471 C41.0559537,30.9770495 40.0285103,29.8848482 38.9417322,28.8700542 C38.6462885,28.5944236 38.1811413,28.0492336 38.1593135,27.9259891 C38.1322593,27.7726924 38.2890505,27.6033071 38.4458417,27.5881292 Z" id="Fill-56"></path><path d="M16.8077042,2.08119813 C16.8130206,2.08518265 16.8183369,2.08978018 16.8233875,2.0943777 C17.0894707,2.34172438 17.3717688,2.78799052 17.5485374,3.11134957 C18.2354097,4.36831208 18.903409,5.44719725 19.5549275,6.72929289 C19.5650286,6.74952198 19.5732689,6.77036408 19.5799144,6.79243219 C19.6453055,7.0039182 19.4674736,7.21663022 19.2864519,7.13387483 C19.2699712,7.12590579 19.2548196,7.11640424 19.2412629,7.10414418 C18.9828884,6.86660555 18.6030352,6.24256856 18.4339754,5.92687205 C17.7513562,4.65213244 17.2019115,3.73109553 16.5466715,2.43673984 C16.5381653,2.41988226 16.529925,2.40271817 16.5222163,2.38463459 C16.4310409,2.17682659 16.639176,1.95277402 16.8077042,2.08119813 Z" id="Fill-58"></path><path d="M42.8416929,30.6154889 C42.8314242,30.6089099 42.8211555,30.6020319 42.811218,30.5951539 C41.5733412,29.7285269 40.3659392,28.7419836 39.163506,27.837079 C38.8322572,27.587677 38.4940521,27.2958109 38.2244156,26.9880955 C38.0375913,26.7751768 38.2823841,26.5622581 38.391365,26.5652485 C38.4400586,26.5667437 38.4721897,26.5553801 38.6265517,26.6217677 C38.6974389,26.6522701 38.9309693,26.8322941 38.9942379,26.8774496 C40.200646,27.7404881 41.2232112,28.5592682 42.4080882,29.4462302 C42.6922997,29.6905484 42.9480237,29.9103451 43.2140165,30.1830725 C43.214679,30.1842686 43.221304,30.193838 43.2222978,30.1950342 C43.5028655,30.4716491 43.0589921,30.754843 42.8416929,30.6154889 Z" id="Fill-60"></path><path d="M20.8995082,2.06253617 C21.2358355,2.2422629 21.3453861,2.62546006 21.4840107,3.03075207 C21.8936044,4.22750121 22.2759848,5.44304747 22.6632497,6.65496621 C22.6662734,6.66452965 22.6688319,6.67475264 22.6713904,6.68464585 C22.7472152,6.98770798 22.5376503,7.17963633 22.4115857,7.14896737 C22.3918154,7.14435054 22.3220379,7.15325443 22.2583079,7.03816337 C22.0696761,6.69816658 21.9454723,6.37202028 21.8061499,6.02114095 C21.7996374,6.00498203 21.7926596,5.98882312 21.7868448,5.97200465 C21.3728319,4.78976556 21.0190603,3.6497375 20.6420294,2.44177605 C20.571089,2.20895574 20.7343682,1.97415679 20.8995082,2.06253617 Z" id="Fill-62"></path><path d="M38.527784,23.5352681 C39.5161826,24.1418612 40.3784892,24.7764416 41.3277773,25.4143684 C41.3712681,25.4432682 41.4131945,25.4746018 41.4538693,25.5071522 C41.7410963,25.7389596 42.0411514,25.9713754 42.2442127,26.2503353 C42.2479673,26.2552026 42.251409,26.2606784 42.2545379,26.2664584 C42.3559121,26.440466 42.1487833,26.6348557 41.9679367,26.5405509 C41.9482251,26.5302077 41.9297649,26.5198646 41.9113048,26.5086089 C40.923532,25.9187472 40.0915751,25.3197593 39.1303974,24.6915673 C38.8193913,24.4883555 38.4298515,24.1707611 38.2020724,23.8656393 C38.1933117,23.8537751 38.1854896,23.8409983 38.1789191,23.8273089 C38.0794221,23.6207508 38.3278515,23.416018 38.527784,23.5352681 Z" id="Fill-64"></path><path d="M24.5340041,8.16515253 C24.0571313,8.00526855 23.7343737,7.69613865 23.5897328,7.27343168 C23.247395,6.27282701 22.983378,5.24625293 22.6899907,4.22937828 C22.6874642,4.22124328 22.6871484,4.2127954 22.68778,4.20309598 C22.6940962,4.12080735 22.7799965,4.06761698 22.8589489,4.0935864 C23.2966613,4.23720039 23.6203663,4.5278701 23.7650072,4.91741131 C24.137347,5.92051905 24.4256813,6.95460236 24.7437018,7.97710894 C24.7468599,7.98618259 24.7484389,7.99556913 24.7493863,8.00558143 C24.7594923,8.11884562 24.6429584,8.20176002 24.5340041,8.16515253 Z" id="Fill-66"></path><path d="M38.8905672,24.502206 C38.7373145,24.4312107 38.5907925,24.3532233 38.4510012,24.2881442 C37.9319612,24.0469213 37.508963,23.7473424 37.0077853,23.4679325 C36.6422569,23.2640898 36.2725866,23.0355062 36.1053548,22.7566342 C36.0719602,22.7012363 36.117004,22.5468752 36.1599769,22.5143356 C36.2609373,22.4376929 36.3983988,22.502772 36.4556096,22.5304709 C37.2097061,22.8948601 37.8278943,23.2931333 38.5651641,23.6919445 C38.803327,23.8204891 39.0653063,23.9466135 39.1724796,24.2262922 C39.2413398,24.4064698 39.0606466,24.5812691 38.8905672,24.502206 Z" id="Fill-68"></path><path d="M26.2623588,10.1965431 C25.7077883,10.04638 25.2178936,9.75125173 25.1411515,9.45092551 C24.9688437,8.77663541 24.8684515,8.09512593 24.7521317,7.41130625 C24.7207591,7.22764522 25.0417246,7.09365353 25.3163552,7.17797589 C25.7869437,7.32265226 26.2107147,7.588903 26.2937313,7.86237312 C26.5012729,8.54677035 26.6455867,9.23780941 26.8087241,9.95021784 C26.8502324,10.1321462 26.5418159,10.2719134 26.2623588,10.1965431 Z" id="Fill-70"></path><path d="M122.22839,11.2911386 L123.75,11.2911386 L123.75,9.19565217 L114.46875,9.19565217 L114.46875,11.3014809 L118.021644,11.3014809 L118.021644,18.3913043 L120.165104,18.3913043 L120.165104,17.9148906 C120.165104,16.5376947 120.160051,15.1805161 120.15803,13.8033201 L120.157356,11.3028154 L120.356105,11.3028154" id="Fill-72"></path></g></g></g></g></g></svg>