<svg xmlns="http://www.w3.org/2000/svg" viewBox="0 0 1375 319" style="fill-rule:evenodd;clip-rule:evenodd;"><path d="M223.674 39.048h142.18c4.9.027 8.923 4.051 8.95 8.95v60.45c.006 7.018 5.782 12.79 12.8 12.79h60.46v8.95" style="fill:none;stroke:#f9b536;stroke-width:2px;stroke-dasharray:16,16,0,0"/><path d="M467.324 167.988v8l-138.72.38c-7.358.347-13.248 6.445-13.34 13.81l-.43 67.05c-.049 6.992-5.818 12.716-12.81 12.71h-79.57m799.166-234.89H825.77c-4.899.027-8.923 4.051-8.95 8.95v60.45c0 7.017-5.773 12.79-12.79 12.79h-60.47v8.95" style="fill:none;stroke:#2e3b4c;stroke-width:2px;stroke-dasharray:16,16,0,0"/><path d="M726.304 167.988v8l138.73.38c7.347.341 13.237 6.416 13.35 13.77l.43 67.05c.038 6.992 5.808 12.721 12.8 12.71l47.19-.16" style="fill:none;stroke:#f9b536;stroke-width:2px;stroke-dasharray:16,16,0,0"/><path d="M1165.2 147.098H685.63" style="fill-rule:nonzero;stroke:#3faae0;stroke-width:2px;stroke-dasharray:16,16,0,0"/><path d="M451.524 126.258v-1.87h47.14v6.48h-42.53c-2.529 0-4.61-2.081-4.61-4.61zm12.12 13.47v-2h35v6.48h-30.46c-2.472.011-4.518-2.008-4.54-4.48zm12.87 13.24v-1.93h22.15v6.45h-17.59c-2.486 0-4.538-2.033-4.56-4.52z" style="fill:#fff;fill-rule:nonzero"/><path d="M430.494 53.988h311.22a3.66 3.66 0 0 1 3.67 3.6v177.3h-318.55v-177.3a3.67 3.67 0 0 1 3.66-3.6z" style="fill:#e7e8ea;fill-rule:nonzero"/><rect x="433.474" y="82.518" width="305.69" height="153.61" style="fill:#fff"/><path d="M541.164 237.678l-11.48 45.9a.85.85 0 0 0-.024.2c0 .466.384.85.85.85h115.211c.461 0 .84-.379.84-.84a.83.83 0 0 0-.027-.21l-11.47-45.9h-93.9z" style="fill:#d7d8dc;fill-rule:nonzero"/><path d="M430.434 53.288h311.3c2 0 3.51-.15 3.57.47l.1 23h-318.64v-23c-.02-.61 1.62-.47 3.67-.47z" style="fill:#2e3b4c;fill-rule:nonzero"/><g><path d="M460.444 59.278v1.53h-3.92v1.73h3.47v1.53h-3.47v1.75h4.07v1.54h-5.66v-8.08h5.51zm8.49-.01l-3.69 8.09-3.69-8.09h1.91l1.84 4.36 1.74-4.36h1.89zm6.9.01v1.53h-3.92v1.73h3.47v1.53h-3.47v1.75h4.07v1.54h-5.66v-8.08h5.51zm9.12 1.99c.348-.603.839-1.111 1.43-1.48a4.11 4.11 0 0 1 2.12-.6 4 4 0 0 1 2.06.56c.623.372 1.143.895 1.51 1.52a4 4 0 0 1 .57 2.06c.005.726-.193 1.44-.57 2.06-.365.622-.886 1.139-1.51 1.5a4.13 4.13 0 0 1-4.76-.46 3.99 3.99 0 0 1-.41-.4 4.1 4.1 0 0 1-.45-4.76h.01zm1.43 3.35c.439.797 1.28 1.293 2.19 1.29a2.35 2.35 0 0 0 1.24-.35c.368-.227.668-.548.87-.93a2.61 2.61 0 0 0 .32-1.3 2.64 2.64 0 0 0-.33-1.32c-.206-.388-.514-.712-.89-.94a2.5 2.5 0 0 0-2.52 0c-.373.231-.68.555-.89.94a2.65 2.65 0 0 0-.33 1.32c-.006.453.112.899.34 1.29z" style="fill:#fff;fill-rule:nonzero"/><path d="M477.634 67.358h1.59v-6.55h1.16c.38-.054.762.099 1 .4.163.25.249.542.25.84a1.27 1.27 0 0 1-.29.82 1.14 1.14 0 0 1-.95.38h-.07v1.54l1.7 2.57h1.85l-1.87-2.94a2.3 2.3 0 0 0 1-1 3.17 3.17 0 0 0 .31-1.4 2.52 2.52 0 0 0-.83-2c-.659-.524-1.49-.784-2.33-.73h-2.45l-.07 8.07zm15.02 0h1.57l2.03-4.7 1.5 3.21h-2.11v1.49h4.39l-3.8-8.08m-54.1-.01h11.44v1.57h-9.87a1.58 1.58 0 0 1-1.57-1.57zm2.94 3.24h8.5v1.57h-6.93a1.58 1.58 0 0 1-1.57-1.57zm3.12 3.23h5.38v1.57h-3.81a1.58 1.58 0 0 1-1.57-1.57zm54.6-6.46h-1.41v8.08h1.58v-6.51a7.48 7.48 0 0 1 1.14 0c2.025.284 3.548 2.035 3.548 4.08a4.14 4.14 0 0 1-4.088 4.12h-52.58v.01a1.58 1.58 0 0 0 1.57 1.57h51a5.72 5.72 0 0 0 5.677-5.69c0-2.868-2.169-5.31-5.017-5.65" style="fill:#fff;fill-rule:nonzero"/></g><path d="M426.804 216.928h318.58l.001 19.61a3.73 3.73 0 0 1-3.661 3.71h-311.26a3.73 3.73 0 0 1-3.66-3.71v-19.61z" style="fill:#babcbe;fill-rule:nonzero"/><path d="M611.764 227.818a3.13 3.13 0 0 0-3.13-3.13h-41.05c-1.727 0-3.13 1.403-3.13 3.13a3.13 3.13 0 0 0 3.13 3.13h41.05a3.13 3.13 0 0 0 3.13-3.13z" style="fill:#d7d8dc"/><path d="M653.304 94.408h73.41c1.553 0 2.83 1.278 2.83 2.83v107.62a2.14 2.14 0 0 1-2.13 2.13h-74.82a2.14 2.14 0 0 1-2.13-2.13V97.238c0-1.552 1.278-2.83 2.83-2.83h.01z" style="fill:#f5f5f5;fill-rule:nonzero"/><path d="M706.504 157.793c0-.648-.526-1.175-1.175-1.175h-45.42c-.648 0-1.175.527-1.175 1.175s.527 1.175 1.175 1.175h45.42c.649 0 1.175-.526 1.175-1.175zm5.91 6.7c0-.648-.526-1.175-1.175-1.175h-51.33c-.648 0-1.175.527-1.175 1.175s.527 1.175 1.175 1.175h51.33c.649 0 1.175-.526 1.175-1.175zm5.5-13.02c0-.648-.526-1.175-1.175-1.175h-56.83c-.648 0-1.175.527-1.175 1.175s.527 1.175 1.175 1.175h56.83c.649 0 1.175-.526 1.175-1.175zm-19.2 19.08c0-.648-.526-1.175-1.175-1.175h-37.63c-.648 0-1.175.527-1.175 1.175s.527 1.175 1.175 1.175h37.63c.649 0 1.175-.526 1.175-1.175zm10.71 6.7c0-.648-.526-1.175-1.175-1.175h-48.34c-.648 0-1.175.527-1.175 1.175s.527 1.175 1.175 1.175h48.34c.649 0 1.175-.526 1.175-1.175z" style="fill:#c6c6c5"/><path d="M652.594 94.408h74.79a2.14 2.14 0 0 1 2.13 2.13v44.52h-79.04v-44.53a2.14 2.14 0 0 1 2.12-2.12z" style="fill:#f6f7fc;fill-rule:nonzero"/><path d="M713.554 194.328c0-2.075-1.685-3.76-3.76-3.76h-37.86c-2.075 0-3.76 1.685-3.76 3.76v.01c0 2.075 1.685 3.76 3.76 3.76h37.86c2.075 0 3.76-1.685 3.76-3.76v-.01z" style="fill:#65bda7"/><path d="M699.334 194.328a.82.82 0 0 0-.82-.82h-15.73a.82.82 0 1 0 0 1.64h15.73a.82.82 0 0 0 .82-.82z" style="fill:#fff"/><path d="M545.054 99.448a2.03 2.03 0 0 0-2.03-2.03h-97.14a2.03 2.03 0 0 0 0 4.06h97.14a2.03 2.03 0 0 0 2.03-2.03z" style="fill:#2e3b4c"/><path d="M483.124 118.528a1.3 1.3 0 0 0-1.3-1.3h-36.67a1.3 1.3 0 1 0 0 2.6h36.67a1.3 1.3 0 0 0 1.3-1.3zm101.34 0a1.3 1.3 0 0 0-1.3-1.3h-36.67a1.3 1.3 0 1 0 0 2.6h36.67a1.3 1.3 0 0 0 1.3-1.3zm-101.66 27.23a1.3 1.3 0 0 0-1.3-1.3h-36.67a1.3 1.3 0 0 0-1.3 1.3 1.3 1.3 0 0 0 1.3 1.3h36.67a1.3 1.3 0 0 0 1.3-1.3zm101.86 0a1.3 1.3 0 0 0-1.3-1.3h-36.67a1.3 1.3 0 0 0-1.3 1.3 1.3 1.3 0 0 0 1.3 1.3h36.67a1.3 1.3 0 0 0 1.3-1.3zm-88.75 56.205c0-.648-.526-1.175-1.175-1.175h-49.89c-.648 0-1.175.527-1.175 1.175s.527 1.175 1.175 1.175h49.89c.649 0 1.175-.526 1.175-1.175zm12.49-6.32c0-.648-.526-1.175-1.175-1.175h-62.38c-.648 0-1.175.527-1.175 1.175s.527 1.175 1.175 1.175h62.38c.649 0 1.175-.526 1.175-1.175z" style="fill:#c6c6c5"/><path d="M527.784 128.483a4.51 4.51 0 0 0-4.505-4.505h-75.01a4.51 4.51 0 0 0-4.505 4.505 4.51 4.51 0 0 0 4.505 4.505h75.01a4.51 4.51 0 0 0 4.505-4.505zm101.54 0a4.51 4.51 0 0 0-4.505-4.505h-75.01a4.51 4.51 0 0 0-4.505 4.505 4.51 4.51 0 0 0 4.505 4.505h75.01a4.51 4.51 0 0 0 4.505-4.505zm-101.54 26.79a4.51 4.51 0 0 0-4.505-4.505h-75.01a4.51 4.51 0 0 0-4.505 4.505 4.51 4.51 0 0 0 4.505 4.505h75.01a4.51 4.51 0 0 0 4.505-4.505zm-50.57 20.805c0-2.02-1.64-3.66-3.66-3.66h-26.13c-2.02 0-3.66 1.64-3.66 3.66s1.64 3.66 3.66 3.66h26.13c2.02 0 3.66-1.64 3.66-3.66zm39.2 0c0-2.02-1.64-3.66-3.66-3.66h-26.13c-2.02 0-3.66 1.64-3.66 3.66s1.64 3.66 3.66 3.66h26.13c2.02 0 3.66-1.64 3.66-3.66zm26.08 0c0-2.02-1.64-3.66-3.66-3.66h-12.32c-2.02 0-3.66 1.64-3.66 3.66s1.64 3.66 3.66 3.66h12.32c2.02 0 3.66-1.64 3.66-3.66zm46.02 0c0-2.02-1.64-3.66-3.66-3.66h-31.45c-2.02 0-3.66 1.64-3.66 3.66s1.64 3.66 3.66 3.66h31.45c2.02 0 3.66-1.64 3.66-3.66zm40.39 0c0-2.02-1.64-3.66-3.66-3.66h-26.19c-2.02 0-3.66 1.64-3.66 3.66s1.64 3.66 3.66 3.66h26.19c2.02 0 3.66-1.64 3.66-3.66zm.42-20.805a4.51 4.51 0 0 0-4.505-4.505h-75.01a4.51 4.51 0 0 0-4.505 4.505 4.51 4.51 0 0 0 4.505 4.505h75.01a4.51 4.51 0 0 0 4.505-4.505z" style="fill:#ececec"/><g><path d="M94.734 44.178h1.75v-3.84l-1.75.71v3.13z" style="fill:#efbb66;fill-rule:nonzero"/><g><path d="M68.514 12.438l-.1 25.85 25.61.02-.01-25.87h-25.5z" style="fill:#e3a554;fill-rule:nonzero"/><path d="M49.074 12.538l19.44-.1-.1 25.77h-19.32l-.02-25.67z" style="fill:#f6c049;fill-rule:nonzero"/><g><g><rect x="94.444" y="38.208" width="2.05" height="1.38" style="fill:#ffda80"/><rect x="67.584" y="38.208" width="26.93" height="1.42" style="fill:#e1994a"/><path d="M88.964 39.598h3.38l1.09-1.39h-1.09l-3.38 1.39zm-6.38 0h3.38l1.08-1.39h-1.1l-3.36 1.39zm-6.66 0h3.38l1.08-1.39h-1l-3.46 1.39zm-6.39 0h3.38l1.08-1.39h-1.08l-3.38 1.39z" style="fill:#b77a52;fill-rule:nonzero"/></g><rect x="81.414" y="38.208" width="4.47" height="1.38" style="fill:#ffda80"/><rect x="87.924" y="38.208" width="4.47" height="1.38" style="fill:#ffda80"/><rect x="74.894" y="38.208" width="4.47" height="1.38" style="fill:#ffda80"/><rect x="47.474" y="38.208" width="22.46" height="1.44" style="fill:#e1994a"/></g><rect x="59.304" y="40.668" width="3.02" height="3.13" style="fill:#72514c"/><rect x="50.244" y="40.668" width="3.02" height="3.13" style="fill:#72514c"/><path d="M91.824 44.138l2.94.04v-3.13h-2.94v3.09z" style="fill:#b77a52;fill-rule:nonzero"/><path d="M91.824 44.138l2.44-3.09h-2.92l.48 2.19-.47.65.47.25z" style="fill:#72514c;fill-rule:nonzero"/><rect x="81.664" y="41.048" width="2.94" height="3.13" style="fill:#b77a52"/><path d="M78.634 44.178h3.46v-3.13h-2.94l-.52 3.13z" style="fill:#b77a52;fill-rule:nonzero"/><rect x="67.854" y="41.048" width="2.94" height="3.13" style="fill:#b77a52"/><path d="M81.544 44.178h4.17v-3.76l-4.17.63v3.13zm-13.16 0h4.17v-3.8l-4.17.67v3.13z" style="fill:#efbb66;fill-rule:nonzero"/><path d="M65.504 44.178h2.94v-3.13l-2.94-.59v3.72zm-18.01 0h2.94v-3.13l-2.94-.71v3.84zm9.01 0h2.94v-3.13l-2.94-.86v3.99z" style="fill:#c38d48;fill-rule:nonzero"/><rect x="68.384" y="39.568" width="28.1" height="1.47" style="fill:#efbb66"/><rect x="47.494" y="39.568" width="20.95" height="1.47" style="fill:#c38d48"/><rect x="47.494" y="43.228" width="20.95" height=".94" style="fill:#c38d48"/><path d="M78.634 44.178l2.91-3.16h-2.91v2.22l-.58.75.58.19z" style="fill:#72514c;fill-rule:nonzero"/><path d="M68.444 39.598l4.47-.02v-1.35h-4.47v1.37z" style="fill:#ffda80;fill-rule:nonzero"/><rect x="68.174" y="12.438" width=".69" height="25.77" style="fill:#f29f32"/><rect x="57.614" y="12.498" width=".69" height="25.72" style="fill:#f29f32"/><rect x="79.384" y="25.988" width="3.52" height="2.17" style="fill:#94493b;fill-rule:nonzero"/><rect x="49.054" y="25.818" width="44.97" height=".69" style="fill:#f29f32"/><rect x="79.334" y="12.458" width="3.52" height="1.42" style="fill:#94493b"/><rect x="61.764" y="12.448" width="3" height="1.39" style="fill:#94493b;fill-rule:nonzero"/><path d="M51.774 12.518v1.39h3v-1.4l-3 .01z" style="fill:#94493b;fill-rule:nonzero"/><rect x="61.764" y="26.518" width="3" height="1.39" style="fill:#94493b;fill-rule:nonzero"/><path d="M51.774 26.588v1.39h3v-1.41l-3 .02z" style="fill:#94493b;fill-rule:nonzero"/><path d="M88.354 34.398v2.18h4.31v-2.17l-4.31-.01zm0-12.3v2.18h4.31v-2.17l-4.31-.01z" style="fill:#f6f7fb;fill-rule:nonzero"/><path d="M49.074 12.538v-.69l44.95.03-.01.6-44.94.06z" style="fill:#f29f32;fill-rule:nonzero"/></g></g><g><path d="M92.134 67.538l-.13 15.61h32.25v-15.59s-32.11 0-32.12-.02z" style="fill:#e3a554;fill-rule:nonzero"/><path d="M67.634 68.198l24.49-.12-.12 15.07h-24.35l-.02-14.95z" style="fill:#f6c049;fill-rule:nonzero"/><g><g><rect x="124.784" y="83.148" width="2.58" height="1.74" style="fill:#ffda80"/><rect x="90.944" y="83.148" width="33.92" height="1.79" style="fill:#e1994a"/><path d="M117.884 84.888h4.26l1.36-1.74h-1.36l-4.26 1.74zm-8.04 0h4.26l1.37-1.74h-1.4l-4.23 1.74zm-8.39 0h4.26l1.36-1.74h-1.25l-4.37 1.74zm-8.2 0h4.26l1.37-1.74h-1.26l-4.37 1.74z" style="fill:#b77a52;fill-rule:nonzero"/></g><rect x="108.374" y="83.148" width="5.63" height="1.74" style="fill:#ffda80"/><rect x="116.574" y="83.148" width="5.63" height="1.74" style="fill:#ffda80"/><rect x="100.164" y="83.148" width="5.63" height="1.74" style="fill:#ffda80"/><rect x="65.614" y="83.148" width="28.3" height="1.81" style="fill:#e1994a"/></g><g><rect x="80.524" y="86.248" width="3.8" height="3.94" style="fill:#72514c"/><rect x="69.104" y="86.248" width="3.8" height="3.94" style="fill:#72514c"/><path d="M121.474 90.628l3.71.04v-3.95h-3.71v3.91z" style="fill:#b77a52;fill-rule:nonzero"/><path d="M121.474 90.628l3.08-3.91h-3.67l.59 2.77-.58.82.58.32z" style="fill:#72514c;fill-rule:nonzero"/><rect x="108.684" y="86.718" width="3.7" height="3.94" style="fill:#b77a52"/><path d="M104.874 90.698h4.35v-3.95h-3.7l-.65 3.95z" style="fill:#b77a52;fill-rule:nonzero"/><rect x="91.294" y="86.718" width="3.7" height="3.94" style="fill:#b77a52"/><path d="M125.154 90.668h2.2v-4.83l-2.2.88v3.95zm-16.61.03l5.24-.03v-4.74l-5.24.79v3.98zm-16.59-.03h5.25v-4.78l-5.25.83v3.95z" style="fill:#efbb66;fill-rule:nonzero"/><path d="M88.334 90.668h3.7v-3.95l-3.7-.74v4.69zm-22.69 0h3.7v-3.95l-3.7-.88v4.83zm11.34 0h3.71v-3.95l-3.71-1.07v5.02z" style="fill:#c38d48;fill-rule:nonzero"/><rect x="91.954" y="84.868" width="35.4" height="1.85" style="fill:#efbb66"/><rect x="65.644" y="84.868" width="26.39" height="1.85" style="fill:#c38d48"/><rect x="65.644" y="89.478" width="26.39" height="1.19" style="fill:#c38d48"/><path d="M104.874 90.698l3.67-3.98h-3.67v2.8l-.74.95.74.23z" style="fill:#72514c;fill-rule:nonzero"/></g><rect x="92.034" y="83.148" width="5.63" height="1.76" style="fill:#ffda80"/><rect x="91.694" y="67.598" width=".87" height="15.55" style="fill:#f29f32"/><rect x="78.384" y="67.668" width=".87" height="15.49" style="fill:#f29f32"/><rect x="105.754" y="67.708" width="4.43" height="2.73" style="fill:#94493b;fill-rule:nonzero"/><rect x="67.614" y="67.548" width="56.67" height=".87" style="fill:#f29f32"/><path d="M116.734 78.338v2.75h5.43v-2.73l-5.43-.02z" style="fill:#f6f7fb;fill-rule:nonzero"/><rect x="83.784" y="68.418" width="3.79" height="1.75" style="fill:#94493b;fill-rule:nonzero"/><path d="M71.194 68.508v1.75h3.79v-1.77l-3.79.02z" style="fill:#94493b;fill-rule:nonzero"/></g><g><g><g><path d="M166.164 10.488l-.12 44.7h30.24v-44.69l-30.12-.01z" style="fill:#e3a554;fill-rule:nonzero"/><path d="M143.184 10.598l23-.11-.11 44.7h-22.87l-.02-44.59z" style="fill:#f6c049;fill-rule:nonzero"/><g><g><g><rect x="196.784" y="55.198" width="2.42" height="1.63" style="fill:#ffda80"/><rect x="165.054" y="55.198" width="31.81" height="1.68" style="fill:#e1994a"/><path d="M190.304 56.828h4l1.28-1.63h-1.28l-4 1.63zm-7.53 0h3.99l1.28-1.63h-1.31l-3.96 1.63zm-7.87 0h3.99l1.28-1.63h-1.18l-4.09 1.63zm-7.69 0h3.99l1.29-1.63h-1.18l-4.1 1.63z" style="fill:#b77a52;fill-rule:nonzero"/></g><rect x="181.394" y="55.198" width="5.28" height="1.63" style="fill:#ffda80"/><rect x="189.084" y="55.198" width="5.28" height="1.63" style="fill:#ffda80"/><rect x="173.694" y="55.198" width="5.28" height="1.63" style="fill:#ffda80"/><rect x="141.304" y="55.198" width="26.54" height="1.7" style="fill:#e1994a"/></g><g><rect x="155.274" y="58.098" width="3.57" height="3.7" style="fill:#72514c"/><rect x="144.574" y="58.098" width="3.57" height="3.7" style="fill:#72514c"/><rect x="193.684" y="58.058" width="3.47" height="4.18" style="fill:#b77a52"/><path d="M193.684 62.238l2.86-3.7h-3.44l.55 2.6-.54.77.57.33z" style="fill:#72514c;fill-rule:nonzero"/><rect x="181.684" y="58.538" width="3.47" height="3.7" style="fill:#b77a52"/><path d="M178.104 62.238h4.09v-3.7h-3.47l-.62 3.7z" style="fill:#b77a52;fill-rule:nonzero"/><rect x="165.374" y="58.538" width="3.47" height="3.7" style="fill:#b77a52"/><path d="M197.134 62.238h2.06v-4.53l-2.06.83v3.7zm-15.59 0h4.92v-4.44l-4.92.74v3.7zm-15.54 0h4.92v-4.48l-4.92.78v3.7z" style="fill:#efbb66;fill-rule:nonzero"/><path d="M162.594 62.238h3.48v-3.7l-3.48-.69v4.39zm-21.27 0h3.47v-3.7l-3.47-.83v4.53zm10.64 0h3.47v-3.7l-3.47-1.01v4.71z" style="fill:#c38d48;fill-rule:nonzero"/><rect x="165.994" y="56.798" width="33.19" height="1.74" style="fill:#efbb66"/><rect x="141.324" y="56.798" width="24.75" height="1.74" style="fill:#c38d48"/><rect x="141.324" y="61.128" width="24.75" height="1.12" style="fill:#c38d48"/><path d="M178.104 62.238l3.46-3.73-3.46.03v2.62l-.67.87.67.21z" style="fill:#72514c;fill-rule:nonzero"/></g><path d="M166.074 56.638l5.27.16v-1.6h-5.27v1.44z" style="fill:#ffda80;fill-rule:nonzero"/></g><rect x="165.744" y="10.488" width=".82" height="44.71" style="fill:#f29f32"/><rect x="153.274" y="10.548" width=".82" height="44.65" style="fill:#f29f32"/><path d="M178.934 40.708v2.56h4.16v-2.56h-4.16z" style="fill:#94493b;fill-rule:nonzero"/><rect x="143.164" y="40.558" width="53.14" height=".82" style="fill:#f29f32"/><rect x="143.164" y="24.688" width="53.14" height=".82" style="fill:#f29f32"/><rect x="178.934" y="25.448" width="4.16" height="1.67" style="fill:#94493b"/><rect x="158.204" y="25.528" width="3.55" height="1.64" style="fill:#94493b;fill-rule:nonzero"/><path d="M146.384 25.558v1.64h3.55v-1.66l-3.55.02z" style="fill:#94493b;fill-rule:nonzero"/><rect x="158.204" y="41.428" width="3.55" height="1.64" style="fill:#94493b;fill-rule:nonzero"/><path d="M146.384 41.448v1.64h3.55v-1.65l-3.55.01z" style="fill:#94493b;fill-rule:nonzero"/><rect x="178.934" y="10.518" width="4.16" height="1.67" style="fill:#94493b"/><rect x="158.204" y="10.508" width="3.55" height="1.64" style="fill:#94493b;fill-rule:nonzero"/><path d="M146.384 10.598v1.64h3.55v-1.66l-3.55.02z" style="fill:#94493b;fill-rule:nonzero"/></g><g><path d="M189.194 50.958v2.58h5.1v-2.56l-5.1-.02zm.1-14.63v2.58h5.09v-2.56l-5.09-.02zm.23-15.73v2.58h5.09v-2.56l-5.09-.02z" style="fill:#f6f7fb;fill-rule:nonzero"/></g></g><rect x="143.194" y="9.748" width="53.09" height=".82" style="fill:#f29f32"/></g><g><path d="M1352.05 148.158l18.61-7.53c0-1.15-.09-1.54-1-3.2l-14.75-20.7-18.65 9 15.79 22.43z" style="fill:#e0eef6;fill-rule:nonzero"/><path d="M1350.02 117.748l-1.16 26.71 5.1 5.12 1.35-32.21-.48-.67-4.81 1.05zm7.62 2.9l-.74 29.27 1.22 1.44.77-28.94-1.25-1.77z" style="fill:#bbdaf0;fill-rule:nonzero"/><path d="M1192.38 117.418l13.67-6c1.299-.568 2.702-.861 4.12-.86l115-.21c1.14 0 1 1 1 1l-18.44 7-117.32 2.37a.1.1 0 0 1-.1-.1 3.64 3.64 0 0 1 2.07-3.2z" style="fill:#d5d4d6;fill-rule:nonzero"/><g><path d="M1349.57 156.418a8.31 8.31 0 0 0-7.93 8.263c0 4.537 3.733 8.27 8.27 8.27s8.27-3.733 8.27-8.27v-.003c-.108-4.622-3.987-8.343-8.61-8.26z" style="fill:#151e26;fill-rule:nonzero"/><circle cx="1348.88" cy="164.898" r="6.6" style="fill:#edeced"/><path d="M1348.88 172.808h-.01c-4.345 0-7.92-3.575-7.92-7.92s3.575-7.92 7.92-7.92 7.92 3.575 7.92 7.92v.01a7.96 7.96 0 0 1-7.91 7.91zm0-12.95c-2.743 0-5 2.257-5 5s2.257 5 5 5 5-2.257 5-5-2.257-5-5-5z" style="fill:#1f2833;fill-rule:nonzero"/><circle cx="1348.88" cy="164.898" r="1.12" style="fill:#fff"/></g><g><path d="M1227.82 156.208a8.31 8.31 0 0 0-7.93 8.263c0 4.537 3.733 8.27 8.27 8.27s8.27-3.733 8.27-8.27v-.003c-.098-4.626-3.983-8.354-8.61-8.26z" style="fill:#151e26;fill-rule:nonzero"/><circle cx="1227.12" cy="164.678" r="6.6" style="fill:#edeced"/><path d="M1227.12 172.598c-4.345 0-7.92-3.575-7.92-7.92s3.575-7.92 7.92-7.92 7.92 3.575 7.92 7.92-3.575 7.92-7.92 7.92zm0-13c-2.743 0-5 2.257-5 5s2.257 5 5 5 5-2.257 5-5c-.027-2.724-2.276-4.95-5-4.95v-.05z" style="fill:#1f2833;fill-rule:nonzero"/><circle cx="1227.12" cy="164.678" r="1.12" style="fill:#fff"/></g><path d="M1192.18 118.378h115.46v51.61h-116a1.44 1.44 0 0 1-1.43-1.43v-48.2a2.01 2.01 0 0 1 1.97-1.98z" style="fill:#dbdadd;fill-rule:nonzero"/><path d="M1190.19 164.678l19.46-10.64h98v15.95h-115.66c-.61 0-1.88-4.94-1.8-5.31z" style="fill:#b7b7b7;fill-rule:nonzero"/><path d="M1209.65 154.038l-.14-35.66h-16.76l-.155-.005c-1.322 0-2.41 1.088-2.41 2.41l.005.155v43.74l19.46-10.64z" style="fill:#cac9cc;fill-rule:nonzero"/><path d="M1326.1 111.328v42.71l-18.46 15.95v-51.61l17.8-7.94c.16-.04.67.13.66.89z" style="fill:#a5a5a5;fill-rule:nonzero"/><path d="M1310.51 125.768l18.79-8.52a6.37 6.37 0 0 1 2.58-.55h23l-18.51 9.1-25.91.72.05-.75z" style="fill:#3faae0;fill-rule:nonzero"/><g><path d="M1331.38 158.788a10.57 10.57 0 0 0-10.04 10.509c0 5.771 4.749 10.52 10.52 10.52s10.52-4.748 10.52-10.519c-.128-5.806-4.939-10.513-10.747-10.513l-.253.003z" style="fill:#151e26;fill-rule:nonzero"/><circle cx="1330.52" cy="169.568" r="8.4" style="fill:#edeced"/><path d="M1330.52 179.648h-.01c-5.53 0-10.08-4.55-10.08-10.08s4.55-10.08 10.08-10.08 10.08 4.55 10.08 10.08c-.005 5.524-4.546 10.069-10.07 10.08zm0-16.49h-.01c-3.522 0-6.42 2.898-6.42 6.42s2.898 6.42 6.42 6.42 6.42-2.898 6.42-6.42v-.01c-.005-3.514-2.896-6.404-6.41-6.41z" style="fill:#1f2833;fill-rule:nonzero"/><circle cx="1330.52" cy="169.568" r="1.43" style="fill:#fff"/></g><path d="M1351.89 168.898c0 .56-.07 1.28.43 1l16.84-8.21c.915-.454 1.497-1.389 1.5-2.41v-19.03c-.02-.433-.114-.859-.28-1.26l-17.92 9a.75.75 0 0 0-.42.69l-.15 20.22z" style="fill:#3faae0;fill-rule:nonzero"/><path d="M1336.23 125.718h-25.49c-.318 0-.58.262-.58.58v41.46a2.24 2.24 0 0 0 2.22 2.23h7.53c.311 0 .569-.249.58-.56a10.97 10.97 0 0 1 10.905-10.348 10.97 10.97 0 0 1 10.905 10.348c.006.309.261.56.57.56h9.19c.318 0 .58-.262.58-.58v-20a4.75 4.75 0 0 0-.91-2.79l-15-20.65a.58.58 0 0 0-.5-.25z" style="fill:#4dc5ff;fill-rule:nonzero"/><path d="M1315.21 130.698v17c-.011.507.394.934.9.95h30.83a.46.46 0 0 0 .37-.73l-12.34-17.8a1.39 1.39 0 0 0-1.13-.59h-17.46c-.642 0-1.17.528-1.17 1.17z" style="fill:#e0eef6;fill-rule:nonzero"/><path d="M1320.85 153.338a.57.57 0 0 0-.57-.57h-4.5a.57.57 0 0 0-.57.57v.42a.57.57 0 0 0 .57.57h4.5a.57.57 0 0 0 .57-.57v-.42z" style="fill:#edeced"/><path d="M1190.19 164.678h117.45v5.31h-116a1.41 1.41 0 0 1-1.4-1.4v-3.91h-.05z" style="fill:#334151;fill-rule:nonzero"/><path d="M1307.64 164.678l2.52-1.94v5.02l-2.52 2.23v-5.31z" style="fill:#2e3b4c;fill-rule:nonzero"/><path d="M1307.64 155.738h-101.1l.64-.34h100.46v.34zm0 2.39h-105.46l.62-.34h104.84v.34zm0 2.38h-109.78l.61-.34h109.17v.34zm0 2.38h-114.18l.63-.34h113.55v.34z" style="fill:#a5a5a5;fill-rule:nonzero"/><g><g><g><path d="M1236.88 124.258l.08 31.21h-21.11v-31.2l21.03-.01z" style="fill:#e3a554;fill-rule:nonzero"/><path d="M1252.91 124.338l-16-.08.08 31.21h15.94l-.02-31.13z" style="fill:#f6c049;fill-rule:nonzero"/><g><g><g><rect x="1213.81" y="155.468" width="1.69" height="1.14" style="fill:#ffda80"/><rect x="1215.45" y="155.468" width="22.21" height="1.17" style="fill:#e1994a"/><path d="M1220.02 156.608h-2.79l-.9-1.14h.9l2.79 1.14zm5.26 0h-2.79l-.89-1.14h.91l2.77 1.14zm5.49 0h-2.78l-.9-1.14h.82l2.86 1.14zm5.37 0h-2.79l-.89-1.14h.82l2.86 1.14z" style="fill:#b77a52;fill-rule:nonzero"/></g><rect x="1222.56" y="155.468" width="3.68" height="1.14" style="fill:#ffda80"/><rect x="1217.19" y="155.468" width="3.68" height="1.14" style="fill:#ffda80"/><rect x="1227.93" y="155.468" width="3.68" height="1.14" style="fill:#ffda80"/><rect x="1235.71" y="155.468" width="18.53" height="1.19" style="fill:#e1994a"/></g><g><rect x="1241.98" y="157.498" width="2.49" height="2.58" style="fill:#72514c"/><rect x="1249.46" y="157.498" width="2.49" height="2.58" style="fill:#72514c"/><rect x="1215.24" y="157.468" width="2.43" height="2.92" style="fill:#b77a52"/><path d="M1217.66 160.388l-2-2.58h2.41l-.39 1.81.38.53-.4.24z" style="fill:#72514c;fill-rule:nonzero"/><rect x="1223.61" y="157.808" width="2.42" height="2.58" style="fill:#b77a52"/><path d="M1228.53 160.388h-2.85v-2.58h2.43l.42 2.58z" style="fill:#b77a52;fill-rule:nonzero"/><rect x="1235" y="157.808" width="2.43" height="2.58" style="fill:#b77a52"/><path d="M1215.26 160.388h-1.45v-3.16l1.45.58v2.58zm10.87 0h-3.43v-3.1l3.43.52v2.58zm10.86 0h-3.44v-3.13l3.44.55v2.58z" style="fill:#efbb66;fill-rule:nonzero"/><path d="M1239.36 160.388h-2.42v-2.58l2.42-.49v3.07zm14.86 0h-2.43v-2.58l2.43-.58v3.16zm-7.43 0h-2.43v-2.58l2.43-.71v3.29z" style="fill:#c38d48;fill-rule:nonzero"/><rect x="1213.81" y="156.588" width="23.17" height="1.21" style="fill:#efbb66"/><rect x="1236.94" y="156.588" width="17.28" height="1.21" style="fill:#c38d48"/><rect x="1236.94" y="159.608" width="17.28" height=".78" style="fill:#c38d48"/><path d="M1228.53 160.388l-2.41-2.6 2.41.02v1.83l.47.6-.47.15z" style="fill:#72514c;fill-rule:nonzero"/></g><path d="M1236.94 156.478l-3.68.11v-1.12h3.68v1.01z" style="fill:#ffda80;fill-rule:nonzero"/></g><rect x="1236.59" y="124.258" width=".57" height="31.21" style="fill:#f29f32"/><rect x="1245.3" y="124.298" width=".57" height="31.17" style="fill:#f29f32"/><rect x="1225.06" y="145.358" width="2.9" height="1.78" style="fill:#94493b;fill-rule:nonzero"/><rect x="1215.83" y="145.248" width="37.1" height=".57" style="fill:#f29f32"/><rect x="1215.83" y="134.168" width="37.1" height=".57" style="fill:#f29f32"/><rect x="1225.06" y="134.698" width="2.9" height="1.17" style="fill:#94493b"/><rect x="1239.95" y="134.758" width="2.48" height="1.14" style="fill:#94493b;fill-rule:nonzero"/><path d="M1250.69 134.778v1.14h-2.48v-1.15l2.48.01z" style="fill:#94493b;fill-rule:nonzero"/><rect x="1239.95" y="145.858" width="2.48" height="1.14" style="fill:#94493b;fill-rule:nonzero"/><path d="M1250.69 145.878v1.14h-2.48v-1.15l2.48.01z" style="fill:#94493b;fill-rule:nonzero"/><rect x="1225.06" y="124.278" width="2.9" height="1.17" style="fill:#94493b"/><rect x="1239.95" y="124.278" width="2.48" height="1.14" style="fill:#94493b;fill-rule:nonzero"/><path d="M1250.69 124.328v1.15h-2.48v-1.16l2.48.01z" style="fill:#94493b;fill-rule:nonzero"/></g><g><path d="M1220.79 152.508v1.8h-3.55v-1.78l3.55-.02zm-.06-10.21v1.8h-3.56v-1.79l3.56-.01zm-.16-10.98v1.8h-3.56v-1.79l3.56-.01z" style="fill:#f6f7fb;fill-rule:nonzero"/></g></g><rect x="1215.85" y="123.738" width="37.07" height=".57" style="fill:#f29f32"/></g><g><g><g><path d="M1282.91 124.258l.08 31.21h-21.11v-31.2l21.03-.01z" style="fill:#e3a554;fill-rule:nonzero"/><path d="M1298.95 124.338l-16-.08.08 31.21h15.94l-.02-31.13z" style="fill:#f6c049;fill-rule:nonzero"/><g><g><g><rect x="1259.84" y="155.468" width="1.69" height="1.14" style="fill:#ffda80"/><rect x="1261.48" y="155.468" width="22.21" height="1.17" style="fill:#e1994a"/><path d="M1266.05 156.608h-2.79l-.89-1.14h.89l2.79 1.14zm5.26 0h-2.79l-.89-1.14h.91l2.77 1.14zm5.5 0h-2.79l-.9-1.14h.83l2.86 1.14zm5.36 0h-2.78l-.9-1.14h.82l2.86 1.14z" style="fill:#b77a52;fill-rule:nonzero"/></g><rect x="1268.59" y="155.468" width="3.68" height="1.14" style="fill:#ffda80"/><rect x="1263.22" y="155.468" width="3.68" height="1.14" style="fill:#ffda80"/><rect x="1273.97" y="155.468" width="3.68" height="1.14" style="fill:#ffda80"/><rect x="1281.74" y="155.468" width="18.53" height="1.19" style="fill:#e1994a"/></g><g><rect x="1288.02" y="157.498" width="2.49" height="2.58" style="fill:#72514c"/><rect x="1295.49" y="157.498" width="2.49" height="2.58" style="fill:#72514c"/><rect x="1261.27" y="157.468" width="2.43" height="2.92" style="fill:#b77a52"/><path d="M1263.7 160.388l-2-2.58h2.4l-.39 1.81.38.53-.39.24z" style="fill:#72514c;fill-rule:nonzero"/><rect x="1269.64" y="157.808" width="2.42" height="2.58" style="fill:#b77a52"/><path d="M1274.57 160.388h-2.85v-2.58h2.42l.43 2.58z" style="fill:#b77a52;fill-rule:nonzero"/><rect x="1281.03" y="157.808" width="2.43" height="2.58" style="fill:#b77a52"/><path d="M1261.29 160.388h-1.44v-3.16l1.44.58v2.58zm10.88 0h-3.44v-3.1l3.44.52v2.58zm10.85 0h-3.43v-3.13l3.43.55v2.58z" style="fill:#efbb66;fill-rule:nonzero"/><path d="M1285.4 160.388h-2.43v-2.58l2.43-.49v3.07zm14.85 0h-2.43v-2.58l2.43-.58v3.16zm-7.43 0h-2.42v-2.58l2.42-.71v3.29z" style="fill:#c38d48;fill-rule:nonzero"/><rect x="1259.85" y="156.588" width="23.17" height="1.21" style="fill:#efbb66"/><rect x="1282.97" y="156.588" width="17.28" height="1.21" style="fill:#c38d48"/><rect x="1282.97" y="159.608" width="17.28" height=".78" style="fill:#c38d48"/><path d="M1274.57 160.388l-2.42-2.6 2.42.02v1.83l.46.6-.46.15z" style="fill:#72514c;fill-rule:nonzero"/></g><path d="M1282.97 156.478l-3.68.11v-1.12h3.68v1.01z" style="fill:#ffda80;fill-rule:nonzero"/></g><rect x="1282.63" y="124.258" width=".57" height="31.21" style="fill:#f29f32"/><rect x="1291.34" y="124.298" width=".57" height="31.17" style="fill:#f29f32"/><rect x="1271.09" y="145.358" width="2.9" height="1.78" style="fill:#94493b;fill-rule:nonzero"/><rect x="1261.86" y="145.248" width="37.1" height=".57" style="fill:#f29f32"/><rect x="1261.86" y="134.168" width="37.1" height=".57" style="fill:#f29f32"/><rect x="1271.09" y="134.698" width="2.9" height="1.17" style="fill:#94493b"/><rect x="1285.98" y="134.758" width="2.48" height="1.14" style="fill:#94493b;fill-rule:nonzero"/><path d="M1296.72 134.778v1.14h-2.48v-1.15l2.48.01z" style="fill:#94493b;fill-rule:nonzero"/><rect x="1285.98" y="145.858" width="2.48" height="1.14" style="fill:#94493b;fill-rule:nonzero"/><path d="M1296.72 145.878v1.14h-2.48v-1.15l2.48.01z" style="fill:#94493b;fill-rule:nonzero"/><rect x="1271.09" y="124.278" width="2.9" height="1.17" style="fill:#94493b"/><rect x="1285.98" y="124.278" width="2.48" height="1.14" style="fill:#94493b;fill-rule:nonzero"/><path d="M1296.72 124.328v1.15h-2.48v-1.16l2.48.01z" style="fill:#94493b;fill-rule:nonzero"/></g><g><path d="M1266.82 152.508v1.8h-3.55v-1.78l3.55-.02zm-.06-10.21v1.8h-3.56v-1.79l3.56-.01zm-.16-10.98v1.8h-3.56v-1.79l3.56-.01z" style="fill:#f6f7fb;fill-rule:nonzero"/></g></g><rect x="1261.88" y="123.738" width="37.07" height=".57" style="fill:#f29f32"/></g><g><path d="M1213.38 157.408a10.57 10.57 0 0 0-10.04 10.509c0 5.771 4.749 10.52 10.52 10.52s10.52-4.748 10.52-10.519c-.128-5.806-4.939-10.513-10.747-10.513l-.253.003z" style="fill:#151e26;fill-rule:nonzero"/><circle cx="1212.49" cy="168.188" r="8.4" style="fill:#edeced"/><path d="M1212.49 178.268c-5.53 0-10.08-4.55-10.08-10.08s4.55-10.08 10.08-10.08 10.08 4.55 10.08 10.08-4.552 10.075-10.08 10.08zm0-16.49c-3.516 0-6.41 2.894-6.41 6.41s2.894 6.41 6.41 6.41 6.41-2.893 6.41-6.41c-.005-3.514-2.896-6.404-6.41-6.41z" style="fill:#1f2833;fill-rule:nonzero"/><circle cx="1212.49" cy="168.188" r="1.43" style="fill:#fff"/></g><g><path d="M1366.85 162.988l-8.76 4.26v-4.26c.002-.724.424-1.384 1.08-1.69l6.64-3.11a.75.75 0 0 1 .32-.072c.412 0 .75.339.75.75v.002l-.03 4.12z" style="fill:#2e3b4c;fill-rule:nonzero"/><path d="M1358.09 163.248v-.23l8.78-4.06v.22l-8.78 4.07zm0 1.43v-.22l8.77-4.07v.23l-8.77 4.06zm0 1.44v-.23l8.76-4.05v.22l-8.76 4.06z" style="fill:#334151;fill-rule:nonzero"/></g><path d="M1354.86 163.698l-2.21.84h-3c-.21.006-.38.18-.38.39v2.49h3.42l2.72-1.12v-2.23c.001-.01.001-.02.001-.031 0-.208-.171-.38-.38-.38-.059 0-.118.014-.171.041zm15.8-7.24l-1.35.72a.61.61 0 0 0-.38.56v2.4l1.73-1v-2.68z" style="fill:#fff;fill-rule:nonzero"/></g><g><path d="M958.584 242.358l13.79-6c1.309-.571 2.722-.867 4.15-.87l116-.2c1.16 0 1 1 1 1l-18.61 7.1-118.37 2.4a.1.1 0 0 1-.1-.1v-.01c.004-1.427.842-2.727 2.14-3.32z" style="fill:#d5d4d6;fill-rule:nonzero"/><g><path d="M1117.19 281.708a8.38 8.38 0 0 0-8 8.333c0 4.575 3.765 8.34 8.34 8.34s8.336-3.76 8.34-8.333c-.098-4.666-4.013-8.429-8.68-8.34z" style="fill:#151e26;fill-rule:nonzero"/><circle cx="1116.48" cy="290.258" r="6.66" style="fill:#edeced"/><path d="M1116.48 298.248c-4.389 0-8-3.611-8-8s3.611-8 8-8 8 3.611 8 8-3.611 8-8 8zm0-13.07c-2.792 0-5.09 2.298-5.09 5.09s2.298 5.09 5.09 5.09 5.09-2.298 5.09-5.09v-.01c-.005-2.788-2.301-5.08-5.09-5.08z" style="fill:#1f2833;fill-rule:nonzero"/><circle cx="1116.48" cy="290.258" r="1.13" style="fill:#fff"/></g><g><path d="M994.384 281.498a8.38 8.38 0 0 0-7.99 8.333c0 4.575 3.765 8.34 8.34 8.34s8.34-3.765 8.34-8.34v-.003c-.103-4.667-4.023-8.424-8.69-8.33z" style="fill:#151e26;fill-rule:nonzero"/><circle cx="993.634" cy="290.048" r="6.66" style="fill:#edeced"/><path d="M993.634 297.988c-4.389 0-8-3.611-8-8s3.611-8 8-8 8 3.611 8 8-3.611 8-8 8zm0-13.07h-.01c-2.792 0-5.09 2.298-5.09 5.09s2.298 5.09 5.09 5.09 5.09-2.298 5.09-5.09c-.038-2.762-2.318-5.015-5.08-5.02v-.07z" style="fill:#1f2833;fill-rule:nonzero"/><circle cx="993.634" cy="290.048" r="1.13" style="fill:#fff"/></g><path d="M1119.69 273.368l18.77-7.6c0-1.16-.09-1.55-1-3.23l-14.88-20.89-18.82 9.1 15.93 22.62z" style="fill:#e0eef6;fill-rule:nonzero"/><path d="M1117.68 242.688l-1.17 26.96 5.15 5.15 1.36-32.49-.48-.68-4.86 1.06z" style="fill:#bbdaf0;fill-rule:nonzero"/><path d="M958.384 243.318h116.52v52.08h-117.11a1.44 1.44 0 0 1-1.41-1.41v-48.68a2.01 2.01 0 0 1 2-1.99z" style="fill:#dbdadd;fill-rule:nonzero"/><path d="M956.384 290.048l19.64-10.74h98.86v16.1h-116.7c-.61 0-1.9-4.99-1.8-5.36z" style="fill:#b7b7b7;fill-rule:nonzero"/><path d="M976.014 279.308l-.15-36h-16.91l-.155-.005c-1.334 0-2.43 1.097-2.43 2.43l.005.165v44.14l19.64-10.73z" style="fill:#cac9cc;fill-rule:nonzero"/><path d="M1093.5 236.218v43.09l-18.63 16.1v-52.09l18-8c.13-.04.64.13.63.9z" style="fill:#a5a5a5;fill-rule:nonzero"/><path d="M1077.77 250.778l19-8.6a6.49 6.49 0 0 1 2.6-.55h23.21l-18.67 9.18-26.15.73.01-.76z" style="fill:#ffb732;fill-rule:nonzero"/><g><path d="M1098.85 284.308a10.66 10.66 0 0 0-10.16 10.601c0 5.82 4.79 10.61 10.61 10.61s10.61-4.79 10.61-10.61c-.136-5.938-5.122-10.717-11.06-10.601z" style="fill:#151e26;fill-rule:nonzero"/><circle cx="1097.96" cy="295.188" r="8.47" style="fill:#edeced"/><path d="M1097.96 305.358h-.01c-5.579 0-10.17-4.591-10.17-10.17s4.591-10.17 10.17-10.17 10.17 4.591 10.17 10.17c-.005 5.573-4.587 10.159-10.16 10.17zm0-16.64c-3.549 0-6.47 2.921-6.47 6.47s2.921 6.47 6.47 6.47 6.47-2.921 6.47-6.47-2.921-6.47-6.47-6.47z" style="fill:#1f2833;fill-rule:nonzero"/><circle cx="1097.96" cy="295.188" r="1.44" style="fill:#fff"/></g><path d="M1125.37 245.608l-.74 29.53 1.23 1.47.77-29.21-1.26-1.79z" style="fill:#bbdaf0;fill-rule:nonzero"/><path d="M1119.52 294.298c0 .57-.07 1.29.44 1.05l17-8.29a2.74 2.74 0 0 0 1.51-2.44v-19.23a3.85 3.85 0 0 0-.26-1.29l-18.09 9.06a.77.77 0 0 0-.42.69l-.18 20.45z" style="fill:#ffb732;fill-rule:nonzero"/><path d="M1103.72 250.728h-25.71c-.329 0-.6.271-.6.6v41.82a2.27 2.27 0 0 0 2.26 2.26h7.6a.59.59 0 0 0 .58-.57c0-6.034 4.966-11 11-11s11 4.966 11 11c.016.311.27.56.58.57h9.27c.325-.005.59-.274.59-.6v-20.18c0-1.013-.322-2.001-.92-2.82l-15.17-20.82a.58.58 0 0 0-.48-.26z" style="fill:#f9c470;fill-rule:nonzero"/><path d="M1082.51 255.748l-.002 17.201c0 .505.407.924.912.939h31.11c.252-.008.456-.217.456-.47a.47.47 0 0 0-.086-.27l-12.45-18a1.42 1.42 0 0 0-1.14-.6h-17.63c-.649.011-1.175.551-1.17 1.2z" style="fill:#e0eef6;fill-rule:nonzero"/><path d="M1088.2 278.588a.57.57 0 0 0-.57-.57h-4.55a.57.57 0 0 0-.57.57v.43a.57.57 0 0 0 .57.57h4.55a.57.57 0 0 0 .57-.57v-.43z" style="fill:#edeced"/><path d="M1134.68 288.168l-8.84 4.3v-4.3c.003-.726.424-1.389 1.08-1.7l6.71-3.15c.1-.047.21-.072.32-.072.412 0 .75.339.75.75v.012l-.02 4.16zm-178.296 1.88h118.51v5.36h-117.1a1.41 1.41 0 0 1-1.4-1.4v-4l-.01.04z" style="fill:#334151;fill-rule:nonzero"/><path d="M1074.87 290.048l2.54-1.96v5.06l-2.54 2.26v-5.36z" style="fill:#2e3b4c;fill-rule:nonzero"/><path d="M1074.87 281.028H972.86l.65-.35h101.36v.35zm0 2.4h-106.4l.62-.34h105.78v.34zm0 2.4H964.11l.62-.34h110.14v.34zm0 2.41h-115.2l.63-.35h114.57v.35z" style="fill:#a5a5a5;fill-rule:nonzero"/><g><g><g><path d="M990.134 254.988l.07 25.23h-17.06v-25.23h16.99z" style="fill:#e3a554;fill-rule:nonzero"/><path d="M1003.1 255.038l-13-.06.06 25.23h12.89l.05-25.17z" style="fill:#f6c049;fill-rule:nonzero"/><g><g><g><rect x="971.494" y="280.208" width="1.37" height=".92" style="fill:#ffda80"/><rect x="972.814" y="280.208" width="17.95" height=".95" style="fill:#e1994a"/><path d="M976.514 281.128h-2.26l-.72-.92h.72l2.26.92zm4.25 0h-2.25l-.73-.92h.74l2.24.92zm4.44 0h-2.25l-.73-.92h.67l2.31.92zm4.34 0h-2.25l-.73-.92h.67l2.31.92z" style="fill:#b77a52;fill-rule:nonzero"/></g><rect x="978.564" y="280.208" width="2.98" height=".92" style="fill:#ffda80"/><rect x="974.224" y="280.208" width="2.98" height=".92" style="fill:#ffda80"/><rect x="982.914" y="280.208" width="2.98" height=".92" style="fill:#ffda80"/><rect x="989.194" y="280.208" width="14.97" height=".96" style="fill:#e1994a"/></g><g><rect x="994.264" y="281.848" width="2.01" height="2.09" style="fill:#72514c"/><rect x="1000.3" y="281.848" width="2.01" height="2.09" style="fill:#72514c"/><rect x="972.644" y="281.828" width="1.96" height="2.36" style="fill:#b77a52"/><path d="M974.604 284.178l-1.61-2.08h1.94l-.31 1.46.3.44-.32.18z" style="fill:#72514c;fill-rule:nonzero"/><rect x="979.414" y="282.098" width="1.96" height="2.09" style="fill:#b77a52"/><path d="M983.394 284.178h-2.3v-2.08h1.96l.34 2.08z" style="fill:#b77a52;fill-rule:nonzero"/><rect x="988.624" y="282.098" width="1.96" height="2.09" style="fill:#b77a52"/><path d="M972.664 284.178h-1.17v-2.55l1.17.47v2.08zm8.79 0h-2.78v-2.5l2.78.42v2.08zm8.78 0h-2.78v-2.52l2.78.44v2.08z" style="fill:#efbb66;fill-rule:nonzero"/><path d="M992.144 284.178h-1.96v-2.08l1.96-.39v2.47zm12.006 0h-1.96v-2.08l1.96-.47v2.55zm-5.996 0h-1.96v-2.08l1.96-.57v2.65z" style="fill:#c38d48;fill-rule:nonzero"/><rect x="971.494" y="281.118" width="18.73" height=".98" style="fill:#efbb66"/><rect x="990.184" y="281.118" width="13.97" height=".98" style="fill:#c38d48"/><rect x="990.184" y="283.558" width="13.97" height=".63" style="fill:#c38d48"/><path d="M983.394 284.178l-1.95-2.1 1.95.02v1.48l.38.48-.38.12z" style="fill:#72514c;fill-rule:nonzero"/></g><path d="M990.194 281.018l-2.98.1v-.91h2.98v.81z" style="fill:#ffda80;fill-rule:nonzero"/></g><rect x="989.914" y="254.978" width=".46" height="25.23" style="fill:#f29f32"/><rect x="996.954" y="255.018" width=".46" height="25.19" style="fill:#f29f32"/><rect x="980.584" y="272.038" width="2.35" height="1.44" style="fill:#94493b;fill-rule:nonzero"/><rect x="973.124" y="271.948" width="29.99" height=".46" style="fill:#f29f32"/><rect x="973.124" y="262.998" width="29.99" height=".46" style="fill:#f29f32"/><rect x="980.584" y="263.418" width="2.35" height=".94" style="fill:#94493b"/><rect x="992.624" y="263.468" width="2" height=".92" style="fill:#94493b;fill-rule:nonzero"/><rect x="999.304" y="263.478" width="2" height=".93" style="fill:#94493b;fill-rule:nonzero"/><rect x="992.624" y="272.438" width="2" height=".93" style="fill:#94493b;fill-rule:nonzero"/><path d="M1001.3 272.458v.92h-2v-.93l2 .01z" style="fill:#94493b;fill-rule:nonzero"/><rect x="980.584" y="254.998" width="2.35" height=".94" style="fill:#94493b"/><rect x="992.624" y="254.988" width="2" height=".92" style="fill:#94493b;fill-rule:nonzero"/><rect x="999.304" y="255.038" width="2" height=".93" style="fill:#94493b;fill-rule:nonzero"/></g><g><path d="M977.134 277.818v1.46h-2.87v-1.45l2.87-.01zm-.05-8.26v1.46h-2.87v-1.44l2.87-.02zm-.13-8.87v1.45h-2.88v-1.44l2.88-.01z" style="fill:#f6f7fb;fill-rule:nonzero"/></g></g><rect x="973.144" y="254.558" width="29.96" height=".46" style="fill:#f29f32"/></g><g><g><g><path d="M1023.85 255.158l.07 25.22h-17.06v-25.22h16.99z" style="fill:#e3a554;fill-rule:nonzero"/><path d="M1036.82 255.218l-13-.07.06 25.23h12.88l.06-25.16z" style="fill:#f6c049;fill-rule:nonzero"/><g><g><g><rect x="1005.21" y="280.378" width="1.37" height=".92" style="fill:#ffda80"/><rect x="1006.53" y="280.378" width="17.95" height=".95" style="fill:#e1994a"/><path d="M1010.23 281.298h-2.26l-.72-.92h.72l2.26.92zm4.25 0h-2.25l-.73-.92h.74l2.24.92zm4.44 0h-2.25l-.73-.92h.67l2.31.92zm4.34 0H1021l-.72-.92h.67l2.31.92z" style="fill:#b77a52;fill-rule:nonzero"/></g><rect x="1012.28" y="280.378" width="2.98" height=".92" style="fill:#ffda80"/><rect x="1007.94" y="280.378" width="2.98" height=".92" style="fill:#ffda80"/><rect x="1016.62" y="280.378" width="2.98" height=".92" style="fill:#ffda80"/><rect x="1022.91" y="280.378" width="14.97" height=".96" style="fill:#e1994a"/></g><g><rect x="1027.98" y="282.018" width="2.01" height="2.09" style="fill:#72514c"/><rect x="1034.02" y="282.018" width="2.01" height="2.09" style="fill:#72514c"/><rect x="1006.36" y="281.998" width="1.96" height="2.36" style="fill:#b77a52"/><path d="M1008.32 284.358l-1.61-2.09h1.94l-.32 1.47.31.43-.32.19z" style="fill:#72514c;fill-rule:nonzero"/><rect x="1013.13" y="282.268" width="1.96" height="2.09" style="fill:#b77a52"/><path d="M1017.11 284.358h-2.31v-2.09h1.96l.35 2.09z" style="fill:#b77a52;fill-rule:nonzero"/><rect x="1022.34" y="282.268" width="1.96" height="2.09" style="fill:#b77a52"/><path d="M1006.38 284.358h-1.17v-2.56l1.17.47v2.09zm8.79 0h-2.78v-2.5l2.78.41v2.09zm8.77 0h-2.77v-2.53l2.77.44v2.09z" style="fill:#efbb66;fill-rule:nonzero"/><path d="M1025.86 284.358h-1.96v-2.09l1.96-.39v2.48zm12.01 0h-1.96v-2.09l1.96-.47v2.56zm-6 0h-1.96v-2.09l1.96-.57v2.66z" style="fill:#c38d48;fill-rule:nonzero"/><rect x="1005.21" y="281.288" width="18.73" height=".98" style="fill:#efbb66"/><rect x="1023.9" y="281.288" width="13.97" height=".98" style="fill:#c38d48"/><rect x="1023.9" y="283.728" width="13.97" height=".63" style="fill:#c38d48"/><path d="M1017.11 284.358l-1.95-2.1 1.95.01v1.48l.38.49-.38.12z" style="fill:#72514c;fill-rule:nonzero"/></g><path d="M1023.9 281.198l-2.97.09v-.91h2.97v.82z" style="fill:#ffda80;fill-rule:nonzero"/></g><rect x="1023.63" y="255.148" width=".46" height="25.23" style="fill:#f29f32"/><rect x="1030.66" y="255.188" width=".46" height="25.19" style="fill:#f29f32"/><rect x="1014.3" y="272.208" width="2.34" height="1.45" style="fill:#94493b;fill-rule:nonzero"/><rect x="1006.84" y="272.128" width="29.99" height=".46" style="fill:#f29f32"/><rect x="1006.84" y="263.168" width="29.99" height=".46" style="fill:#f29f32"/><rect x="1014.3" y="263.598" width="2.35" height=".94" style="fill:#94493b"/><rect x="1026.38" y="263.638" width="2" height=".93" style="fill:#94493b;fill-rule:nonzero"/><path d="M1035.02 263.658v.92h-2v-.93l2 .01z" style="fill:#94493b;fill-rule:nonzero"/><rect x="1026.38" y="272.608" width="2" height=".93" style="fill:#94493b;fill-rule:nonzero"/><path d="M1035.02 272.628v.93h-2v-.94l2 .01z" style="fill:#94493b;fill-rule:nonzero"/><rect x="1014.3" y="255.168" width="2.35" height=".94" style="fill:#94493b"/><rect x="1026.38" y="255.168" width="2" height=".93" style="fill:#94493b;fill-rule:nonzero"/><path d="M1035.02 255.218v.92h-2v-.93l2 .01z" style="fill:#94493b;fill-rule:nonzero"/></g><g><path d="M1010.85 277.988v1.46h-2.87v-1.45l2.87-.01zm-.05-8.25v1.45h-2.87v-1.44l2.87-.01zm-.13-8.88v1.46h-2.88v-1.45l2.88-.01z" style="fill:#f6f7fb;fill-rule:nonzero"/></g></g><rect x="1006.85" y="254.738" width="29.96" height=".46" style="fill:#f29f32"/></g><g><g><g><path d="M1057.82 255.278l.07 25.23h-17.07v-25.22l17-.01z" style="fill:#e3a554;fill-rule:nonzero"/><path d="M1070.78 255.338l-13-.06.07 25.23h12.88l.05-25.17z" style="fill:#f6c049;fill-rule:nonzero"/><g><g><g><rect x="1039.18" y="280.508" width="1.37" height=".92" style="fill:#ffda80"/><rect x="1040.5" y="280.508" width="17.95" height=".95" style="fill:#e1994a"/><path d="M1044.19 281.428h-2.25l-.72-.92h.72l2.25.92zm4.26 0h-2.26l-.72-.92h.74l2.24.92zm4.44 0h-2.26l-.72-.92h.66l2.32.92zm4.33 0h-2.25l-.72-.92h.66l2.31.92z" style="fill:#b77a52;fill-rule:nonzero"/></g><rect x="1046.25" y="280.508" width="2.98" height=".92" style="fill:#ffda80"/><rect x="1041.91" y="280.508" width="2.98" height=".92" style="fill:#ffda80"/><rect x="1050.59" y="280.508" width="2.98" height=".92" style="fill:#ffda80"/><rect x="1056.87" y="280.508" width="14.97" height=".96" style="fill:#e1994a"/></g><g><rect x="1061.95" y="282.148" width="2.01" height="2.09" style="fill:#72514c"/><rect x="1067.99" y="282.148" width="2.01" height="2.09" style="fill:#72514c"/><rect x="1040.33" y="282.128" width="1.96" height="2.36" style="fill:#b77a52"/><path d="M1042.29 284.488l-1.62-2.09h1.94l-.31 1.46.31.44-.32.19z" style="fill:#72514c;fill-rule:nonzero"/><rect x="1047.1" y="282.398" width="1.96" height="2.09" style="fill:#b77a52"/><path d="M1051.08 284.488h-2.31v-2.09h1.96l.35 2.09z" style="fill:#b77a52;fill-rule:nonzero"/><rect x="1056.3" y="282.398" width="1.96" height="2.09" style="fill:#b77a52"/><path d="M1040.34 284.488h-1.16v-2.56l1.16.47v2.09zm8.8 0h-2.78v-2.51l2.78.42v2.09zm8.77 0h-2.78v-2.53l2.78.44v2.09z" style="fill:#efbb66;fill-rule:nonzero"/><path d="M1059.83 284.488h-1.96v-2.09l1.96-.39v2.48zm12 0h-1.96v-2.09l1.96-.47v2.56zm-6 0h-1.96v-2.09l1.96-.57v2.66z" style="fill:#c38d48;fill-rule:nonzero"/><rect x="1039.18" y="281.418" width="18.73" height=".98" style="fill:#efbb66"/><rect x="1057.87" y="281.418" width="13.97" height=".98" style="fill:#c38d48"/><rect x="1057.87" y="283.858" width="13.97" height=".63" style="fill:#c38d48"/><path d="M1051.08 284.488l-1.96-2.11 1.96.02v1.48l.38.48-.38.13z" style="fill:#72514c;fill-rule:nonzero"/></g><path d="M1057.87 281.318l-2.98.1v-.91h2.98v.81z" style="fill:#ffda80;fill-rule:nonzero"/></g><rect x="1057.59" y="255.278" width=".46" height="25.23" style="fill:#f29f32"/><rect x="1064.63" y="255.318" width=".46" height="25.19" style="fill:#f29f32"/><rect x="1048.26" y="272.338" width="2.35" height="1.44" style="fill:#94493b;fill-rule:nonzero"/><rect x="1040.81" y="272.248" width="29.99" height=".46" style="fill:#f29f32"/><rect x="1040.81" y="263.288" width="29.99" height=".46" style="fill:#f29f32"/><rect x="1048.26" y="263.718" width="2.35" height=".94" style="fill:#94493b"/><rect x="1060.31" y="263.768" width="2" height=".92" style="fill:#94493b;fill-rule:nonzero"/><rect x="1066.98" y="263.778" width="2" height=".93" style="fill:#94493b;fill-rule:nonzero"/><rect x="1060.31" y="272.738" width="2" height=".92" style="fill:#94493b;fill-rule:nonzero"/><rect x="1066.98" y="272.748" width="2" height=".93" style="fill:#94493b;fill-rule:nonzero"/><rect x="1048.26" y="255.298" width="2.35" height=".94" style="fill:#94493b"/><rect x="1060.31" y="255.288" width="2" height=".93" style="fill:#94493b;fill-rule:nonzero"/><path d="M1068.98 255.338v.93h-2v-.94l2 .01z" style="fill:#94493b;fill-rule:nonzero"/></g><g><path d="M1044.82 278.118v1.45h-2.88v-1.44l2.88-.01zm-.05-8.26v1.46h-2.88v-1.45l2.88-.01zm-.13-8.87v1.45h-2.88v-1.44l2.88-.01z" style="fill:#f6f7fb;fill-rule:nonzero"/></g></g><rect x="1040.82" y="254.858" width="29.96" height=".46" style="fill:#f29f32"/></g><g><path d="M979.764 284.308a10.66 10.66 0 0 0-10.16 10.601c0 5.82 4.79 10.61 10.61 10.61s10.61-4.79 10.61-10.61c-.136-5.938-5.122-10.717-11.06-10.601z" style="fill:#151e26;fill-rule:nonzero"/><circle cx="978.874" cy="295.188" r="8.47" style="fill:#edeced"/><path d="M978.874 305.358c-5.579 0-10.17-4.591-10.17-10.17s4.591-10.17 10.17-10.17 10.17 4.591 10.17 10.17-4.593 10.165-10.17 10.17zm0-16.64c-3.549 0-6.47 2.921-6.47 6.47s2.921 6.47 6.47 6.47 6.47-2.921 6.47-6.47-2.921-6.47-6.47-6.47z" style="fill:#1f2833;fill-rule:nonzero"/><circle cx="978.874" cy="295.188" r="1.44" style="fill:#fff"/></g><path d="M1125.84 288.458v-.23l8.86-4.1v.23l-8.86 4.1zm0 1.45v-.23l8.85-4.1v.23l-8.85 4.1zm0 1.45v-.23l8.84-4.09v.22l-8.84 4.1z" style="fill:#2e3b4c;fill-rule:nonzero"/><path d="M1122.52 289.058l-2.23.84h-3.06c-.214 0-.39.176-.39.39v2.52h3.45l2.74-1.13v-2.263c0-.208-.171-.38-.38-.38-.044 0-.088.008-.13.023zm15.94-7.17l-1.36.72a.62.62 0 0 0-.38.57v2.42l1.74-1v-2.71z" style="fill:#fff;fill-rule:nonzero"/></g><g><path d="M7.044 231.918l6.46-2.82a4.8 4.8 0 0 1 1.94-.41l54.34-.1c.55 0 .47.45.47.45l-8.72 3.33-55.48 1.12v-.05a1.69 1.69 0 0 1 .99-1.52z" style="fill:#d5d4d6;fill-rule:nonzero"/><g><path d="M81.384 250.358a3.92 3.92 0 0 0-3.73 3.896 3.92 3.92 0 0 0 3.9 3.9 3.92 3.92 0 0 0 3.9-3.896 4.02 4.02 0 0 0-4.07-3.9z" style="fill:#151e26;fill-rule:nonzero"/><circle cx="81.014" cy="254.358" r="3.12" style="fill:#edeced"/><path d="M81.014 258.098a3.76 3.76 0 0 1-3.74-3.74 3.76 3.76 0 0 1 3.74-3.74 3.76 3.76 0 0 1 3.74 3.74 3.77 3.77 0 0 1-3.74 3.74zm0-6.12c-1.305 0-2.38 1.075-2.38 2.38s1.075 2.38 2.38 2.38a2.39 2.39 0 0 0 2.38-2.38c-.011-1.3-1.08-2.364-2.38-2.37v-.01z" style="fill:#1f2833;fill-rule:nonzero"/><circle cx="81.014" cy="254.358" r=".53" style="fill:#fff"/></g><g><path d="M23.794 250.248a3.93 3.93 0 0 0-3.75 3.907 3.93 3.93 0 0 0 3.91 3.91 3.93 3.93 0 0 0 3.91-3.907 4.02 4.02 0 0 0-4.07-3.91z" style="fill:#151e26;fill-rule:nonzero"/><circle cx="23.464" cy="254.258" r="3.12" style="fill:#edeced"/><path d="M23.464 257.988a3.76 3.76 0 0 1-3.74-3.74 3.76 3.76 0 0 1 3.74-3.74 3.76 3.76 0 0 1 3.74 3.74 3.76 3.76 0 0 1-3.74 3.74zm0-6.12c-1.305 0-2.38 1.075-2.38 2.38s1.075 2.38 2.38 2.38a2.39 2.39 0 0 0 2.38-2.38 2.39 2.39 0 0 0-2.38-2.37v-.01z" style="fill:#1f2833;fill-rule:nonzero"/><circle cx="23.464" cy="254.258" r=".53" style="fill:#fff"/></g><path d="M82.514 246.448l8.79-3.56a2.45 2.45 0 0 0-.48-1.52l-7-9.78-8.82 4.26 7.51 10.6z" style="fill:#e0eef6;fill-rule:nonzero"/><path d="M81.574 232.068l-.54 12.63 2.41 2.42.63-15.22-.22-.32-2.28.49z" style="fill:#bbdaf0;fill-rule:nonzero"/><path d="M7.994 232.368h53.53v24.4H7.384a1.44 1.44 0 0 1-1.43-1.43v-21a2.01 2.01 0 0 1 2-1.97h.04z" style="fill:#dbdadd;fill-rule:nonzero"/><path d="M6.004 254.258l9.2-5h46.32v7.54H6.854c-.28-.03-.89-2.37-.85-2.54z" style="fill:#b7b7b7;fill-rule:nonzero"/><path d="M15.204 249.228l-.07-16.86h-7.92l-.072-.002c-.626 0-1.14.514-1.14 1.14l.002.072v20.68l9.2-5.03z" style="fill:#cac9cc;fill-rule:nonzero"/><path d="M70.254 229.038v20.19l-8.73 7.54v-24.4l8.41-3.75c.08-.02.32.06.32.42z" style="fill:#a5a5a5;fill-rule:nonzero"/><path d="M62.874 235.868l8.89-4a3 3 0 0 1 1.22-.26h10.87l-8.75 4.3-12.25.34.02-.38z" style="fill:#2e3b4c;fill-rule:nonzero"/><g><path d="M72.754 251.568c-2.673.096-4.82 2.322-4.82 4.997 0 2.743 2.257 5 5 5s4.998-2.255 5-4.997c-.043-2.756-2.322-5.001-5.079-5.001l-.101.001z" style="fill:#151e26;fill-rule:nonzero"/><circle cx="72.334" cy="256.668" r="3.97" style="fill:#edeced"/><path d="M72.384 261.428c-2.611 0-4.76-2.149-4.76-4.76s2.149-4.76 4.76-4.76 4.76 2.149 4.76 4.76-2.149 4.76-4.76 4.76zm0-7.79c-1.646 0-3 1.354-3 3s1.354 3 3 3 3-1.354 3-3-1.354-3-3-3z" style="fill:#1f2833;fill-rule:nonzero"/><circle cx="72.334" cy="256.668" r=".68" style="fill:#fff"/></g><path d="M85.174 233.438l-.35 13.84.58.69.36-13.69-.59-.84z" style="fill:#bbdaf0;fill-rule:nonzero"/><path d="M82.434 256.248c0 .27 0 .61.21.49l8-3.88a1.28 1.28 0 0 0 .7-1.14v-9c0-.206-.041-.41-.12-.6l-8.47 4.24c-.121.06-.199.185-.2.32l-.12 9.57z" style="fill:#2e3b4c;fill-rule:nonzero"/><path d="M75.034 235.838h-12c-.153 0-.28.127-.28.28v19.59c-.006.562.439 1.033 1 1.06h3.56a.28.28 0 0 0 .28-.27c.169-2.704 2.44-4.839 5.15-4.839s4.982 2.135 5.15 4.839a.28.28 0 0 0 .28.27h4.34c.148 0 .27-.122.27-.27v-9.46c.002-.474-.149-.937-.43-1.32l-7.1-9.76a.31.31 0 0 0-.22-.12z" style="fill:#3c4a59;fill-rule:nonzero"/><path d="M65.104 238.188v8c-.006.238.183.439.42.45h14.58c.118-.004.213-.102.213-.22 0-.047-.015-.092-.043-.13l-5.83-8.41a.66.66 0 0 0-.54-.28h-8.26c-.298.005-.541.252-.541.55l.001.04z" style="fill:#e0eef6;fill-rule:nonzero"/><path d="M67.764 248.998a.37.37 0 0 0-.37-.37h-1.92a.37.37 0 1 0 0 .74h1.92a.37.37 0 0 0 .37-.37z" style="fill:#a5a5a5"/><path d="M89.534 253.378l-4.13 2v-2c-.002-.34.193-.653.5-.8l3.14-1.47a.37.37 0 0 1 .15-.033c.195 0 .356.158.36.353l-.02 1.95z" style="fill:#b7b7b7;fill-rule:nonzero"/><path d="M6.004 254.258h55.52v2.51H7.384a1.41 1.41 0 0 1-1.4-1.4v-1.11h.02z" style="fill:#334151;fill-rule:nonzero"/><path d="M61.524 254.258l1.19-.92v2.37l-1.19 1.06v-2.51z" style="fill:#2e3b4c;fill-rule:nonzero"/><path d="M61.524 250.038h-47.79l.3-.17h47.49v.17zm0 1.12h-49.85l.29-.16h49.56v.16zm0 1.13H9.634l.29-.16h51.6v.16zm0 1.12H7.554l.29-.16h53.68v.16zm23.88.11v-.11l4.15-1.92v.11l-4.15 1.92zm0 .67v-.1l4.14-1.92v.1l-4.14 1.92zm0 .68v-.1l4.14-1.92v.11l-4.14 1.91z" style="fill:#a5a5a5;fill-rule:nonzero"/><path d="M83.844 253.798l-1.05.39h-1.41c-.1.005-.18.09-.18.19v1.17h1.61l1.29-.53v-1c.004-.015.006-.03.006-.046 0-.104-.086-.19-.19-.19a.2.2 0 0 0-.076.016zm7.46-3.36l-.63.34a.28.28 0 0 0-.18.26v1.14l.81-.46v-1.28z" style="fill:#fff;fill-rule:nonzero"/><path d="M59.894 254.258H7.634a1.64 1.64 0 0 1-1.63-1.62v-18.65c0-1.49.61-1.62 1.63-1.62h53.89v20.27a1.64 1.64 0 0 1-1.63 1.62z" style="fill:#babcbe;fill-rule:nonzero"/><g><path d="M16.964 251.568c-2.673.096-4.82 2.322-4.82 4.997 0 2.743 2.257 5 5 5s4.998-2.255 5-4.997c-.043-2.756-2.322-5.001-5.079-5.001l-.101.001z" style="fill:#151e26;fill-rule:nonzero"/><circle cx="16.544" cy="256.668" r="3.97" style="fill:#edeced"/><path d="M16.544 261.428c-2.607-.005-4.75-2.152-4.75-4.76s2.149-4.76 4.76-4.76 4.76 2.149 4.76 4.76-2.149 4.76-4.76 4.76h-.01zm0-7.79c-1.646 0-3 1.354-3 3s1.354 3 3 3 3-1.354 3-3-1.354-3-3-3z" style="fill:#1f2833;fill-rule:nonzero"/><circle cx="16.544" cy="256.668" r=".68" style="fill:#fff"/></g></g><g><path d="M43.114 289.428l6.47-2.82a4.8 4.8 0 0 1 1.94-.41l54.34-.09c.54 0 .46.45.46.45l-8.72 3.32-55.52 1.11a1.74 1.74 0 0 1 1.03-1.56z" style="fill:#d5d4d6;fill-rule:nonzero"/><g><path d="M117.384 307.868a3.93 3.93 0 0 0-3.75 3.907 3.93 3.93 0 0 0 3.91 3.91 3.93 3.93 0 0 0 3.91-3.91v-.007a4.02 4.02 0 0 0-4.07-3.9z" style="fill:#151e26;fill-rule:nonzero"/><circle cx="117.094" cy="311.868" r="3.12" style="fill:#edeced"/><path d="M117.094 315.618h-.01a3.77 3.77 0 0 1-3.75-3.75 3.77 3.77 0 0 1 3.75-3.75 3.77 3.77 0 0 1 3.75 3.75 3.77 3.77 0 0 1-3.74 3.75zm0-6.13h-.01c-1.311 0-2.39 1.079-2.39 2.39s1.079 2.39 2.39 2.39 2.39-1.079 2.39-2.39v-.01c-.005-1.303-1.076-2.374-2.38-2.38z" style="fill:#1f2833;fill-rule:nonzero"/><circle cx="117.094" cy="311.868" r=".53" style="fill:#fff"/></g><g><path d="M59.864 307.768a3.93 3.93 0 0 0-3.75 3.907 3.93 3.93 0 0 0 3.91 3.91 3.93 3.93 0 0 0 3.91-3.91v-.007a4.02 4.02 0 0 0-4.07-3.9z" style="fill:#151e26;fill-rule:nonzero"/><circle cx="59.534" cy="311.768" r="3.12" style="fill:#edeced"/><path d="M59.534 315.508a3.76 3.76 0 0 1-3.73-3.74 3.76 3.76 0 0 1 3.74-3.74 3.76 3.76 0 0 1 3.74 3.74 3.76 3.76 0 0 1-3.74 3.74h-.01zm0-6.12c-1.302.006-2.37 1.078-2.37 2.38s1.075 2.38 2.38 2.38a2.39 2.39 0 0 0 2.38-2.38c-.005-1.307-1.083-2.38-2.39-2.38z" style="fill:#1f2833;fill-rule:nonzero"/><circle cx="59.534" cy="311.768" r=".53" style="fill:#fff"/></g><path d="M118.594 303.988l8.79-3.56c.015-.543-.154-1.075-.48-1.51l-7-9.79-8.82 4.27 7.51 10.59z" style="fill:#e0eef6;fill-rule:nonzero"/><path d="M117.654 289.588l-.55 12.63 2.41 2.41.64-15.22-.22-.32-2.28.5z" style="fill:#bbdaf0;fill-rule:nonzero"/><path d="M44.074 289.878h53.53v24.4h-54.1a1.44 1.44 0 0 1-1.43-1.43v-21a2.01 2.01 0 0 1 2-1.97z" style="fill:#dbdadd;fill-rule:nonzero"/><path d="M42.084 311.768l9.2-5h46.31v7.54h-54.66c-.29-.03-.89-2.32-.85-2.54z" style="fill:#b7b7b7;fill-rule:nonzero"/><path d="M51.284 306.738l-.07-16.86h-7.92l-.073-.002c-.625 0-1.14.514-1.14 1.14 0 .027.001.055.003.082v20.67l9.2-5.03z" style="fill:#cac9cc;fill-rule:nonzero"/><path d="M106.324 286.558v20.18l-8.73 7.54v-24.4l8.42-3.75c.08-.02.37.06.31.43z" style="fill:#a5a5a5;fill-rule:nonzero"/><path d="M98.954 293.378l8.89-4c.381-.17.793-.258 1.21-.26h10.88l-8.75 4.3-12.25.34.02-.38z" style="fill:#2e3b4c;fill-rule:nonzero"/><g><path d="M108.834 309.078c-2.673.096-4.82 2.322-4.82 4.997 0 2.743 2.257 5 5 5s4.998-2.255 5-4.997c-.043-2.756-2.322-5.001-5.079-5.001l-.101.001z" style="fill:#151e26;fill-rule:nonzero"/><circle cx="108.414" cy="314.178" r="3.97" style="fill:#edeced"/><path d="M108.384 318.988c-2.611 0-4.76-2.149-4.76-4.76s2.149-4.76 4.76-4.76 4.76 2.149 4.76 4.76-2.149 4.76-4.76 4.76zm0-7.79c-1.646 0-3 1.354-3 3s1.354 3 3 3 3-1.354 3-3l.001-.05c0-1.646-1.355-3-3-3h-.001v.05z" style="fill:#1f2833;fill-rule:nonzero"/><circle cx="108.414" cy="314.178" r=".68" style="fill:#fff"/></g><path d="M121.254 290.958l-.35 13.83.58.69.36-13.68-.59-.84z" style="fill:#bbdaf0;fill-rule:nonzero"/><path d="M118.514 313.768c0 .26 0 .6.2.49l8-3.89a1.27 1.27 0 0 0 .7-1.14v-9c0-.206-.041-.41-.12-.6l-8.47 4.24a.37.37 0 0 0-.2.32l-.11 9.58z" style="fill:#2e3b4c;fill-rule:nonzero"/><path d="M111.114 293.358h-12a.28.28 0 0 0-.28.27v19.6c.006.578.482 1.05 1.06 1.05h3.5a.26.26 0 0 0 .26-.26c.121-2.742 2.41-4.933 5.155-4.933s5.034 2.191 5.155 4.933c.005.144.126.26.27.26h4.35c.148 0 .27-.122.27-.27v-9.46c0-.474-.15-.937-.43-1.32l-7.04-9.76a.27.27 0 0 0-.27-.11z" style="fill:#3c4a59;fill-rule:nonzero"/><path d="M101.174 295.708v8c0 .238.193.435.43.44h14.573c.12 0 .22-.099.22-.22 0-.047-.015-.092-.043-.13l-5.84-8.41a.66.66 0 0 0-.53-.28h-8.26c-.304.005-.551.256-.551.56l.001.04z" style="fill:#e0eef6;fill-rule:nonzero"/><path d="M103.834 306.508a.37.37 0 0 0-.37-.37h-1.92a.37.37 0 1 0 0 .74h1.92a.37.37 0 0 0 .37-.37z" style="fill:#a5a5a5"/><path d="M125.614 310.888l-4.14 2v-2c.001-.34.201-.649.51-.79l3.14-1.48c.047-.022.098-.034.15-.034.192 0 .35.158.35.35v.014l-.01 1.94z" style="fill:#b7b7b7;fill-rule:nonzero"/><path d="M42.084 311.768h55.52v2.51h-54.12a1.41 1.41 0 0 1-1.4-1.4v-1.11z" style="fill:#334151;fill-rule:nonzero"/><path d="M97.604 311.768l1.19-.91v2.37l-1.19 1.05v-2.51z" style="fill:#2e3b4c;fill-rule:nonzero"/><path d="M97.604 307.548h-47.79l.3-.16h47.49v.16zm0 1.12h-49.85l.29-.16h49.56v.16zm0 1.13h-51.89l.28-.16h51.61v.16zm0 1.13h-53.97l.29-.17h53.68v.17zm23.87.1v-.11l4.15-1.92v.11l-4.15 1.92zm0 .68v-.11l4.15-1.92v.11l-4.15 1.92zm0 .68v-.11l4.15-1.92-.01.11-4.14 1.92z" style="fill:#a5a5a5;fill-rule:nonzero"/><path d="M119.914 311.308l-1 .4h-1.43c-.1 0-.185.08-.19.18v1.18h1.62l1.29-.53v-1.06c.002-.01.003-.019.003-.029 0-.099-.082-.18-.18-.18-.041 0-.081.014-.113.039zm7.47-3.32l-.63.34c-.111.043-.183.151-.18.27v1.13l.81-.46v-1.28z" style="fill:#fff;fill-rule:nonzero"/><path d="M95.974 311.768h-52.27a1.63 1.63 0 0 1-1.62-1.62v-18.64c0-1.5.6-1.63 1.62-1.63h53.89v20.28a1.62 1.62 0 0 1-1.61 1.61h-.01z" style="fill:#babcbe;fill-rule:nonzero"/><g><path d="M53.044 309.078c-2.673.096-4.82 2.322-4.82 4.997 0 2.743 2.257 5 5 5s4.998-2.255 5-4.997c-.043-2.756-2.322-5.001-5.079-5.001l-.101.001z" style="fill:#151e26;fill-rule:nonzero"/><circle cx="52.624" cy="314.178" r="3.97" style="fill:#edeced"/><path d="M52.624 318.988c-2.611 0-4.76-2.149-4.76-4.76s2.149-4.76 4.76-4.76 4.76 2.149 4.76 4.76-2.149 4.76-4.76 4.76zm0-7.79c-1.646 0-3 1.354-3 3s1.354 3 3 3 3-1.354 3-3l.001-.05c0-1.646-1.355-3-3-3l-.001.05z" style="fill:#1f2833;fill-rule:nonzero"/><circle cx="52.624" cy="314.178" r=".68" style="fill:#fff"/></g></g><g><path d="M121.794 245.298l6.46-2.83a4.99 4.99 0 0 1 1.95-.4l54.34-.1c.54 0 .46.45.46.45l-8.72 3.33-55.45 1.12-.05-.05c.018-.657.411-1.249 1.01-1.52z" style="fill:#d5d4d6;fill-rule:nonzero"/><g><path d="M196.094 263.728a3.93 3.93 0 0 0-3.75 3.907 3.93 3.93 0 0 0 3.91 3.91 3.93 3.93 0 0 0 3.91-3.907 4.02 4.02 0 0 0-4.07-3.91z" style="fill:#151e26;fill-rule:nonzero"/><circle cx="195.774" cy="267.738" r="3.12" style="fill:#edeced"/><path d="M195.774 271.478a3.76 3.76 0 0 1-3.74-3.74 3.76 3.76 0 0 1 3.74-3.74 3.76 3.76 0 0 1 3.74 3.74 3.77 3.77 0 0 1-3.74 3.74zm0-6.12c-1.305 0-2.38 1.075-2.38 2.38s1.075 2.38 2.38 2.38a2.39 2.39 0 0 0 2.38-2.38c-.005-1.303-1.076-2.374-2.38-2.38z" style="fill:#1f2833;fill-rule:nonzero"/><circle cx="195.774" cy="267.738" r=".53" style="fill:#fff"/></g><g><path d="M138.544 263.628a3.93 3.93 0 0 0-3.75 3.907 3.93 3.93 0 0 0 3.91 3.91 3.93 3.93 0 0 0 3.91-3.907 4.02 4.02 0 0 0-4.07-3.91z" style="fill:#151e26;fill-rule:nonzero"/><circle cx="138.214" cy="267.638" r="3.12" style="fill:#edeced"/><path d="M138.214 271.378a3.76 3.76 0 0 1-3.74-3.74 3.76 3.76 0 0 1 3.74-3.74 3.76 3.76 0 0 1 3.74 3.74 3.77 3.77 0 0 1-3.74 3.74zm0-6.12c-1.305 0-2.38 1.075-2.38 2.38s1.075 2.38 2.38 2.38a2.39 2.39 0 0 0 2.38-2.38c0-1.305-1.074-2.38-2.38-2.38z" style="fill:#1f2833;fill-rule:nonzero"/><circle cx="138.214" cy="267.638" r=".53" style="fill:#fff"/></g><path d="M197.274 259.828l8.79-3.56c.015-.546-.154-1.081-.48-1.52l-7-9.78-8.81 4.26 7.5 10.6z" style="fill:#e0eef6;fill-rule:nonzero"/><path d="M196.334 245.448l-.55 12.63 2.41 2.42.64-15.23-.23-.31-2.27.49z" style="fill:#bbdaf0;fill-rule:nonzero"/><path d="M122.754 245.748h53.53v24.4h-54.1a1.44 1.44 0 0 1-1.43-1.43v-21a2.01 2.01 0 0 1 2-1.97z" style="fill:#dbdadd;fill-rule:nonzero"/><path d="M120.754 267.638l9.21-5h46.31v7.54h-54.66c-.29-.03-.89-2.37-.86-2.54z" style="fill:#b7b7b7;fill-rule:nonzero"/><path d="M129.964 262.608l-.07-16.86h-7.92l-.072-.002c-.63 0-1.15.519-1.15 1.15l.002.062v20.68l9.21-5.03z" style="fill:#cac9cc;fill-rule:nonzero"/><path d="M185.004 242.418v20.19l-8.73 7.54v-24.4l8.42-3.75c.07-.01.31.06.31.42z" style="fill:#a5a5a5;fill-rule:nonzero"/><path d="M177.634 249.238l8.88-4c.385-.168.8-.253 1.22-.25h10.87l-8.75 4.3-12.24.34.02-.39z" style="fill:#2e3b4c;fill-rule:nonzero"/><g><path d="M187.514 264.988c-2.673.096-4.82 2.322-4.82 4.997 0 2.743 2.257 5 5 5s4.998-2.255 5-4.997c-.048-2.758-2.33-5.001-5.089-5.001l-.091.001z" style="fill:#151e26;fill-rule:nonzero"/><circle cx="187.094" cy="270.048" r="3.97" style="fill:#edeced"/><path d="M187.094 274.808h-.01c-2.617 0-4.77-2.153-4.77-4.77s2.153-4.77 4.77-4.77 4.77 2.153 4.77 4.77v.01c-.005 2.609-2.151 4.755-4.76 4.76zm0-7.79c-1.646 0-3 1.354-3 3s1.354 3 3 3 3-1.354 3-3v-.03c0-1.646-1.354-3-3-3v.03z" style="fill:#1f2833;fill-rule:nonzero"/><circle cx="187.094" cy="270.048" r=".68" style="fill:#fff"/></g><path d="M199.934 246.818l-.35 13.84.58.68.36-13.68-.59-.84z" style="fill:#bbdaf0;fill-rule:nonzero"/><path d="M197.194 269.628c0 .27 0 .61.2.49l8-3.88a1.27 1.27 0 0 0 .71-1.14v-9c-.004-.209-.045-.415-.12-.61l-8.47 4.25a.34.34 0 0 0-.2.32l-.12 9.57z" style="fill:#2e3b4c;fill-rule:nonzero"/><path d="M189.794 249.218h-12.05c-.153 0-.28.127-.28.28v19.59c0 .582.479 1.06 1.06 1.06h3.56a.28.28 0 0 0 .27-.27c.121-2.742 2.41-4.933 5.155-4.933s5.034 2.191 5.155 4.933a.28.28 0 0 0 .27.27h4.34a.29.29 0 0 0 .28-.28v-9.46a2.26 2.26 0 0 0-.43-1.32l-7.11-9.76c-.052-.068-.134-.109-.22-.11z" style="fill:#3c4a59;fill-rule:nonzero"/><path d="M179.854 251.568v8.01c0 .238.193.435.43.44h14.57c.118-.004.213-.102.213-.22 0-.047-.015-.092-.043-.13l-5.83-8.41a.63.63 0 0 0-.53-.28h-8.28c-.296.016-.531.263-.531.559l.001.031z" style="fill:#e0eef6;fill-rule:nonzero"/><path d="M182.514 262.378a.37.37 0 0 0-.37-.37h-1.92a.37.37 0 1 0 0 .74h1.92a.37.37 0 0 0 .37-.37z" style="fill:#a5a5a5"/><path d="M204.294 266.758l-4.14 2v-2a.89.89 0 0 1 .51-.8l3.14-1.47c.047-.022.098-.034.15-.034.192 0 .35.158.35.35v.004l-.01 1.95z" style="fill:#b7b7b7;fill-rule:nonzero"/><path d="M120.754 267.638h55.52v2.51h-54.11a1.41 1.41 0 0 1-1.4-1.4v-1.11h-.01z" style="fill:#334151;fill-rule:nonzero"/><path d="M176.274 267.638l1.19-.92v2.37l-1.19 1.06v-2.51z" style="fill:#2e3b4c;fill-rule:nonzero"/><path d="M176.274 263.408h-47.79l.31-.16h47.48v.16zm0 1.13h-49.85l.3-.16h49.55v.16zm0 1.12h-51.89l.29-.16h51.6v.16zm0 1.13h-53.97l.3-.16h53.67v.16zm23.88.1v-.1l4.15-1.92v.1l-4.15 1.92zm0 .68v-.1l4.15-1.92v.1l-4.15 1.92zm0 .68v-.11l4.14-1.91v.1l-4.14 1.92z" style="fill:#a5a5a5;fill-rule:nonzero"/><path d="M198.594 267.168l-1 .4h-1.44a.18.18 0 0 0-.18.18v1.18h1.62l1.28-.53v-1.05c0-.004.001-.008.001-.013 0-.104-.086-.19-.19-.19-.032 0-.063.008-.091.023zm7.47-3.35l-.64.33c-.103.05-.17.155-.17.27v1.13l.81-.45v-1.28z" style="fill:#fff;fill-rule:nonzero"/><path d="M174.654 267.638h-52.27a1.64 1.64 0 0 1-1.62-1.63v-18.64c0-1.5.6-1.62 1.62-1.62h53.89v20.27a1.63 1.63 0 0 1-1.62 1.62z" style="fill:#babcbe;fill-rule:nonzero"/><g><path d="M131.724 264.988c-2.673.096-4.82 2.322-4.82 4.997 0 2.743 2.257 5 5 5s4.998-2.255 5-4.997c-.048-2.758-2.33-5.001-5.089-5.001l-.091.001z" style="fill:#151e26;fill-rule:nonzero"/><circle cx="131.304" cy="270.048" r="3.97" style="fill:#edeced"/><path d="M131.304 274.808h-.01c-2.617 0-4.77-2.153-4.77-4.77s2.153-4.77 4.77-4.77 4.77 2.153 4.77 4.77v.01c-.005 2.609-2.151 4.755-4.76 4.76zm0-7.79c-1.646 0-3 1.354-3 3s1.354 3 3 3 3-1.354 3-3v-.03c0-1.646-1.354-3-3-3v.03z" style="fill:#1f2833;fill-rule:nonzero"/><circle cx="131.304" cy="270.048" r=".68" style="fill:#fff"/></g></g><g><path d="M1046.38 7.148l13.73-6a10.52 10.52 0 0 1 4.13-.87l115.43-.2c1.15 0 1 1 1 1l-18.52 7.07-117.8 2.38c-.056-.005-.1-.053-.1-.11.021-1.407.852-2.682 2.13-3.27z" style="fill:#d5d4d6;fill-rule:nonzero"/><g><path d="M1204.17 46.318a8.34 8.34 0 0 0-7.96 8.293c0 4.553 3.747 8.3 8.3 8.3s8.3-3.747 8.3-8.3v-.003c-.108-4.639-4.001-8.373-8.64-8.29z" style="fill:#151e26;fill-rule:nonzero"/><circle cx="1203.47" cy="54.828" r="6.62" style="fill:#edeced"/><path d="M1203.47 62.768a7.99 7.99 0 0 1-7.9-7.95c0-4.361 3.589-7.95 7.95-7.95s7.95 3.589 7.95 7.95v.01c-.033 4.366-3.634 7.94-8 7.94zm0-13c-2.776 0-5.06 2.284-5.06 5.06s2.284 5.06 5.06 5.06 5.06-2.284 5.06-5.06-2.286-5.054-5.06-5.06z" style="fill:#1f2833;fill-rule:nonzero"/><circle cx="1203.47" cy="54.828" r="1.13" style="fill:#fff"/></g><g><path d="M1081.91 46.098a8.34 8.34 0 0 0-7.95 8.293c0 4.553 3.747 8.3 8.3 8.3s8.3-3.747 8.3-8.3v-.003c-.103-4.645-4.005-8.384-8.65-8.29z" style="fill:#151e26;fill-rule:nonzero"/><circle cx="1081.22" cy="54.608" r="6.62" style="fill:#edeced"/><path d="M1081.22 62.558h-.06c-4.388 0-8-3.611-8-8s3.612-8 8-8 8 3.612 8 8v.05a8.04 8.04 0 0 1-7.94 7.95zm0-13h-.01c-2.776 0-5.06 2.284-5.06 5.06s2.284 5.06 5.06 5.06 5.06-2.284 5.06-5.06-2.276-5.059-5.05-5.07v.01z" style="fill:#1f2833;fill-rule:nonzero"/><circle cx="1081.22" cy="54.608" r="1.13" style="fill:#fff"/></g><path d="M1206.66 37.988l18.67-7.56c0-1.15-.08-1.54-1-3.21l-14.81-20.79-18.73 9.06 15.87 22.5z" style="fill:#e0eef6;fill-rule:nonzero"/><path d="M1204.66 7.488l-1.16 26.82 5.12 5.13 1.36-32.34-.48-.67-4.84 1.06z" style="fill:#bbdaf0;fill-rule:nonzero"/><path d="M1046.12 8.118h115.94v51.87h-116.5a1.44 1.44 0 0 1-1.43-1.43v-48.45a2.01 2.01 0 0 1 1.99-1.99z" style="fill:#dbdadd;fill-rule:nonzero"/><path d="M1044.13 54.608l19.55-10.69h98.38v16h-116.12c-.56.07-1.89-4.93-1.81-5.31z" style="fill:#b7b7b7;fill-rule:nonzero"/><path d="M1063.68 43.918l-.14-35.8h-16.83c-.055-.004-.11-.005-.165-.005-1.327 0-2.42 1.092-2.42 2.42l.005.155v43.92l19.55-10.69z" style="fill:#cac9cc;fill-rule:nonzero"/><path d="M1180.6 1.038v42.88l-18.54 16v-51.8l17.87-8c.17-.01.68.16.67.92z" style="fill:#a5a5a5;fill-rule:nonzero"/><path d="M1164.95 15.538l18.86-8.55c.816-.361 1.698-.548 2.59-.55h23.1l-18.59 9.14-26 .72.04-.76z" style="fill:#2e3b4c;fill-rule:nonzero"/><g><path d="M1185.92 48.898c-5.622.235-10.12 4.924-10.12 10.551 0 5.793 4.767 10.56 10.56 10.56s10.56-4.767 10.56-10.56c-.13-5.909-5.091-10.667-11-10.551z" style="fill:#151e26;fill-rule:nonzero"/><circle cx="1185.03" cy="59.728" r="8.43" style="fill:#edeced"/><path d="M1185.03 69.848c-5.552 0-10.12-4.568-10.12-10.12s4.568-10.12 10.12-10.12 10.12 4.568 10.12 10.12c-.005 5.55-4.57 10.115-10.12 10.12zm0-16.56c-3.533 0-6.44 2.907-6.44 6.44s2.907 6.44 6.44 6.44 6.44-2.907 6.44-6.44-2.907-6.44-6.44-6.44z" style="fill:#1f2833;fill-rule:nonzero"/><circle cx="1185.03" cy="59.728" r="1.43" style="fill:#fff"/></g><path d="M1212.31 10.398l-.74 29.38 1.23 1.46.77-29.06-1.26-1.78z" style="fill:#bbdaf0;fill-rule:nonzero"/><path d="M1206.49 58.848c0 .56-.07 1.28.43 1l16.92-8.24a2.72 2.72 0 0 0 1.49-2.43v-19.11a3.6 3.6 0 0 0-.25-1.28l-18 9a.77.77 0 0 0-.42.69l-.17 20.37z" style="fill:#2e3b4c;fill-rule:nonzero"/><path d="M1190.77 15.488h-25.6c-.318 0-.58.262-.58.58v41.63a2.25 2.25 0 0 0 2.24 2.24h7.55c.309-.005.564-.251.58-.56.562-5.593 5.324-9.901 10.945-9.901s10.384 4.308 10.945 9.901c.011.311.269.56.58.56h9.22c.324 0 .59-.266.59-.59v-20.08a4.75 4.75 0 0 0-.92-2.81l-15.1-20.73a.58.58 0 0 0-.45-.24z" style="fill:#3c4a59;fill-rule:nonzero"/><path d="M1169.66 20.488l-.002 17.061c0 .505.407.924.912.939h31a.46.46 0 0 0 .36-.73l-12.39-17.87a1.36 1.36 0 0 0-1.13-.6h-17.56c-.653 0-1.19.537-1.19 1.19v.01z" style="fill:#e0eef6;fill-rule:nonzero"/><path d="M1175.32 43.218a.57.57 0 0 0-.57-.57h-4.52a.57.57 0 0 0-.57.57v.42a.57.57 0 0 0 .57.57h4.52a.57.57 0 0 0 .57-.57v-.42z" style="fill:#a5a5a5"/><path d="M1221.57 52.738l-8.79 4.25v-4.28c.002-.724.424-1.384 1.08-1.69l6.67-3.13c.1-.047.21-.072.32-.072.412 0 .75.339.75.75v.012l-.03 4.16z" style="fill:#b7b7b7;fill-rule:nonzero"/><path d="M1044.13 54.608h117.93v5.38h-116.52a1.41 1.41 0 0 1-1.4-1.4v-3.93l-.01-.05z" style="fill:#334151;fill-rule:nonzero"/><path d="M1162.06 54.608l2.53-1.95v5.04l-2.53 2.24v-5.33z" style="fill:#2e3b4c;fill-rule:nonzero"/><path d="M1162.06 45.638h-101.51l.64-.34h100.87v.34zm0 2.39h-105.89l.63-.34h105.26v.34zm0 2.39h-110.22l.61-.34h109.61v.34zm0 2.39h-114.64l.63-.34h114.01v.34z" style="fill:#a5a5a5;fill-rule:nonzero"/><g><g><g><path d="M1091.01 13.988l.09 31.34h-21.2v-31.34h21.11z" style="fill:#e3a554;fill-rule:nonzero"/><path d="M1107.11 14.098l-16.1-.08.09 31.34h16l.01-31.26z" style="fill:#f6c049;fill-rule:nonzero"/><g><g><g><rect x="1067.85" y="45.358" width="1.7" height="1.14" style="fill:#ffda80"/><rect x="1069.49" y="45.358" width="22.3" height="1.18" style="fill:#e1994a"/><path d="M1074.08 46.498h-2.8l-.89-1.14h.89l2.8 1.14zm5.29 0h-2.8l-.9-1.14h.92l2.78 1.14zm5.51 0h-2.8l-.89-1.14h.82l2.87 1.14zm5.39 0h-2.8l-.9-1.14h.83l2.87 1.14z" style="fill:#b77a52;fill-rule:nonzero"/></g><rect x="1076.64" y="45.358" width="3.7" height="1.14" style="fill:#ffda80"/><rect x="1071.24" y="45.358" width="3.7" height="1.14" style="fill:#ffda80"/><rect x="1082.03" y="45.358" width="3.7" height="1.14" style="fill:#ffda80"/><rect x="1089.84" y="45.358" width="18.6" height="1.19" style="fill:#e1994a"/></g><g><rect x="1096.14" y="47.388" width="2.5" height="2.59" style="fill:#72514c"/><rect x="1103.64" y="47.388" width="2.5" height="2.59" style="fill:#72514c"/><rect x="1069.28" y="47.368" width="2.43" height="2.93" style="fill:#b77a52"/><path d="M1071.72 50.298l-2.01-2.59h2.41l-.39 1.81.39.54-.4.24z" style="fill:#72514c;fill-rule:nonzero"/><rect x="1077.69" y="47.708" width="2.43" height="2.59" style="fill:#b77a52"/><path d="M1082.64 50.298h-2.87v-2.59h2.44l.43 2.59z" style="fill:#b77a52;fill-rule:nonzero"/><rect x="1089.13" y="47.708" width="2.43" height="2.59" style="fill:#b77a52"/><path d="M1069.3 50.298h-1.45v-3.18l1.45.59v2.59zm10.92 0h-3.45v-3.11l3.45.52v2.59zm10.9 0h-3.45v-3.14l3.45.55v2.59z" style="fill:#efbb66;fill-rule:nonzero"/><path d="M1093.51 50.298h-2.44v-2.59l2.44-.49v3.08zm14.91 0h-2.43v-2.59l2.43-.59v3.18zm-7.45 0h-2.44v-2.59l2.44-.71v3.3z" style="fill:#c38d48;fill-rule:nonzero"/><rect x="1067.85" y="46.488" width="23.27" height="1.22" style="fill:#efbb66"/><rect x="1091.07" y="46.488" width="17.35" height="1.22" style="fill:#c38d48"/><rect x="1091.07" y="49.518" width="17.35" height=".78" style="fill:#c38d48"/><path d="M1082.64 50.298l-2.43-2.61 2.43.02v1.83l.46.61-.46.15z" style="fill:#72514c;fill-rule:nonzero"/></g><path d="M1091.07 46.368l-3.69.12v-1.13h3.69v1.01z" style="fill:#ffda80;fill-rule:nonzero"/></g><rect x="1090.73" y="14.018" width=".57" height="31.34" style="fill:#f29f32"/><rect x="1099.47" y="14.058" width=".57" height="31.3" style="fill:#f29f32"/><path d="M1082.06 35.208v1.78h-2.92v-1.79l2.92.01z" style="fill:#94493b;fill-rule:nonzero"/><rect x="1069.88" y="35.098" width="37.25" height=".57" style="fill:#f29f32"/><rect x="1069.88" y="23.978" width="37.25" height=".57" style="fill:#f29f32"/><rect x="1079.14" y="24.508" width="2.91" height="1.17" style="fill:#94493b"/><rect x="1094.1" y="24.558" width="2.49" height="1.15" style="fill:#94493b;fill-rule:nonzero"/><path d="M1104.88 24.578v1.15h-2.5v-1.16l2.5.01z" style="fill:#94493b;fill-rule:nonzero"/><rect x="1094.1" y="35.708" width="2.49" height="1.15" style="fill:#94493b;fill-rule:nonzero"/><path d="M1104.88 35.728v1.15h-2.5v-1.16l2.5.01z" style="fill:#94493b;fill-rule:nonzero"/><rect x="1079.14" y="14.038" width="2.91" height="1.17" style="fill:#94493b"/><rect x="1094.1" y="14.038" width="2.49" height="1.15" style="fill:#94493b;fill-rule:nonzero"/><path d="M1104.88 14.098v1.15h-2.5v-1.16l2.5.01z" style="fill:#94493b;fill-rule:nonzero"/></g><g><path d="M1074.86 42.388v1.81h-3.57v-1.8l3.57-.01zm-.06-10.25v1.8h-3.57v-1.79l3.57-.01zm-.17-11.03v1.81h-3.57v-1.8l3.57-.01z" style="fill:#f6f7fb;fill-rule:nonzero"/></g></g><rect x="1069.89" y="13.498" width="37.22" height=".57" style="fill:#f29f32"/></g><g><path d="M1067.38 48.898c-5.622.235-10.12 4.924-10.12 10.551 0 5.793 4.767 10.56 10.56 10.56s10.56-4.767 10.56-10.56c-.136-5.907-5.093-10.662-11-10.551z" style="fill:#151e26;fill-rule:nonzero"/><circle cx="1066.53" cy="59.728" r="8.43" style="fill:#edeced"/><path d="M1066.53 69.848h-.01c-5.552 0-10.12-4.568-10.12-10.12s4.568-10.12 10.12-10.12 10.12 4.568 10.12 10.12c-.005 5.546-4.564 10.109-10.11 10.12zm0-16.56c-3.533 0-6.44 2.907-6.44 6.44s2.907 6.44 6.44 6.44 6.44-2.907 6.44-6.44c-.005-3.531-2.909-6.434-6.44-6.44z" style="fill:#1f2833;fill-rule:nonzero"/><circle cx="1066.53" cy="59.728" r="1.43" style="fill:#fff"/></g><path d="M1212.78 53.028v-.23l8.82-4.08v.23l-8.82 4.08zm0 1.44v-.23l8.81-4.07v.22l-8.81 4.08zm0 1.45v-.23l8.8-4.08v.23l-8.8 4.08z" style="fill:#a5a5a5;fill-rule:nonzero"/><path d="M1209.47 53.628l-2.21.84h-3.06c-.208 0-.38.172-.38.38v2.51h3.44l2.73-1.13v-2.24a.39.39 0 0 0-.39-.382c-.044 0-.088.007-.13.022zm15.91-7.13l-1.35.71a.61.61 0 0 0-.37.57v2.4l1.72-1v-2.68z" style="fill:#fff;fill-rule:nonzero"/><g><path d="M1114.15 50.018h-1.4v-3.09l1.4.57v2.52z" style="fill:#efbb66;fill-rule:nonzero"/><g><path d="M1135.27 24.458l.08 20.82-20.62.02.01-20.84h20.53z" style="fill:#e3a554;fill-rule:nonzero"/><path d="M1150.93 24.538l-15.66-.08.08 20.75h15.57l.01-20.67z" style="fill:#f6c049;fill-rule:nonzero"/><g><g><rect x="1112.74" y="45.218" width="1.65" height="1.11" style="fill:#ffda80"/><rect x="1114.34" y="45.218" width="21.69" height="1.15" style="fill:#e1994a"/><path d="M1118.8 46.328h-2.72l-.87-1.12h.87l2.72 1.12zm5.14 0h-2.72l-.87-1.12h.89l2.7 1.12zm5.37 0h-2.73l-.87-1.12h.8l2.8 1.12zm5.15 0h-2.73l-.87-1.12h.87l2.73 1.12z" style="fill:#b77a52;fill-rule:nonzero"/></g><rect x="1121.29" y="45.218" width="3.6" height="1.11" style="fill:#ffda80"/><rect x="1116.04" y="45.218" width="3.6" height="1.11" style="fill:#ffda80"/><rect x="1126.53" y="45.218" width="3.6" height="1.11" style="fill:#ffda80"/><rect x="1134.13" y="45.218" width="18.09" height="1.16" style="fill:#e1994a"/></g><rect x="1140.26" y="47.188" width="2.43" height="2.52" style="fill:#72514c"/><rect x="1147.55" y="47.188" width="2.43" height="2.52" style="fill:#72514c"/><path d="M1116.51 49.988l-2.37.03v-2.52h2.37v2.49z" style="fill:#b77a52;fill-rule:nonzero"/><path d="M1116.51 49.988l-1.97-2.49h2.34l-.37 1.77.37.52-.37.2z" style="fill:#72514c;fill-rule:nonzero"/><rect x="1122.31" y="47.498" width="2.37" height="2.52" style="fill:#b77a52"/><path d="M1127.12 50.018h-2.78v-2.52h2.36l.42 2.52z" style="fill:#b77a52;fill-rule:nonzero"/><rect x="1133.44" y="47.498" width="2.37" height="2.52" style="fill:#b77a52"/><path d="M1124.78 50.018h-3.36v-3.03l3.36.51v2.52zm10.6 0h-3.36v-3.06l3.36.54v2.52z" style="fill:#efbb66;fill-rule:nonzero"/><path d="M1137.7 50.018h-2.37v-2.52l2.37-.48v3zm14.5 0h-2.37v-2.52l2.37-.57v3.09zm-7.25 0h-2.37v-2.52l2.37-.69v3.21z" style="fill:#c38d48;fill-rule:nonzero"/><rect x="1112.75" y="46.308" width="22.63" height="1.18" style="fill:#efbb66"/><rect x="1135.33" y="46.308" width="16.87" height="1.18" style="fill:#c38d48"/><rect x="1135.33" y="49.258" width="16.87" height=".76" style="fill:#c38d48"/><path d="M1127.12 50.018l-2.34-2.54h2.34v1.78l.47.61-.47.15z" style="fill:#72514c;fill-rule:nonzero"/><path d="M1135.33 46.328l-3.6-.02v-1.08h3.6v1.1z" style="fill:#ffda80;fill-rule:nonzero"/><rect x="1134.99" y="24.458" width=".56" height="20.75" style="fill:#f29f32"/><rect x="1143.5" y="24.508" width=".56" height="20.71" style="fill:#f29f32"/><path d="M1126.56 35.338v1.75h-2.84v-1.75h2.84z" style="fill:#94493b;fill-rule:nonzero"/><rect x="1114.73" y="35.238" width="36.21" height=".56" style="fill:#f29f32"/><rect x="1123.72" y="24.468" width="2.83" height="1.14" style="fill:#94493b"/><rect x="1138.29" y="24.468" width="2.42" height="1.12" style="fill:#94493b;fill-rule:nonzero"/><path d="M1148.76 24.518v1.12h-2.38v-1.13l2.38.01z" style="fill:#94493b;fill-rule:nonzero"/><rect x="1138.29" y="35.798" width="2.42" height="1.12" style="fill:#94493b;fill-rule:nonzero"/><path d="M1148.76 35.848v1.12h-2.38v-1.13l2.38.01z" style="fill:#94493b;fill-rule:nonzero"/><path d="M1119.3 42.138v1.76h-3.48v-1.75l3.48-.01zm0-9.9v1.75h-3.48v-1.74l3.48-.01z" style="fill:#f6f7fb;fill-rule:nonzero"/><path d="M1150.93 24.538v-.56l-36.2.03.01.48 36.19.05z" style="fill:#f29f32;fill-rule:nonzero"/></g></g></g></svg>