<svg width="60px" height="60px" viewBox="0 0 66 19" version="1.1" xmlns="http://www.w3.org/2000/svg" xmlns:xlink="http://www.w3.org/1999/xlink"><defs><polygon id="path-1" points="0 0 66 0 66 19 0 19"></polygon></defs><g id="HOMEPAGES-" stroke="none" stroke-width="1" fill="none" fill-rule="evenodd"><g id="Carrier-/-Contenu" transform="translate(-846.000000, -677.000000)"><g id="bloc-reassurance" transform="translate(0.000000, 638.000000)"><g id="logos" transform="translate(230.000000, 23.000000)"><g id="DSV" transform="translate(616.000000, 16.000000)"><mask id="mask-2" fill="white"><use xlink:href="#path-1"></use></mask><g id="Clip-2"></g><path d="M37.2919488,18.9898148 L26.3216817,18.9898148 C26.0640147,18.9898148 25.8059632,18.9538605 25.5650253,18.8644452 C24.8931683,18.6152118 24.7449137,18.197313 24.6776126,17.4238238 C24.6722285,16.9055916 24.667229,16.3254276 24.6543457,15.778959 C24.678574,14.2664289 24.5616625,14.5115209 25.9845994,14.5160387 C28.5222345,14.5239449 31.0596772,14.5130268 33.5973122,14.5075678 C33.9190114,14.507003 34.2399413,14.5166034 34.556641,14.4198467 C35.2288825,14.2148504 35.6246128,13.6853236 35.5451976,13.0673228 C35.4611674,12.4141206 34.9935211,11.9836096 34.2780145,11.9608322 C32.8937276,11.9165952 31.5071332,11.9753269 30.1228463,11.9354194 C28.9356553,11.9011593 27.7486567,11.9235601 26.5612735,11.9484082 C25.4861869,11.9708091 24.4262912,11.7739072 23.4106218,11.4335644 C22.9622044,11.2833467 22.7920288,11.3908333 22.6847317,11.8943825 C22.0532553,14.8592051 20.4257231,17.0770807 17.5675427,18.3832968 C16.7516614,18.7560174 15.9207816,18.8262319 15.0683654,18.9365421 C14.8941518,18.958943 14.6078338,18.9796497 14.4322741,18.9796497 C9.79599934,18.9794615 5.17030044,18.9841675 0.534025671,18.9999799 C0.112336376,19.0014859 -0.00246002553,18.9190356 3.97286062e-05,18.4866421 C0.0225375159,14.6824452 0.0113847666,10.8778719 0.0123462105,7.07348684 L0.968406025,7.06087458 C2.25943289,7.04882704 3.55142121,7.01701403 4.84071748,7.07160441 C5.92388017,7.11715915 6.78091127,7.99135827 6.79860183,9.0524824 C6.82379166,10.547506 6.79475606,12.0432825 6.81129289,13.5384943 C6.82013818,14.3468085 6.96570078,14.5086972 7.78235123,14.4975909 C9.09318384,14.4797078 10.4045933,14.5892651 11.7150414,14.392928 C14.8491562,13.9232624 16.1761411,11.5244856 15.8505961,8.77049483 C15.5069761,5.86440394 13.4683305,4.55894078 10.6418777,4.5105624 C7.46122897,4.45616026 4.27904195,4.50133851 1.09762408,4.4951265 C0.886875582,4.49493826 0.677280812,4.52242169 0.487684075,4.50397391 C0.214826296,4.47724345 0.0121539217,4.24269303 0.0121539217,3.97425894 L0.0121539217,1.0992281 C0.0754169304,0.438119714 0.444611388,0.0766937199 1.11992958,0.0149501125 L14.6893642,0.0177737531 C14.8391572,0.0222915781 15.0958627,0.0309507425 15.2537318,0.0460101589 C15.8355976,0.101353514 16.2424807,0.174015199 16.7718517,0.366022758 C17.9717337,0.801616379 19.0756636,1.38705119 20.007495,2.24976751 C20.3576529,2.57410969 20.5610944,2.66973699 20.8887545,2.18294135 C21.8034722,0.824393746 23.1319954,0.115283475 24.7945242,0.0149501125 L43.338085,0.0149501125 C43.6878582,0.0149501125 44.0376315,0.0362215383 44.3827899,0.0911884082 C44.7558301,0.150673103 45.1961714,0.269642493 45.5353688,0.483109721 C46.5500767,1.12162898 47.3682655,1.87685871 47.9130196,2.9867377 C48.4423906,4.06536841 48.984645,5.13854007 49.4963254,6.22507697 C50.5104564,8.37838527 51.5888119,10.5015747 52.6262099,12.6437767 C52.7269692,12.8517849 52.7590814,13.1958926 53.0723199,13.1706681 C53.3078736,13.1516556 53.3838277,12.8589381 53.4790106,12.6590244 C54.4621832,10.5915548 55.4805445,8.540274 56.4767927,6.47901638 C57.4236227,4.51959805 58.4417918,2.55359124 59.3876603,0.593608189 C59.5372609,0.341362964 59.6426352,0.208840099 59.8183871,0.0955179905 C59.9037634,0.0403628778 60.0056764,0.0149501125 60.1077817,0.0149501125 C61.8124218,0.0160795688 63.5172541,0.0352803247 65.2209327,0.00083190963 C65.6968474,-0.00876846835 66.0758486,0.0586224202 65.9870112,0.52546433 C65.9473997,0.698459376 65.8602929,0.899314343 65.775109,1.0992281 C63.2643944,6.68043607 60.3802549,12.0867666 57.7174399,17.5966306 C57.3463226,18.3644726 56.8348344,18.8892932 55.9453065,18.9898148 L50.1304938,18.9898148 C49.2063539,18.8555978 48.7254397,18.2389147 48.3408621,17.4755905 C46.505658,13.8332824 44.6748766,10.1885271 42.856017,6.53868931 C42.1258965,5.07378458 41.0208129,4.48985571 39.453467,4.49154989 C36.0413026,4.4951265 32.6289459,4.48571437 29.2167815,4.4977619 C28.5347332,4.50020906 27.8592227,4.56458806 27.5752122,5.33958328 C27.2523594,6.21999441 27.7678856,7.01720227 28.7277912,7.0460034 C30.0180489,7.0847814 31.3102295,7.03621478 32.6008718,7.062757 C34.2114826,7.09607596 35.8215165,6.98745992 37.4340503,7.17664384 C40.372992,7.52131624 42.4716317,9.6074219 42.6414227,12.5112539 C42.7575651,14.4934496 42.3887553,16.3250511 40.7942967,17.7564486 C40.3158822,18.1858302 39.7876649,18.4787359 39.2198362,18.6803438 C38.6035506,18.8994583 37.9474613,18.9898148 37.2919488,18.9898148" id="Fill-1" fill="#FFFFFF" mask="url(#mask-2)"></path></g></g></g></g></g></svg>