<svg width="150" height="40" viewBox="0 0 118 21" version="1.1" xmlns="http://www.w3.org/2000/svg" style="display:block"><g id="Tests" stroke="none" stroke-width="1" fill="none" fill-rule="evenodd"><g id="BO-nav" transform="translate(-25.000000, -10.000000)"><rect fill="none" x="0" y="0" width="1280" height="768"></rect><g id="Group-4" transform="translate(25.000000, 10.000000)" fill="#FFF" fill-rule="nonzero"><g id="logotype"><polygon id="Shape" points="32.4341845 0.954545455 32.4341845 3.65510902 25.4707148 3.65510902 25.4707148 6.68426274 31.6293793 6.68426274 31.6293793 9.38247082 25.4707148 9.38247082 25.4707148 12.4446013 32.7068182 12.4446013 32.7068182 15.1534091 22.6431818 15.1534091 22.6431818 0.954545455"></polygon><polygon id="Shape" points="46.9636364 0.954545455 40.6790056 15.1534091 34.3840909 0.954545455 37.641815 0.954545455 40.7864157 8.60225954 43.7436201 0.954545455"></polygon><polygon id="Shape" points="59.2635703 0.954545455 59.2635703 3.65510902 52.3113561 3.65510902 52.3113561 6.68426274 58.4711392 6.68426274 58.4711392 9.38247082 52.3113561 9.38247082 52.3113561 12.4446013 59.5431818 12.4446013 59.5431818 15.1534091 49.4795455 15.1534091 49.4795455 0.954545455"></polygon><path d="M74.7547533,4.54492742 C75.3587082,3.49898932 76.2170247,2.62099088 77.2508077,1.99163611 C78.3497952,1.31653855 79.6150588,0.957616113 80.9063645,0.954649564 C82.1583548,0.947751452 83.3881444,1.28377048 84.4612459,1.92596029 C85.5436096,2.56303024 86.4449169,3.46442385 87.0799622,4.54492742 C87.7232047,5.61082523 88.0609781,6.83177686 88.0566289,8.07529049 C88.0659907,9.32526856 87.7279758,10.5534734 87.0799622,11.6240889 C86.4437486,12.6913576 85.5433307,13.5783791 84.4647174,14.2004243 C83.3875897,14.8310778 82.1593657,15.1602996 80.909836,15.1532998 C79.1709683,15.1532998 77.6157076,14.5748917 76.2440542,13.4180756 C75.9916908,13.2050141 75.7575209,12.9714667 75.5439555,12.719838 C74.3813673,11.3556246 73.8000732,9.80744209 73.8000732,8.07529049 C73.7943514,6.83452203 74.1241104,5.61508841 74.7547533,4.54492742 Z M77.2184064,10.3059638 C77.5917321,10.9718619 78.1345051,11.5281939 78.7921821,11.9190539 C79.4593294,12.3164124 80.223904,12.5221863 81.0012539,12.5135929 C81.7583661,12.5209449 82.5019942,12.3139608 83.1455232,11.9167495 C83.7848871,11.5251227 84.3080891,10.9711659 84.6614394,10.3117248 C85.0321378,9.62466115 85.2216603,8.85516602 85.2122609,8.07529049 C85.2221823,7.28391997 85.0260315,6.50348776 84.6429244,5.810051 C84.2790972,5.14666455 83.7462967,4.5903273 83.0980785,4.19696082 C81.7603305,3.40417983 80.0940572,3.40417983 78.7563092,4.19696082 C78.108366,4.59066702 77.5756443,5.14692192 77.2114633,5.810051 C76.8292522,6.50378889 76.6335346,7.2840835 76.643284,8.07529049 C76.6358488,8.85502766 76.8341688,9.62304083 77.2184064,10.3025071 L77.2184064,10.3059638 Z" id="Shape"></path><path d="M62.8977273,15.1534091 L65.4760591,15.1534091 L65.4760591,3.65510989 L67.3216019,3.65510989 C68.1039673,3.65510989 68.6315755,3.89065837 68.9044263,4.36175534 C69.1685408,4.80086854 69.3106179,5.31315024 69.3137026,5.83746659 C69.3107079,6.3612421 69.1420903,6.86803346 68.8360327,7.27313459 C68.5161386,7.7167509 68.0062621,7.93855906 67.3064034,7.93855906 L67.1815578,7.93855906 L67.1815578,10.6403002 L67.1989276,10.6403002 L69.9585569,15.1534091 L72.9613636,15.1534091 L69.9216461,10.0031415 C70.5992611,9.59239632 71.1430709,8.96417593 71.4784157,8.20472884 C71.8178276,7.43513503 71.9908532,6.59165227 71.9843116,5.73853622 C71.9843116,4.26007691 71.536677,3.09293418 70.6414078,2.23710802 C69.7461386,1.38128187 68.486827,0.953761372 66.8634731,0.954546534 L62.8977273,0.954545455 L62.8977273,15.1534091 Z" id="Shape"></path><polyline id="Shape" points="88.0568182 15.1534091 90.7340709 15.1534091 94.1963311 6.8934083 96.7524618 12.550814 93.1599384 12.550814 93.1599384 15.1534091 97.4917629 15.1534091 97.9282591 15.1534091 98.1419366 15.1534091 100.636364 15.1534091 94.1620513 0.954545455"></polyline><path d="M11.3215909,-7.81534091 L11.3215909,12.2301136 L8.80568182,12.2301136 L8.80568182,-5.05919362 C8.80568182,-6.58137174 9.93209269,-7.81534091 11.3215909,-7.81534091 Z" id="Shape" transform="translate(10.063636, 2.207386) rotate(-90.000000) translate(-10.063636, -2.207386) "></path><path d="M14.2568182,0.954545455 L14.2568182,15.1534091 L11.7409091,15.1534091 L11.7409091,3.5796113 C11.7426828,2.1292844 12.8685743,0.954544271 14.2568182,0.954545455 Z" id="Shape" transform="translate(12.998864, 8.053977) rotate(-90.000000) translate(-12.998864, -8.053977) "></path><path d="M16.3534091,8.88920455 L16.3534091,18.9119318 L13.8375,18.9119318 L13.8375,11.8220764 C13.8375,10.202296 14.9639109,8.88920455 16.3534091,8.88920455 Z" id="Shape" transform="translate(15.095455, 13.900568) rotate(-90.000000) translate(-15.095455, -13.900568) "></path><path d="M106.238044,0.954545455 L103.676342,0.954545455 L103.676342,15.230774 L106.444347,15.230774 L106.444347,3.73376812 C107.114751,3.68807914 107.787467,3.68807914 108.457871,3.73376812 C112.044017,4.38742423 114.651695,7.2779579 114.651695,10.9405637 C114.650831,14.9204454 111.469401,18.162535 107.507695,18.2207771 L15.0954545,18.2207771 C15.0954545,18.958078 15.3871204,19.6651637 15.906256,20.1864031 C16.4253916,20.7076425 17.1294477,21.0003139 17.8634599,20.9999997 L107.506516,20.9999997 C112.992216,20.9415836 117.408753,16.4582554 117.409091,10.9476686 C117.409091,5.82380987 113.44924,1.47439153 108.657101,0.96993953" id="Shape"></path></g></g></g></g></svg>