<?xml version="1.0" encoding="utf-8"?>
<!-- Generator: Adobe Illustrator 22.1.0, SVG Export Plug-In . SVG Version: 6.00 Build 0)  -->
<svg version="1.1" id="Calque_1" xmlns="http://www.w3.org/2000/svg" xmlns:xlink="http://www.w3.org/1999/xlink" x="0px" y="0px"
	 viewBox="0 0 587 500" style="enable-background:new 0 0 587 500;" xml:space="preserve">
<style type="text/css">
	.st0{filter:url(#Adobe_OpacityMaskFilter);}
	.st1{fill:#FFFFFF;}
	.st2{mask:url(#mask-2_1_);}
	.st3{fill:#2E3B4C;}
	.st4{fill:none;stroke:#FFFFFF;stroke-width:0.5;stroke-linecap:round;stroke-linejoin:round;}
	.st5{fill:#20B0F6;}
	.st6{fill:none;stroke:#FFFFFF;stroke-width:0.5;}
	.st7{fill:#A7AFBC;}
	.st8{fill:#2E3B4C;stroke:#FFFFFF;stroke-width:0.5;stroke-linecap:round;stroke-linejoin:round;}
	.st9{fill:#FFB732;}
</style>
<title>Page 1</title>
<desc>Created with Sketch.</desc>
<g id="HOMEPAGES-">
	<g id="Carrier-_x2F_-Contenu" transform="translate(-693.000000, -1472.000000)">
		<g id="Map" transform="translate(0.000000, 1472.000000)">
			<g id="Page-1" transform="translate(643.000000, 0.000000)">
				<g id="Mask">
				</g>
				<defs>
					<filter id="Adobe_OpacityMaskFilter" filterUnits="userSpaceOnUse" x="50.1" y="-253.8" width="778.8" height="767.5">
						<feColorMatrix  type="matrix" values="1 0 0 0 0  0 1 0 0 0  0 0 1 0 0  0 0 0 1 0"/>
					</filter>
				</defs>
				<mask maskUnits="userSpaceOnUse" x="50.1" y="-253.8" width="778.8" height="767.5" id="mask-2_1_">
					<g class="st0">
						<rect id="path-1_1_" y="0" class="st1" width="637" height="500"/>
					</g>
				</mask>
				<g class="st2">
					<g transform="translate(50.000000, -254.000000)">
						<polygon id="Fill-13" class="st3" points="619.1,706.8 615.1,706.8 608.4,708.4 597.6,715 587.9,715.7 579.8,712 572.1,715 
							564.9,715 562.4,712 559.9,714.1 561,720.1 559.1,722.9 556.6,726.6 554.4,729.4 550,725.7 548.7,735 551.2,737.4 
							550.2,743.9 551.9,748.8 559.1,747.6 561,751.1 561,756.7 555,762.4 555.1,767 591.7,767 604.5,757.6 613.3,750.3 
							616.5,740.2 617.5,730.2 615.8,723.7 616.5,716.4 623.5,714.1 626.6,708.4 623.5,704.8 						"/>
						<polygon id="Stroke-14" class="st4" points="591.7,767 555.1,767 555,762.4 561,756.7 561,751.1 559.1,747.6 551.9,748.8 
							550.2,743.9 551.2,737.4 548.7,735 550,725.7 554.4,729.4 556.6,726.6 559.1,722.9 561,720.1 559.9,714.1 562.4,712 
							564.9,715 572.1,715 579.8,712 587.9,715.7 597.6,715 608.4,708.4 615.1,706.8 619.1,706.8 623.5,704.8 626.6,708.4 
							623.5,714.1 616.5,716.4 615.8,723.7 617.5,730.2 616.5,740.2 613.3,750.3 604.5,757.6 						"/>
						<polygon id="Fill-16" class="st3" points="552,748.8 549.6,754 546.2,762.5 544.4,767.1 555.1,766.9 555,762.5 561,756.7 
							561,751.1 559.1,747.6 						"/>
						<polygon id="Stroke-17" class="st4" points="555.1,766.9 544.4,767.1 546.2,762.4 549.6,754 552,748.8 559.1,747.6 561,751.1 
							561,756.7 555,762.4 						"/>
						<polygon id="Fill-19" class="st3" points="226.9,711.1 223.7,714.7 223,718.3 218.4,721.2 219.7,722.9 219.7,734.9 
							219.7,747.5 209.9,759.7 212.1,767.4 247.9,767.1 241.8,764.1 240.3,757.4 247.6,750.2 250.8,742.2 250.1,734.9 244.2,728.5 
							247.6,721.2 250.8,714.7 249.2,712.7 242.5,716.3 239.2,710.2 235.2,707.5 						"/>
						<polygon id="Stroke-20" class="st4" points="223.7,714.7 223,718.3 218.4,721.2 219.7,722.9 219.7,734.9 219.7,747.5 
							209.9,759.7 212.1,767.4 247.9,767.1 241.8,764.1 240.3,757.4 247.6,750.2 250.8,742.2 250.1,734.9 244.2,728.5 247.6,721.2 
							250.8,714.7 249.2,712.7 242.5,716.3 239.2,710.2 235.2,707.5 226.9,711.1 						"/>
						<polygon id="Fill-22" class="st3" points="187.7,716.4 182.5,719.2 178.5,719.2 172.1,715 163.1,715 158.2,716.4 150,719.2 
							137.7,721.4 125.3,724.9 116.9,732.2 113.6,733 107.2,735.8 101.7,739.5 96.6,743.1 92.6,743.9 95.9,749.5 98.1,756.7 
							97.4,764.1 98,767.1 211.7,766.9 209.8,759.7 219.6,747.6 219.6,735 219.6,722.9 218.2,721.4 222.9,718.5 223.7,715 
							213,716.4 204.1,712.8 203.3,715 197.5,714.1 194.3,712 						"/>
						<polygon id="Stroke-23" class="st4" points="92.6,743.9 95.9,749.5 98.1,756.7 97.4,764.1 98,767.1 211.7,766.9 209.8,759.7 
							219.6,747.6 219.6,735 219.6,722.9 218.2,721.4 222.9,718.5 223.7,715 213,716.4 204.1,712.8 203.3,715 197.5,714.1 
							194.3,712 187.7,716.4 182.5,719.2 178.5,719.2 172.1,715 163.1,715 158.2,716.4 150,719.2 137.7,721.4 125.3,724.9 
							116.9,732.2 113.6,733 107.2,735.8 101.7,739.5 96.6,743.1 						"/>
						<polygon id="Fill-25" class="st3" points="45.1,733.8 39.3,747.6 34.3,759.7 24.7,767 98.1,767.1 97.4,764.1 98,756.7 
							96,749.5 92.5,743.9 83.7,743.1 81.1,739.5 77.2,742.4 71.4,742.4 59,742.4 51.8,733 						"/>
						<polygon id="Stroke-26" class="st4" points="92.5,743.9 96,749.5 98,756.7 97.4,764.1 98.1,767.1 24.7,767 34.3,759.7 
							39.3,747.6 45.1,733.8 51.8,733 59,742.4 71.4,742.4 77.2,742.4 81.1,739.5 83.7,743.1 						"/>
						<polygon id="Fill-28" class="st3" points="336.7,620.4 338.2,618.1 336.7,617.1 335.5,615.3 337.6,607.1 339.9,603.8 
							339.6,602.8 340.9,601.5 340.7,599.9 341.9,599 342.6,595.9 341.9,594.5 340.9,592.8 339.6,591.4 338.9,589.3 337.6,587.1 
							338.4,584.1 340.4,582.1 340.9,579.5 340.8,578.5 339.3,578.2 337.5,578.5 336.2,578.3 335.6,576.8 335.7,575.4 338.6,572.8 
							340.7,572.5 337.6,570.8 337.3,568.9 338,566.8 337.4,561 345.9,560.3 349,557.5 356.6,557.5 360.4,564 360.4,568.4 
							369.7,573.6 369.7,578.4 369,582.1 373.6,583.8 377.6,586.5 380.1,582.9 382.7,584.8 381.3,587.3 384.5,591.1 382.7,601.2 
							386,606.8 389.2,609.6 386,613.3 382.7,614 383.5,618.5 386,619.7 385.1,621.4 382.7,623.3 381.3,622.7 377.8,622.7 
							376.4,624 373.4,624.1 370.8,625.2 368.5,623.8 365.3,624.1 362.4,626 353.2,618.5 349,623.4 344.4,630.6 						"/>
						<polygon id="Stroke-29" class="st4" points="336.7,620.4 338.2,618.1 336.7,617.1 335.5,615.3 337.6,607.1 339.9,603.8 
							339.6,602.8 340.9,601.5 340.7,599.9 341.9,599 342.6,595.9 341.9,594.5 340.9,592.8 339.6,591.4 338.9,589.3 337.6,587.1 
							338.4,584.1 340.4,582.1 340.9,579.5 340.8,578.5 339.3,578.2 337.5,578.5 336.2,578.3 335.6,576.8 335.7,575.4 338.6,572.8 
							340.7,572.5 337.6,570.8 337.3,568.9 338,566.8 337.4,561 345.9,560.3 349,557.5 356.6,557.5 360.4,564 360.4,568.4 
							369.7,573.6 369.7,578.4 369,582.1 373.6,583.8 377.6,586.5 380.1,582.9 382.7,584.8 381.3,587.3 384.5,591.1 382.7,601.2 
							386,606.8 389.2,609.6 386,613.3 382.7,614 383.5,618.5 386,619.7 385.1,621.4 382.7,623.3 381.3,622.7 377.8,622.7 
							376.4,624 373.4,624.1 370.8,625.2 368.5,623.8 365.3,624.1 362.4,626 353.2,618.5 349,623.4 344.4,630.6 						"/>
						<polygon id="Fill-30" class="st5" points="283.3,567.5 285.9,566.4 288.9,564.8 290.8,566.2 293.1,566.6 294.3,565.2 
							294.4,564 293.9,563 298.2,561.8 298.6,558.4 299.5,557.2 301.1,557.4 305.6,555.8 306.1,553.7 308.6,553.3 312.3,554.2 
							313.9,556.5 315.7,558.3 322.2,564 332.8,565.5 333.5,564 337.3,561 338,566.8 337.3,568.9 337.6,570.8 340.7,572.5 
							338.6,572.8 335.7,575.4 335.5,576.8 329.4,573.6 322.3,572.2 319.2,572.1 318.6,572.9 315.5,572.9 312.2,571.4 309.9,571.3 
							307.2,574.3 304.9,574.5 300.6,572 301.1,573 300.8,574.1 302.6,583.2 305.1,585.1 308.7,596.3 312.3,597.8 311.8,598.4 
							316.8,602.1 318.7,604.8 322.9,607.6 324.7,609.9 336.5,620.4 329.4,617.7 320.3,614 320.3,612 324.7,614 316.4,606.8 
							309.9,604 305.8,606.8 295,593.1 300.1,592.3 291.8,583.8 291.1,579.3 283.4,573.6 280.1,582.1 276.2,570 278,568.4 
							282.1,571.3 						"/>
						<polygon id="Stroke-31" class="st6" points="283.3,567.5 285.9,566.4 288.9,564.8 290.8,566.2 293.1,566.6 294.3,565.2 
							294.4,564 293.9,563 298.2,561.8 298.6,558.4 299.5,557.2 301.1,557.4 305.6,555.8 306.1,553.7 308.6,553.3 312.3,554.2 
							313.9,556.5 315.7,558.3 322.2,564 332.8,565.5 333.5,564 337.3,561 338,566.8 337.3,568.9 337.6,570.8 340.7,572.5 
							338.6,572.8 335.7,575.4 335.5,576.8 329.4,573.6 322.3,572.2 319.2,572.1 318.6,572.9 315.5,572.9 312.2,571.4 309.9,571.3 
							307.2,574.3 304.9,574.5 300.6,572 301.1,573 300.8,574.1 302.6,583.2 305.1,585.1 308.7,596.3 312.3,597.8 311.8,598.4 
							316.8,602.1 318.7,604.8 322.9,607.6 324.7,609.9 336.5,620.4 329.4,617.7 320.3,614 320.3,612 324.7,614 316.4,606.8 
							309.9,604 305.8,606.8 295,593.1 300.1,592.3 291.8,583.8 291.1,579.3 283.4,573.6 280.1,582.1 276.2,570 278,568.4 
							282.1,571.3 						"/>
						<polygon id="Fill-32" class="st5" points="313.9,556.5 313.9,552.6 309.9,549 309.9,544.5 304.8,546.4 304.8,549 300.7,549 
							290.4,552.6 278.8,551.9 276.2,555.5 281.3,564 283.4,567.5 285.9,566.4 288.9,564.8 290.8,566.2 293.1,566.6 294.3,565.2 
							294.4,564 293.9,563 298.2,561.8 298.6,558.4 299.5,557.2 301.1,557.4 305.6,555.8 306.1,553.7 308.6,553.3 312.3,554.2 
													"/>
						<polygon id="Stroke-33" class="st6" points="313.9,556.5 313.9,552.6 309.9,549 309.9,544.5 304.8,546.4 304.8,549 300.7,549 
							290.4,552.6 278.8,551.9 276.2,555.5 281.3,564 283.4,567.5 285.9,566.4 288.9,564.8 290.8,566.2 293.1,566.6 294.3,565.2 
							294.4,564 293.9,563 298.2,561.8 298.6,558.4 299.5,557.2 301.1,557.4 305.6,555.8 306.1,553.7 308.6,553.3 312.3,554.2 
													"/>
						<polygon id="Fill-34" class="st5" points="338,498.2 332.8,492.4 332.8,488.6 321.1,485.8 321.1,483.1 317.7,481.4 
							313.9,483.1 309.9,485.1 305.8,480.6 306.7,479.4 306.7,475.8 302.3,475.8 295.7,473.3 295.7,471.4 291.8,471.4 289.3,471.4 
							283.4,469.8 281.3,473.3 261.4,484.2 259.1,481.4 258,483.1 259.9,487.9 263.1,490.8 263.8,496 270.3,502.4 273.5,504.2 
							278,509 278,513.4 283.4,514.2 289.3,514.2 294.4,506.9 300.7,510.7 314,513.4 318.8,510.4 323.5,512.3 331.9,502.4 
							335.1,502.7 						"/>
						<polygon id="Stroke-35" class="st6" points="338,498.2 332.8,492.4 332.8,488.6 321.1,485.8 321.1,483.1 317.7,481.4 
							313.9,483.1 309.9,485.1 305.8,480.6 306.7,479.4 306.7,475.8 302.3,475.8 295.7,473.3 295.7,471.4 291.8,471.4 289.3,471.4 
							283.4,469.8 281.3,473.3 261.4,484.2 259.1,481.4 258,483.1 259.9,487.9 263.1,490.8 263.8,496 270.3,502.4 273.5,504.2 
							278,509 278,513.4 283.4,514.2 289.3,514.2 294.4,506.9 300.7,510.7 314,513.4 318.8,510.4 323.5,512.3 331.9,502.4 
							335.1,502.7 						"/>
						<polygon id="Fill-36" class="st3" points="419,69.1 414.5,69.1 402.2,83.7 404.1,75.3 407.3,70.8 403.4,66.3 395,62.6 
							392.5,59.8 386.7,63.4 384.5,64.3 378.7,64.3 373.6,70.8 374.3,80.1 373.6,86.6 370.3,87.4 369.7,91.8 366.4,92.6 361.3,90.2 
							358.2,88.2 355.6,88.9 351.5,91 343.6,91 335.2,80.9 329.4,78 328,78.9 328.6,83.7 325.4,82.5 325.4,85.3 319.7,84.5 
							320.3,91 319.7,95.5 321.1,97.4 318.9,99 309.9,96.3 304.1,94.6 300.1,97.4 301.6,103.5 300.1,108.4 293.6,105.4 288.5,109.1 
							288.5,112.8 285.3,117.2 283.4,117.2 287.8,126.6 283.4,129.5 278,139.5 278.8,143.9 269.6,150.4 270.3,165 268.9,176 
							263.1,186 267.2,188.8 268.2,193.2 267.2,199.7 259.9,196.9 254.1,198.9 247.6,207.9 246.7,215.6 249.2,221.7 247.6,226.4 
							250.1,236.5 250.8,251.9 254.1,254.9 258,260.1 256.6,265.7 251.6,267.3 256.6,279.4 255.9,284.7 253.4,292.5 250.1,291.2 
							249.2,293.2 249.2,296.1 247.6,298.4 246.7,313.4 240.3,309.7 235.2,304.1 234.4,296.1 234.4,293.2 231.8,294.9 232.6,300.6 
							231.2,301.4 232.6,306.1 226.9,312.2 222.9,308.5 222,309.7 223.6,314.2 215.6,323.5 207.9,330.7 197.5,333.3 187.7,327.9 
							179.2,318.6 179.2,313.4 185.9,315.8 184.3,310.5 186.9,302.1 182.5,302.1 180.5,306.1 177.1,309.7 174.6,305 178.5,297.7 
							181.8,298.4 184.3,294.9 181.1,294.9 185.9,289.5 191.6,282.2 184.3,283.8 181.8,290.4 179.2,284.7 177.1,288.6 175.4,282.2 
							174.6,275 173.9,268.5 187.7,268.5 196.7,267.3 200.1,265.7 198.2,262.9 196.7,265.7 192.6,265.7 187.7,265.7 177.1,266.5 
							172.8,263.7 173.9,261.3 177.1,259.3 172,254.9 177.1,251.9 185.1,252.8 187.7,251.9 180.5,247.5 174.6,248.4 172.8,244.6 
							178.5,244.6 183.6,242.6 191.6,240.2 192.6,242.6 196,241.8 193.5,238.2 191.6,236.5 182.5,236.5 184.3,234.5 192.6,232.9 
							196,234.5 201.3,230 193.5,230 192.6,225.2 200.1,228.1 206.5,230.8 203.3,225.2 204.7,224.4 210.5,228.9 209,223.6 
							207.2,221.7 209.8,220.8 209,217.2 221.3,210.7 223.6,216.4 231.8,212.8 237.7,206.3 237,203.3 238.4,201.8 237.7,200.6 
							232.6,204.3 233.7,206.3 224.6,213.6 219.6,207.1 225.4,203.3 224.6,199.7 233.7,188.8 237.7,191.7 240.3,188 237.7,186 
							241.8,177.9 245,174.3 248.3,176 251.6,171.5 247.6,171.5 245.7,168.7 244.1,170.7 245,164.2 248.3,165.8 249.2,165 
							247.6,162.2 250.1,154.9 254.1,156.8 250.8,150.4 263.1,146.7 263.1,143.9 251.6,146.7 251.6,139.5 257.3,132.2 261.4,126.6 
							274.7,125.7 275.4,123.7 263.8,123 269.6,118.5 273.5,119.3 276.2,121 276.2,118.5 273.5,115.6 276.2,113.6 274.7,112.8 
							269.6,115.6 268.2,112.8 274.7,111.1 278,109.9 278,108.4 281.3,108.4 282.7,112 284.7,109.1 282.1,107.6 283.4,101 
							288.5,101 293.6,99.9 293.6,98.2 290.4,99 284.7,99 285.9,95.5 288.5,95.5 294.4,91 293.6,87.4 297.6,85.3 297.6,83.7 
							294.4,83.7 288.5,87.4 285.9,83.7 290.4,78 302.3,77.3 307.4,81.7 309.9,81.7 309.9,78.9 306.7,78 304.1,73.5 310.5,70 
							312.4,76.5 313.9,71.5 315.7,67.8 317.1,78 318.9,78 321.1,75.3 319.7,70.8 323.6,69.1 326.2,66.3 334.6,70.8 333.5,64.3 
							330.2,63.4 325.4,58.9 331.2,57.8 341,58.9 344.4,61.4 349,55.4 347.6,47.7 352.2,52.5 355.6,50.6 352.2,46.8 355.6,43.3 
							362.3,43.3 367.1,43.3 362.3,50.6 361.3,57 363.9,60.6 365.5,55.4 374.3,42.4 374.3,47.7 376.2,52.5 379.4,51.7 380.1,46.8 
							383.5,44.1 379.4,41.7 381.3,38.1 389.2,36.9 393.3,39.6 391.8,43.3 387.7,45.3 391.8,46.8 387.7,50.6 393.3,50.6 396.4,41.7 
							400.2,42.4 402.2,46.1 404.1,43.3 410.7,46.8 408.7,49 413.1,47.7 419,53.4 411.3,58.9 396.4,57.8 405.6,60.6 409.9,66.3 
							412,63.4 415.4,64.3 422.2,65 423.1,69.1 						"/>
						<polygon id="Stroke-37" class="st4" points="419,69.1 414.5,69.1 402.2,83.7 404.1,75.3 407.3,70.8 403.4,66.3 395,62.6 
							392.5,59.8 386.7,63.4 384.5,64.3 378.7,64.3 373.6,70.8 374.3,80.1 373.6,86.6 370.3,87.4 369.7,91.8 366.4,92.6 361.3,90.2 
							358.2,88.2 355.6,88.9 351.5,91 343.6,91 335.2,80.9 329.4,78 328,78.9 328.6,83.7 325.4,82.5 325.4,85.3 319.7,84.5 
							320.3,91 319.7,95.5 321.1,97.4 318.9,99 309.9,96.3 304.1,94.6 300.1,97.4 301.6,103.5 300.1,108.4 293.6,105.4 288.5,109.1 
							288.5,112.8 285.3,117.2 283.4,117.2 287.8,126.6 283.4,129.5 278,139.5 278.8,143.9 269.6,150.4 270.3,165 268.9,176 
							263.1,186 267.2,188.8 268.2,193.2 267.2,199.7 259.9,196.9 254.1,198.9 247.6,207.9 246.7,215.6 249.2,221.7 247.6,226.4 
							250.1,236.5 250.8,251.9 254.1,254.9 258,260.1 256.6,265.7 251.6,267.3 256.6,279.4 255.9,284.7 253.4,292.5 250.1,291.2 
							249.2,293.2 249.2,296.1 247.6,298.4 246.7,313.4 240.3,309.7 235.2,304.1 234.4,296.1 234.4,293.2 231.8,294.9 232.6,300.6 
							231.2,301.4 232.6,306.1 226.9,312.2 222.9,308.5 222,309.7 223.6,314.2 215.6,323.5 207.9,330.7 197.5,333.3 187.7,327.9 
							179.2,318.6 179.2,313.4 185.9,315.8 184.3,310.5 186.9,302.1 182.5,302.1 180.5,306.1 177.1,309.7 174.6,305 178.5,297.7 
							181.8,298.4 184.3,294.9 181.1,294.9 185.9,289.5 191.6,282.2 184.3,283.8 181.8,290.4 179.2,284.7 177.1,288.6 175.4,282.2 
							174.6,275 173.9,268.5 187.7,268.5 196.7,267.3 200.1,265.7 198.2,262.9 196.7,265.7 192.6,265.7 187.7,265.7 177.1,266.5 
							172.8,263.7 173.9,261.3 177.1,259.3 172,254.9 177.1,251.9 185.1,252.8 187.7,251.9 180.5,247.5 174.6,248.4 172.8,244.6 
							178.5,244.6 183.6,242.6 191.6,240.2 192.6,242.6 196,241.8 193.5,238.2 191.6,236.5 182.5,236.5 184.3,234.5 192.6,232.9 
							196,234.5 201.3,230 193.5,230 192.6,225.2 200.1,228.1 206.5,230.8 203.3,225.2 204.7,224.4 210.5,228.9 209,223.6 
							207.2,221.7 209.8,220.8 209,217.2 221.3,210.7 223.6,216.4 231.8,212.8 237.7,206.3 237,203.3 238.4,201.8 237.7,200.6 
							232.6,204.3 233.7,206.3 224.6,213.6 219.6,207.1 225.4,203.3 224.6,199.7 233.7,188.8 237.7,191.7 240.3,188 237.7,186 
							241.8,177.9 245,174.3 248.3,176 251.6,171.5 247.6,171.5 245.7,168.7 244.1,170.7 245,164.2 248.3,165.8 249.2,165 
							247.6,162.2 250.1,154.9 254.1,156.8 250.8,150.4 263.1,146.7 263.1,143.9 251.6,146.7 251.6,139.5 257.3,132.2 261.4,126.6 
							274.7,125.7 275.4,123.7 263.8,123 269.6,118.5 273.5,119.3 276.2,121 276.2,118.5 273.5,115.6 276.2,113.6 274.7,112.8 
							269.6,115.6 268.2,112.8 274.7,111.1 278,109.9 278,108.4 281.3,108.4 282.7,112 284.7,109.1 282.1,107.6 283.4,101 
							288.5,101 293.6,99.9 293.6,98.2 290.4,99 284.7,99 285.9,95.5 288.5,95.5 294.4,91 293.6,87.4 297.6,85.3 297.6,83.7 
							294.4,83.7 288.5,87.4 285.9,83.7 290.4,78 302.3,77.3 307.4,81.7 309.9,81.7 309.9,78.9 306.7,78 304.1,73.5 310.5,70 
							312.4,76.5 313.9,71.5 315.7,67.8 317.1,78 318.9,78 321.1,75.3 319.7,70.8 323.6,69.1 326.2,66.3 334.6,70.8 333.5,64.3 
							330.2,63.4 325.4,58.9 331.2,57.8 341,58.9 344.4,61.4 349,55.4 347.6,47.7 352.2,52.5 355.6,50.6 352.2,46.8 355.6,43.3 
							362.3,43.3 367.1,43.3 362.3,50.6 361.3,57 363.9,60.6 365.5,55.4 374.3,42.4 374.3,47.7 376.2,52.5 379.4,51.7 380.1,46.8 
							383.5,44.1 379.4,41.7 381.3,38.1 389.2,36.9 393.3,39.6 391.8,43.3 387.7,45.3 391.8,46.8 387.7,50.6 393.3,50.6 396.4,41.7 
							400.2,42.4 402.2,46.1 404.1,43.3 410.7,46.8 408.7,49 413.1,47.7 419,53.4 411.3,58.9 396.4,57.8 405.6,60.6 409.9,66.3 
							412,63.4 415.4,64.3 422.2,65 423.1,69.1 						"/>
						<polygon id="Fill-40" class="st3" points="344.5,630.6 349.1,623.4 353.3,618.5 362.4,625.8 362.4,630.6 362.4,633.6 
							361.4,638.8 364.6,645.2 368,651.6 361.4,665.4 358.3,670.6 356.7,667.9 353.3,661.8 347,657 348.4,656.1 348.4,649.7 
							350.8,646.9 348.4,645.2 349.1,635.2 						"/>
						<polygon id="Stroke-41" class="st4" points="344.5,630.6 349.1,623.4 353.3,618.5 362.4,625.8 362.4,630.6 362.4,633.6 
							361.4,638.8 364.6,645.2 368,651.6 361.4,665.4 358.3,670.6 356.7,667.9 353.3,661.8 347,657 348.4,656.1 348.4,649.7 
							350.8,646.9 348.4,645.2 349.1,635.2 						"/>
						<polygon id="Fill-42" class="st5" points="149.9,469.8 156.4,464.9 158.9,464.9 161.5,466.9 164.7,465.7 168.8,463.4 
							173.9,463.4 178.5,465.7 186.9,466.9 183.6,474.2 190.2,475 191,477 192.6,483.1 187.7,486.6 185.9,489.5 186.9,496.8 
							184.3,496.8 177.1,494.3 174.6,486.6 172,490.8 162.2,482.2 158.9,479.4 158.2,474.2 154.9,475 149.9,474.2 						"/>
						<polygon id="Stroke-43" class="st6" points="149.9,469.8 156.4,464.9 158.9,464.9 161.5,466.9 164.7,465.7 168.8,463.4 
							173.9,463.4 178.5,465.7 186.9,466.9 183.6,474.2 190.2,475 191,477 192.6,483.1 187.7,486.6 185.9,489.5 186.9,496.8 
							184.3,496.8 177.1,494.3 174.6,486.6 172,490.8 162.2,482.2 158.9,479.4 158.2,474.2 154.9,475 149.9,474.2 						"/>
						<polygon id="Fill-44" class="st5" points="384.6,591.1 387.8,594 386.1,596 386.8,598.7 391.9,597.6 401,600.4 403.4,599.5 
							408.7,600.4 415.4,601.2 419.6,600.4 423.1,596 435.3,591.1 437.8,594 445.9,594.7 448.5,597.6 452.4,597.6 452.4,604 
							448.5,606 445.2,609.6 445.9,617 443.4,620.5 448.5,628.6 444.3,629.4 441.1,625.8 430.3,631.3 428.8,631.3 428.8,638.8 
							420.5,640.8 416.4,638 411.3,638.8 408.1,635.2 390,639.6 390,631.3 382.8,623.4 385.2,621.4 386.1,619.7 383.6,618.5 
							382.8,614 386.1,613.3 389.3,609.6 386.1,606.8 382.8,601.2 						"/>
						<polygon id="Stroke-45" class="st6" points="384.6,591.1 387.8,594 386.1,596 386.8,598.7 391.9,597.6 401,600.4 403.4,599.5 
							408.7,600.4 415.4,601.2 419.6,600.4 423.1,596 435.3,591.1 437.8,594 445.9,594.7 448.5,597.6 452.4,597.6 452.4,604 
							448.5,606 445.2,609.6 445.9,617 443.4,620.5 448.5,628.6 444.3,629.4 441.1,625.8 430.3,631.3 428.8,631.3 428.8,638.8 
							420.5,640.8 416.4,638 411.3,638.8 408.1,635.2 390,639.6 390,631.3 382.8,623.4 385.2,621.4 386.1,619.7 383.6,618.5 
							382.8,614 386.1,613.3 389.3,609.6 386.1,606.8 382.8,601.2 						"/>
						<polygon id="Fill-46" class="st3" points="213.7,395.4 213.7,384.6 210.5,382.9 207.9,383.7 207.9,371.6 209,362.7 
							213.7,364.4 217.1,357.9 221.3,361.9 220.3,355.4 231.2,354.2 234.4,363.6 239.2,364.4 237.7,370.8 233.7,370 231.8,372.8 
							231.8,377.2 229.4,381.6 226.1,383.7 225.4,391 226.1,396.7 221.3,396.7 						"/>
						<polygon id="Stroke-47" class="st4" points="213.7,395.4 213.7,384.6 210.5,382.9 207.9,383.7 207.9,371.6 209,362.7 
							213.7,364.4 217.1,357.9 221.3,361.9 220.3,355.4 231.2,354.2 234.4,363.6 239.2,364.4 237.7,370.8 233.7,370 231.8,372.8 
							231.8,377.2 229.4,381.6 226.1,383.7 225.4,391 226.1,396.7 221.3,396.7 						"/>
						<polygon id="Fill-48" class="st7" points="238.4,391.8 233.7,391.8 229.4,389 228,385.4 234.4,383.7 235.9,384.6 						"/>
						<polygon id="Stroke-49" class="st8" points="238.4,391.8 233.7,391.8 229.4,389 228,385.4 234.4,383.7 235.9,384.6 						"/>
						<polygon id="Fill-50" class="st7" points="246.7,401.1 241.8,399 243.5,395.4 245.7,396.7 249.2,397.4 249.2,400.3 						"/>
						<polygon id="Stroke-51" class="st8" points="246.7,401.1 241.8,399 243.5,395.4 245.7,396.7 249.2,397.4 249.2,400.3 						
							"/>
						<polygon id="Fill-52" class="st7" points="253.4,394.5 251.6,394.5 249.2,390.2 241.8,380.2 244.1,379.3 247.6,375.3 
							248.3,380.2 251.6,377.2 250.8,376.5 253.4,372.8 257.3,373.6 258,381.6 254.8,384.6 257.3,387.3 253.4,390.2 						"/>
						<polygon id="Stroke-53" class="st8" points="253.4,394.5 251.6,394.5 249.2,390.2 241.8,380.2 244.1,379.3 247.6,375.3 
							248.3,380.2 251.6,377.2 250.8,376.5 253.4,372.8 257.3,373.6 258,381.6 254.8,384.6 257.3,387.3 253.4,390.2 						"/>
						<polygon id="Fill-56" class="st7" points="285.3,394.5 282.7,391.8 282.7,388.1 287.1,391.8 						"/>
						<polygon id="Stroke-57" class="st8" points="285.3,394.5 282.7,391.8 282.7,388.1 287.1,391.8 						"/>
						<polygon id="Fill-58" class="st5" points="213.7,395.4 221.3,396.7 226.1,396.7 230.6,399 230.6,403.9 229.4,405.6 
							233.7,408.3 237.7,408.3 242.5,407.5 240.3,414.7 246.7,414.7 250.1,411.1 258,403.9 261.4,406.4 270.3,412 273.5,416.4 
							279.6,420.1 280.1,421.3 281.3,429.4 278,433.8 278.8,437.5 283.4,442.3 282.7,446 284.7,451.2 287.1,451.2 285.9,454.8 
							289.3,463.4 291.1,465.7 289.3,471.4 283.4,469.8 281.3,473.3 261.4,484.2 259.1,481.4 258,483.1 259.9,487.9 263.1,490.8 
							263.8,496 270.3,502.4 273.5,504.2 278,509 278,513.4 278,517.1 277,517.9 267.2,521.5 268.9,529.2 271.4,533.6 267.2,531.6 
							260.6,531.6 258,533.6 254.8,532.8 247.6,535.1 244.1,533.6 241,532.8 239.2,537.3 231.8,532.8 230.6,531.6 229.4,531.6 
							228,530.7 226.9,530.7 226.1,530.7 224.6,530 223.6,530 222.9,529.2 221.3,529.2 220.3,529.2 218.8,529.2 218.2,529.2 
							217.1,530.7 217.1,531.6 217.1,533.6 215.6,533.6 214.8,533.6 213,533.6 212.3,533.6 210.5,533.6 209.8,533.6 207.9,533.6 
							207.2,533.6 205.9,532.8 205.9,527.1 207.9,515.4 213,508.2 206.5,505.5 194.2,498 194.9,491.6 191,487.9 192.6,483.1 
							191,477 190.2,475 189,471.4 190.2,469.8 191.6,463.4 188.5,455.9 191.6,452.4 197.5,453.1 196,440.2 200.1,438.8 
							201.3,430.2 199.3,422.2 209,420.1 210.5,426.6 214.8,418.5 219.6,418.5 217.1,415.5 218.2,411.1 216.2,409.1 215.6,407.5 
							216.2,406.4 217.1,402.6 214.8,398.2 209,397.4 211.6,393.7 						"/>
						<polygon id="Stroke-59" class="st6" points="213.7,395.4 221.3,396.7 226.1,396.7 230.6,399 230.6,403.9 229.4,405.6 
							233.7,408.3 237.7,408.3 242.5,407.5 240.3,414.7 246.7,414.7 250.1,411.1 258,403.9 261.4,406.4 270.3,412 273.5,416.4 
							279.6,420.1 280.1,421.3 281.3,429.4 278,433.8 278.8,437.5 283.4,442.3 282.7,446 284.7,451.2 287.1,451.2 285.9,454.8 
							289.3,463.4 291.1,465.7 289.3,471.4 283.4,469.8 281.3,473.3 261.4,484.2 259.1,481.4 258,483.1 259.9,487.9 263.1,490.8 
							263.8,496 270.3,502.4 273.5,504.2 278,509 278,513.4 278,517.1 277,517.9 267.2,521.5 268.9,529.2 271.4,533.6 267.2,531.6 
							260.6,531.6 258,533.6 254.8,532.8 247.6,535.1 244.1,533.6 241,532.8 239.2,537.3 231.8,532.8 230.6,531.6 229.4,531.6 
							228,530.7 226.9,530.7 226.1,530.7 224.6,530 223.6,530 222.9,529.2 221.3,529.2 220.3,529.2 218.8,529.2 218.2,529.2 
							217.1,530.7 217.1,531.6 217.1,533.6 215.6,533.6 214.8,533.6 213,533.6 212.3,533.6 210.5,533.6 209.8,533.6 207.9,533.6 
							207.2,533.6 205.9,532.8 205.9,527.1 207.9,515.4 213,508.2 206.5,505.5 194.2,498 194.9,491.6 191,487.9 192.6,483.1 
							191,477 190.2,475 189,471.4 190.2,469.8 191.6,463.4 188.5,455.9 191.6,452.4 197.5,453.1 196,440.2 200.1,438.8 
							201.3,430.2 199.3,422.2 209,420.1 210.5,426.6 214.8,418.5 219.6,418.5 217.1,415.5 218.2,411.1 216.2,409.1 215.6,407.5 
							216.2,406.4 217.1,402.6 214.8,398.2 209,397.4 211.6,393.7 						"/>
						<polygon id="Fill-60" class="st5" points="149.9,469.8 136.8,474.2 135.8,485.9 133.6,490.8 125.1,493.1 119.4,498 
							117.9,502.4 109.7,501.6 104.8,500.4 104.8,495.2 101.7,494.3 96.6,495.2 99.1,505.5 101.7,514.2 96.6,514.2 91.4,515.4 
							88.2,517.1 82.7,511.9 77.6,511.9 72.5,512.6 64.6,515.4 62.7,519 67.2,517.9 69.3,519.8 66.1,519.8 67.8,522.7 64.6,524.3 
							68.6,529.2 81,532.8 88.2,535.1 94.7,538.1 93.3,547.5 103.8,556.4 103.2,566.3 107.1,568.4 109.7,576.5 104.8,569.2 
							103.2,582.1 104.8,583.8 103.2,586.5 97.2,606 103.2,611.2 119.4,617 125.9,617.7 125.9,615 134.2,617 143.4,621.4 
							150.7,623.4 154.9,621.4 153.8,612 161.5,606.8 164.7,604 166.9,606 170.3,604 172,606.8 175.4,606.8 179.2,607.6 
							181.8,610.5 186.9,611.2 196,611.2 196,607.6 200.7,604 203.9,604 203.9,602.4 205.9,600.4 206.5,601.2 207.9,600.4 
							209,596.8 210.5,593.1 206.5,593.1 201.3,592.3 200.7,579.3 198.2,575.7 201.3,575.7 200.1,564 201.3,561.9 200.1,557.5 
							194.9,552.6 189,555.5 191,551.1 196,545.2 200.7,538.8 200.7,534.4 205.9,532.8 205.9,527.1 207.9,515.4 213,508.2 
							206.5,505.5 194.2,498 190.2,498 186.9,496.8 184.3,496.8 177.1,494.3 174.6,486.6 172,490.8 162.2,482.2 158.9,479.4 
							158.2,474.2 154.9,475 149.9,474.2 						"/>
						<polygon id="Stroke-61" class="st6" points="149.9,469.8 136.8,474.2 135.8,485.9 133.6,490.8 125.1,493.1 119.4,498 
							117.9,502.4 109.7,501.6 104.8,500.4 104.8,495.2 101.7,494.3 96.6,495.2 99.1,505.5 101.7,514.2 96.6,514.2 91.4,515.4 
							88.2,517.1 82.7,511.9 77.6,511.9 72.5,512.6 64.6,515.4 62.7,519 67.2,517.9 69.3,519.8 66.1,519.8 67.8,522.7 64.6,524.3 
							68.6,529.2 81,532.8 88.2,535.1 94.7,538.1 93.3,547.5 103.8,556.4 103.2,566.3 107.1,568.4 109.7,576.5 104.8,569.2 
							103.2,582.1 104.8,583.8 103.2,586.5 97.2,606 103.2,611.2 119.4,617 125.9,617.7 125.9,615 134.2,617 143.4,621.4 
							150.7,623.4 154.9,621.4 153.8,612 161.5,606.8 164.7,604 166.9,606 170.3,604 172,606.8 175.4,606.8 179.2,607.6 
							181.8,610.5 186.9,611.2 196,611.2 196,607.6 200.7,604 203.9,604 203.9,602.4 205.9,600.4 206.5,601.2 207.9,600.4 
							209,596.8 210.5,593.1 206.5,593.1 201.3,592.3 200.7,579.3 198.2,575.7 201.3,575.7 200.1,564 201.3,561.9 200.1,557.5 
							194.9,552.6 189,555.5 191,551.1 196,545.2 200.7,538.8 200.7,534.4 205.9,532.8 205.9,527.1 207.9,515.4 213,508.2 
							206.5,505.5 194.2,498 190.2,498 186.9,496.8 184.3,496.8 177.1,494.3 174.6,486.6 172,490.8 162.2,482.2 158.9,479.4 
							158.2,474.2 154.9,475 149.9,474.2 						"/>
						<polygon id="Fill-62" class="st5" points="228,611.2 226.1,616.1 218.2,619.7 217.1,622.2 218.8,623.4 217.1,624.9 
							218.2,627.8 217.1,629.4 219.6,629.4 218.8,632.2 221.3,633.6 221.3,636.1 225.4,638 230.6,623.4 228.7,617 229.4,618.5 
													"/>
						<polygon id="Stroke-63" class="st6" points="228,611.2 226.1,616.1 218.2,619.7 217.1,622.2 218.8,623.4 217.1,624.9 
							218.2,627.8 217.1,629.4 219.6,629.4 218.8,632.2 221.3,633.6 221.3,636.1 225.4,638 230.6,623.4 228.7,617 229.4,618.5 
													"/>
						<polygon id="Fill-64" class="st3" points="38.1,393.7 32.7,398.2 32.7,401.1 30.8,403.9 33.4,408.3 36.7,409.1 39.2,406.4 
							39.2,404.7 39.9,403.9 45.7,411.1 48.3,410 50.4,412.8 48.3,414.7 45.7,413.5 48.9,422.2 49.7,425.8 48.3,426.6 49.7,429.4 
							48.9,436.7 47.2,439.5 47.2,442.3 45.7,448.4 39.2,448.4 30.2,453.1 26,456.7 24.4,454.8 21.8,457.5 12.6,459.5 8,459.5 
							4.8,459.5 8,454 2.2,454.8 2.2,452.4 5.5,450.4 0.4,448.4 2.9,446.7 7.3,446.7 6.3,443.9 9.4,442.3 17.1,440.2 18.4,438.8 
							17.1,437.5 13.7,438.8 8.6,438.8 12,435.8 13.7,430.2 16.1,427.4 8,425.8 4.8,422.2 8,418.5 11.2,417.6 8,415.5 7.3,411.1 
							4.8,412 5.5,408.3 11.2,407.5 16.1,410 20.9,408.3 22.5,407.5 24.4,404.7 26.9,402.6 26.9,401.1 20.3,400.3 23.5,397.4 
							25,393.7 31.6,389 36.7,385.4 40.6,389 						"/>
						<polygon id="Stroke-65" class="st4" points="38.1,393.7 32.7,398.2 32.7,401.1 30.8,403.9 33.4,408.3 36.7,409.1 39.2,406.4 
							39.2,404.7 39.9,403.9 45.7,411.1 48.3,410 50.4,412.8 48.3,414.7 45.7,413.5 48.9,422.2 49.7,425.8 48.3,426.6 49.7,429.4 
							48.9,436.7 47.2,439.5 47.2,442.3 45.7,448.4 39.2,448.4 30.2,453.1 26,456.7 24.4,454.8 21.8,457.5 12.6,459.5 8,459.5 
							4.8,459.5 8,454 2.2,454.8 2.2,452.4 5.5,450.4 0.4,448.4 2.9,446.7 7.3,446.7 6.3,443.9 9.4,442.3 17.1,440.2 18.4,438.8 
							17.1,437.5 13.7,438.8 8.6,438.8 12,435.8 13.7,430.2 16.1,427.4 8,425.8 4.8,422.2 8,418.5 11.2,417.6 8,415.5 7.3,411.1 
							4.8,412 5.5,408.3 11.2,407.5 16.1,410 20.9,408.3 22.5,407.5 24.4,404.7 26.9,402.6 26.9,401.1 20.3,400.3 23.5,397.4 
							25,393.7 31.6,389 36.7,385.4 40.6,389 						"/>
						<polygon id="Fill-69" class="st5" points="241.8,548.2 248.3,546.4 249.2,542.8 256.6,542.8 261.3,541.7 267.2,548.2 
							275.4,551.9 278.8,551.9 276.2,555.5 281.3,564 283.4,567.5 282.1,571.3 278,568.4 275.4,564.8 275.4,566.3 270.3,565.5 
							271.4,567.5 266.4,570 260.6,572.7 263.1,579.3 261.3,582.1 261.3,586.5 277,604.8 285.9,624.1 301.6,631.3 306.7,630.6 
							307.4,633.6 304.8,636.1 306.7,639.6 314.6,643.3 326.9,650.5 336.7,660.6 335.2,666.2 332,665.4 330.2,661.8 326.2,657 
							320.3,654.6 316.4,658.1 313.9,669.1 317.1,669.9 320.3,671.8 321.1,680.9 315.7,683.7 314.6,690.1 310.5,697.4 305.8,698.1 
							305.8,694.6 307.4,692.9 308,685.3 310.5,682.9 303.3,661.8 300.7,662.6 295.7,659 295.7,656.1 293.6,652.5 288.5,652.5 
							287.8,649.7 284.7,649.7 282.7,648.1 281.3,642.5 272.9,641.7 266.4,638 259.9,629.4 255.9,627 248.3,618.5 244.1,614 
							241,614 241.8,610.5 240.3,606.8 238.4,600.4 234.4,594.7 228.7,591.1 220.3,591.1 215.6,594.7 212.3,599.5 207.9,600.4 
							209,596.8 210.5,593.1 206.5,593.1 201.3,592.3 200.7,579.3 198.2,575.7 201.3,575.7 200.1,564 201.3,561.9 203.3,564 
							207.9,561.1 211.6,561.9 217.1,558.3 224.6,561.1 226.9,557.5 228,552.6 230.6,552.6 231.8,555.5 234.4,555.5 237.7,557.5 
							237,551.9 241,551.9 						"/>
						<polygon id="Stroke-70" class="st6" points="241.8,548.2 248.3,546.4 249.2,542.8 256.6,542.8 261.3,541.7 267.2,548.2 
							275.4,551.9 278.8,551.9 276.2,555.5 281.3,564 283.4,567.5 282.1,571.3 278,568.4 275.4,564.8 275.4,566.3 270.3,565.5 
							271.4,567.5 266.4,570 260.6,572.7 263.1,579.3 261.3,582.1 261.3,586.5 277,604.8 285.9,624.1 301.6,631.3 306.7,630.6 
							307.4,633.6 304.8,636.1 306.7,639.6 314.6,643.3 326.9,650.5 336.7,660.6 335.2,666.2 332,665.4 330.2,661.8 326.2,657 
							320.3,654.6 316.4,658.1 313.9,669.1 317.1,669.9 320.3,671.8 321.1,680.9 315.7,683.7 314.6,690.1 310.5,697.4 305.8,698.1 
							305.8,694.6 307.4,692.9 308,685.3 310.5,682.9 303.3,661.8 300.7,662.6 295.7,659 295.7,656.1 293.6,652.5 288.5,652.5 
							287.8,649.7 284.7,649.7 282.7,648.1 281.3,642.5 272.9,641.7 266.4,638 259.9,629.4 255.9,627 248.3,618.5 244.1,614 
							241,614 241.8,610.5 240.3,606.8 238.4,600.4 234.4,594.7 228.7,591.1 220.3,591.1 215.6,594.7 212.3,599.5 207.9,600.4 
							209,596.8 210.5,593.1 206.5,593.1 201.3,592.3 200.7,579.3 198.2,575.7 201.3,575.7 200.1,564 201.3,561.9 203.3,564 
							207.9,561.1 211.6,561.9 217.1,558.3 224.6,561.1 226.9,557.5 228,552.6 230.6,552.6 231.8,555.5 234.4,555.5 237.7,557.5 
							237,551.9 241,551.9 						"/>
						<polygon id="Fill-71" class="st5" points="299.1,717.6 291.8,715.6 288.5,711.9 282.7,711.1 273.5,703.8 268.9,702.6 
							267.2,697.4 270.3,694.6 272.9,696.6 274.7,694.6 277,693.7 284.7,697.4 300.1,693.7 300.7,699 299.1,705.5 300.7,711.9 
													"/>
						<polygon id="Stroke-72" class="st6" points="299.1,717.6 291.8,715.6 288.5,711.9 282.7,711.1 273.5,703.8 268.9,702.6 
							267.2,697.4 270.3,694.6 272.9,696.6 274.7,694.6 277,693.7 284.7,697.4 300.1,693.7 300.7,699 299.1,705.5 300.7,711.9 
													"/>
						<polygon id="Fill-73" class="st5" points="222.9,681.7 218.8,678.1 218.2,669.9 219.6,667 219.6,663.5 218.2,663.5 218.8,659 
							214.8,652.5 215.6,648.9 219.6,649.7 228,643.3 231.2,644.4 234.4,655.4 231.8,658.1 232.6,660.6 231.2,677.2 225.4,676.5 
													"/>
						<polygon id="Stroke-74" class="st6" points="222.9,681.7 218.8,678.1 218.2,669.9 219.6,667 219.6,663.5 218.2,663.5 
							218.8,659 214.8,652.5 215.6,648.9 219.6,649.7 228,643.3 231.2,644.4 234.4,655.4 231.8,658.1 232.6,660.6 231.2,677.2 
							225.4,676.5 						"/>
						<polygon id="Fill-75" class="st5" points="186.9,496.8 185.9,489.5 187.7,486.6 192.6,483.1 191,487.9 194.9,491.6 194.2,498 
							190.2,498 						"/>
						<polygon id="Stroke-76" class="st6" points="186.9,496.8 185.9,489.5 187.7,486.6 192.6,483.1 191,487.9 194.9,491.6 
							194.2,498 190.2,498 						"/>
						<polygon id="Fill-77" class="st5" points="292.5,733 289.3,729.4 292.5,730.2 						"/>
						<polygon id="Stroke-78" class="st6" points="292.5,733 289.3,729.4 292.5,730.2 						"/>
						<polygon id="Fill-79" class="st5" points="339.4,402.6 375.5,402.6 384.6,414.7 387.8,426.6 390,436.7 381.4,443.2 
							387.8,449.6 390,461.2 394.5,470.6 378.8,494.3 381.4,502.4 377.7,505.5 375.5,503.2 370.4,499.5 363.1,498 359.8,500.4 
							355.7,498.8 348.4,501.6 346,498.8 342.6,495.2 337.9,498 332.9,492.4 332.9,488.6 321.2,485.9 321.2,483.1 317.8,481.4 
							314,483.1 310,485.1 305.9,480.6 306.8,479.4 306.8,475.8 302.4,475.8 295.7,473.3 295.7,471.4 291.8,471.4 289.3,471.4 
							291.1,465.7 289.3,463.4 285.9,454.8 287.1,451.2 284.7,451.2 282.7,446 283.4,442.3 278.8,437.5 278,433.8 281.3,429.4 
							280.1,421.3 282.1,418.5 283.4,417.6 284.7,412.8 298.2,408.3 301.7,403.9 305.9,401.1 308.1,401.1 322.9,396.7 324.8,402.6 
							327,405.6 332.9,405.6 335.3,406.4 						"/>
						<polygon id="Stroke-80" class="st6" points="339.4,402.6 375.5,402.6 384.6,414.7 387.8,426.6 390,436.7 381.4,443.2 
							387.8,449.6 390,461.2 394.5,470.6 378.8,494.3 381.4,502.4 377.7,505.5 375.5,503.2 370.4,499.5 363.1,498 359.8,500.4 
							355.7,498.8 348.4,501.6 346,498.8 342.6,495.2 337.9,498 332.9,492.4 332.9,488.6 321.2,485.9 321.2,483.1 317.8,481.4 
							314,483.1 310,485.1 305.9,480.6 306.8,479.4 306.8,475.8 302.4,475.8 295.7,473.3 295.7,471.4 291.8,471.4 289.3,471.4 
							291.1,465.7 289.3,463.4 285.9,454.8 287.1,451.2 284.7,451.2 282.7,446 283.4,442.3 278.8,437.5 278,433.8 281.3,429.4 
							280.1,421.3 282.1,418.5 283.4,417.6 284.7,412.8 298.2,408.3 301.7,403.9 305.9,401.1 308.1,401.1 322.9,396.7 324.8,402.6 
							327,405.6 332.9,405.6 335.3,406.4 						"/>
						<polygon id="Fill-81" class="st5" points="12.6,627 16.1,628.6 21.8,627 23.5,630.6 27.6,630.6 31.6,631.3 36.7,630.6 
							41.4,634.4 45,636.1 36.7,646 36.7,655.4 34.8,667 30.8,669.1 33.4,677.2 33.4,680.1 31.6,687.3 34.8,690.9 34.8,693.7 
							29.5,699 30.2,709.1 20.9,711.9 17.1,710.2 9.4,711.1 11.2,704.6 12,690.1 12,687.3 8,686.5 8.6,682.9 4.8,683.7 6.3,672.6 
							8,671.8 15.2,650.5 						"/>
						<polygon id="Stroke-82" class="st6" points="12.6,627 16.1,628.6 21.8,627 23.5,630.6 27.6,630.6 31.6,631.3 36.7,630.6 
							41.4,634.4 45,636.1 36.7,646 36.7,655.4 34.8,667 30.8,669.1 33.4,677.2 33.4,680.1 31.6,687.3 34.8,690.9 34.8,693.7 
							29.5,699 30.2,709.1 20.9,711.9 17.1,710.2 9.4,711.1 11.2,704.6 12,690.1 12,687.3 8,686.5 8.6,682.9 4.8,683.7 6.3,672.6 
							8,671.8 15.2,650.5 						"/>
						<polygon id="Fill-83" class="st5" points="420.5,523.5 430.3,519.8 443.4,540.8 445.2,542.8 447.6,568.4 451,572 463.3,569.2 
							463.3,579.3 456.7,580.1 457.4,576.5 455,576.5 454.2,580.1 453.1,583.8 454.2,586.5 452.4,597.6 448.5,597.6 445.9,594.7 
							437.8,594 435.3,591.1 423.1,596 419.6,600.4 415.4,601.2 408.7,600.4 403.4,599.5 401,600.4 391.9,597.6 386.8,598.7 
							386.1,596 387.8,594 384.6,591.1 381.4,587.3 382.8,584.8 380.2,582.9 377.7,586.5 373.7,583.8 369.1,582.1 369.8,578.4 
							369.8,573.6 360.5,568.4 360.5,564 356.7,557.5 361.4,558.3 361.4,555.5 367.2,552.6 366.5,549 369.8,544.5 372.3,534.4 
							376.9,527.9 381.4,527.1 382.8,523.5 388.7,524.3 408.1,527.9 						"/>
						<polygon id="Stroke-84" class="st6" points="420.5,523.5 430.3,519.8 443.4,540.8 445.2,542.8 447.6,568.4 451,572 
							463.3,569.2 463.3,579.3 456.7,580.1 457.4,576.5 455,576.5 454.2,580.1 453.1,583.8 454.2,586.5 452.4,597.6 448.5,597.6 
							445.9,594.7 437.8,594 435.3,591.1 423.1,596 419.6,600.4 415.4,601.2 408.7,600.4 403.4,599.5 401,600.4 391.9,597.6 
							386.8,598.7 386.1,596 387.8,594 384.6,591.1 381.4,587.3 382.8,584.8 380.2,582.9 377.7,586.5 373.7,583.8 369.1,582.1 
							369.8,578.4 369.8,573.6 360.5,568.4 360.5,564 356.7,557.5 361.4,558.3 361.4,555.5 367.2,552.6 366.5,549 369.8,544.5 
							372.3,534.4 376.9,527.9 381.4,527.1 382.8,523.5 388.7,524.3 408.1,527.9 						"/>
						<polygon id="Fill-85" class="st3" points="325.4,85.3 331.2,91.8 340,97.4 348.3,98.2 354,104.6 355.6,115.6 358.7,118.5 
							358.2,121 357.3,123 361.3,129.5 358.7,141.1 362.3,146.7 364.6,154.1 355.6,154.1 354.7,156.8 346.9,153.2 343.6,163.3 
							339.3,165 341,167.8 339.3,176 336.7,181.6 339.3,184.3 341.8,188 336,196.1 333.5,202.6 331.2,206.3 325.4,211.5 
							322.8,209.2 321.1,211.5 319.7,214.3 317.1,218 313.9,219.2 310.5,222.8 313.1,225.2 310.5,227.3 307.4,227.3 308,233.8 
							305.8,235.3 303.3,233.8 302.3,237.3 304.1,241.8 303.3,249.1 304.1,254.1 301.6,252.8 300.7,257.6 301.6,266.5 306.7,276.5 
							308,278.6 310.5,276.5 315.7,283.8 318.9,287.5 322.2,294.8 314.6,303.3 317.7,307.8 313.9,309.7 312.4,312.2 309.9,311.4 
							304.8,315.8 301.6,318.6 297,317.9 300.7,320.7 301.6,327.9 300.7,334.5 298.2,336.1 301.6,339 299.1,354.2 294.4,370.8 
							281.3,370.8 280.1,373.6 276.2,375.3 276.2,379.3 278.8,381.6 275.4,386.6 269.6,385.4 266.4,387.3 262.4,385.4 262.4,378.1 
							258,370 260.6,369.1 259.1,365.6 261.4,364.4 261.4,360.7 256.6,356.2 250.8,344.6 246.7,336.1 248.3,330.7 247.6,325.9 
							245,327.9 242.5,324.3 241,313.4 240.3,309.7 246.7,313.4 247.6,298.4 249.3,296.1 249.3,293.2 250.1,291.2 253.4,292.5 
							255.9,284.7 256.6,279.4 251.6,267.3 256.6,265.7 258,260.1 254.1,254.9 250.8,251.9 250.1,236.5 247.6,226.4 249.3,221.7 
							246.7,215.6 247.6,207.9 254.1,198.9 259.9,196.9 267.2,199.7 268.2,193.2 267.2,188.8 263.1,186 268.9,176 270.3,165 
							269.6,150.4 278.8,143.9 278,139.5 283.4,129.5 287.8,126.6 283.4,117.2 285.3,117.2 288.5,112.8 288.5,109.1 293.6,105.4 
							300.1,108.4 301.6,103.5 300.1,97.4 304.1,94.6 309.9,96.3 318.9,99 321.1,97.4 319.7,95.5 320.3,91 319.7,84.5 						"/>
						<polygon id="Stroke-86" class="st4" points="325.4,85.3 331.2,91.8 340,97.4 348.3,98.2 354,104.6 355.6,115.6 358.7,118.5 
							358.2,121 357.3,123 361.3,129.5 358.7,141.1 362.3,146.7 364.6,154.1 355.6,154.1 354.7,156.8 346.9,153.2 343.6,163.3 
							339.3,165 341,167.8 339.3,176 336.7,181.6 339.3,184.3 341.8,188 336,196.1 333.5,202.6 331.2,206.3 325.4,211.5 
							322.8,209.2 321.1,211.5 319.7,214.3 317.1,218 313.9,219.2 310.5,222.8 313.1,225.2 310.5,227.3 307.4,227.3 308,233.8 
							305.8,235.3 303.3,233.8 302.3,237.3 304.1,241.8 303.3,249.1 304.1,254.1 301.6,252.8 300.7,257.6 301.6,266.5 306.7,276.5 
							308,278.6 310.5,276.5 315.7,283.8 318.9,287.5 322.2,294.8 314.6,303.3 317.7,307.8 313.9,309.7 312.4,312.2 309.9,311.4 
							304.8,315.8 301.6,318.6 297,317.9 300.7,320.7 301.6,327.9 300.7,334.5 298.2,336.1 301.6,339 299.1,354.2 294.4,370.8 
							281.3,370.8 280.1,373.6 276.2,375.3 276.2,379.3 278.8,381.6 275.4,386.6 269.6,385.4 266.4,387.3 262.4,385.4 262.4,378.1 
							258,370 260.6,369.1 259.1,365.6 261.4,364.4 261.4,360.7 256.6,356.2 250.8,344.6 246.7,336.1 248.3,330.7 247.6,325.9 
							245,327.9 242.5,324.3 241,313.4 240.3,309.7 246.7,313.4 247.6,298.4 249.3,296.1 249.3,293.2 250.1,291.2 253.4,292.5 
							255.9,284.7 256.6,279.4 251.6,267.3 256.6,265.7 258,260.1 254.1,254.9 250.8,251.9 250.1,236.5 247.6,226.4 249.3,221.7 
							246.7,215.6 247.6,207.9 254.1,198.9 259.9,196.9 267.2,199.7 268.2,193.2 267.2,188.8 263.1,186 268.9,176 270.3,165 
							269.6,150.4 278.8,143.9 278,139.5 283.4,129.5 287.8,126.6 283.4,117.2 285.3,117.2 288.5,112.8 288.5,109.1 293.6,105.4 
							300.1,108.4 301.6,103.5 300.1,97.4 304.1,94.6 309.9,96.3 318.9,99 321.1,97.4 319.7,95.5 320.3,91 319.7,84.5 						"/>
						<polygon id="Fill-87" class="st7" points="300.7,369.1 300.1,360.7 302.3,351.8 304.1,346.2 306.7,344.6 304.1,356.2 						
							"/>
						<polygon id="Stroke-88" class="st8" points="300.7,369.1 300.1,360.7 302.3,351.8 304.1,346.2 306.7,344.6 304.1,356.2 						
							"/>
						<polygon id="Fill-89" class="st7" points="318.9,354.2 317.1,340.5 322.2,334.5 326.2,334.5 324.7,336.9 325.4,343.4 
							323.6,346.2 						"/>
						<polygon id="Stroke-90" class="st8" points="318.9,354.2 317.1,340.5 322.2,334.5 326.2,334.5 324.7,336.9 325.4,343.4 
							323.6,346.2 						"/>
						<polygon id="Fill-91" class="st3" points="205.9,532.8 207.2,533.6 207.9,533.6 209.8,533.6 210.5,533.6 212.3,533.6 
							213,533.6 214.8,533.6 215.6,533.6 217.1,533.6 217.1,531.6 217.1,530.7 218.2,529.2 218.8,529.2 220.3,529.2 221.3,529.2 
							222.9,529.2 223.6,530 224.6,530 226.1,530.7 226.9,530.7 228,530.7 229.4,531.6 230.6,531.6 231.8,532.8 231.2,535.1 
							231.2,536.4 230.6,537.3 231.2,538.8 231.2,540 232.6,540.8 233.7,541.7 234.4,542.8 235.2,543.7 235.9,544.5 237,544.5 
							237.7,545.2 239.2,546.4 240.3,546.4 241,547.5 241.8,548.2 241,551.9 237,551.9 237.7,557.5 234.4,555.5 231.8,555.5 
							230.6,552.6 228,552.6 226.9,557.5 224.6,561.1 217.1,558.3 211.6,561.9 207.9,561.1 203.3,564 201.3,561.9 200.1,557.5 
							194.9,552.6 189,555.5 191,551.1 196,545.2 200.7,538.8 200.7,534.4 						"/>
						<polygon id="Stroke-92" class="st4" points="205.9,532.8 207.2,533.6 207.9,533.6 209.8,533.6 210.5,533.6 212.3,533.6 
							213,533.6 214.8,533.6 215.6,533.6 217.1,533.6 217.1,531.6 217.1,530.7 218.2,529.2 218.8,529.2 220.3,529.2 221.3,529.2 
							222.9,529.2 223.6,530 224.6,530 226.1,530.7 226.9,530.7 228,530.7 229.4,531.6 230.6,531.6 231.8,532.8 231.2,535.1 
							231.2,536.4 230.6,537.3 231.2,538.8 231.2,540 232.6,540.8 233.7,541.7 234.4,542.8 235.2,543.7 235.9,544.5 237,544.5 
							237.7,545.2 239.2,546.4 240.3,546.4 241,547.5 241.8,548.2 241,551.9 237,551.9 237.7,557.5 234.4,555.5 231.8,555.5 
							230.6,552.6 228,552.6 226.9,557.5 224.6,561.1 217.1,558.3 211.6,561.9 207.9,561.1 203.3,564 201.3,561.9 200.1,557.5 
							194.9,552.6 189,555.5 191,551.1 196,545.2 200.7,538.8 200.7,534.4 						"/>
						<polygon id="Fill-93" class="st5" points="97.2,606 103.2,611.2 119.4,617 125.9,617.7 125.9,615 134.2,617 143.4,621.4 
							150.7,623.4 154.9,621.4 156.4,624.1 154.9,627 155.7,631.3 149.9,637.3 144.1,643.3 133.6,645.2 130.2,646 127.7,648.1 
							125.9,653.3 121.9,659 113.6,671.8 114.7,676.5 118.7,682.9 118.7,685.3 115.4,688.2 110.4,693.7 108.1,700.3 109,701.1 
							109,702.6 104.8,703.8 99.1,705.5 94.7,711.1 91.4,716.4 88.2,715.6 86.8,715.6 84.3,717.6 81,716.4 77.6,716.4 74.3,717.6 
							68.6,716.4 62,719.2 58.9,720.1 50.4,727.8 40.6,722.9 39.2,716.4 39.9,713.9 33.4,709.1 30.2,709.1 29.5,699 34.8,693.7 
							34.8,690.9 31.6,687.3 33.4,680.1 33.4,677.2 30.8,669.1 34.8,667 36.7,655.4 36.7,646 45,636.1 41.4,634.4 36.7,630.6 
							31.6,631.3 27.6,630.6 23.5,630.6 21.8,627 16.1,628.6 12.6,627 15.2,624.1 12.6,618.5 10.6,618.5 10.6,614 8,608.4 12.6,606 
							20.3,606 20.3,602.4 26,599.5 30.8,602.4 42.5,603.2 48.3,601.2 60.2,604.8 75,604.8 86.8,606 						"/>
						<polygon id="Stroke-94" class="st6" points="97.2,606 103.2,611.2 119.4,617 125.9,617.7 125.9,615 134.2,617 143.4,621.4 
							150.7,623.4 154.9,621.4 156.4,624.1 154.9,627 155.7,631.3 149.9,637.3 144.1,643.3 133.6,645.2 130.2,646 127.7,648.1 
							125.9,653.3 121.9,659 113.6,671.8 114.7,676.5 118.7,682.9 118.7,685.3 115.4,688.2 110.4,693.7 108.1,700.3 109,701.1 
							109,702.6 104.8,703.8 99.1,705.5 94.7,711.1 91.4,716.4 88.2,715.6 86.8,715.6 84.3,717.6 81,716.4 77.6,716.4 74.3,717.6 
							68.6,716.4 62,719.2 58.9,720.1 50.4,727.8 40.6,722.9 39.2,716.4 39.9,713.9 33.4,709.1 30.2,709.1 29.5,699 34.8,693.7 
							34.8,690.9 31.6,687.3 33.4,680.1 33.4,677.2 30.8,669.1 34.8,667 36.7,655.4 36.7,646 45,636.1 41.4,634.4 36.7,630.6 
							31.6,631.3 27.6,630.6 23.5,630.6 21.8,627 16.1,628.6 12.6,627 15.2,624.1 12.6,618.5 10.6,618.5 10.6,614 8,608.4 12.6,606 
							20.3,606 20.3,602.4 26,599.5 30.8,602.4 42.5,603.2 48.3,601.2 60.2,604.8 75,604.8 86.8,606 						"/>
						<polygon id="Fill-95" class="st5" points="135.1,682.9 131.7,680.9 135.8,679.3 						"/>
						<polygon id="Stroke-96" class="st6" points="135.1,682.9 131.7,680.9 135.8,679.3 						"/>
						<polygon id="Fill-97" class="st5" points="155.7,675.6 151.3,673.5 151.3,671.8 148.1,671.8 147.3,669.9 154.9,664.2 
							155.7,667 158.9,667 158.2,671.8 						"/>
						<polygon id="Stroke-98" class="st6" points="155.7,675.6 151.3,673.5 151.3,671.8 148.1,671.8 147.3,669.9 154.9,664.2 
							155.7,667 158.9,667 158.2,671.8 						"/>
						<polygon id="Fill-99" class="st5" points="168.2,666.2 163.1,662.6 166.9,661.8 						"/>
						<polygon id="Stroke-100" class="st6" points="168.2,666.2 163.1,662.6 166.9,661.8 						"/>
						<polygon id="Fill-101" class="st3" points="430.3,631.3 435.2,636 434.1,639.5 432,642.4 432,646.8 427.7,650.4 433.4,650.4 
							428.8,654.5 428.8,658.9 433.4,654.5 440.1,650.4 443.3,646.8 454.5,645.1 456,640.8 447.5,634.3 448.4,628.5 444.3,629.3 
							441.1,625.7 						"/>
						<polygon id="Stroke-102" class="st4" points="430.3,631.3 435.2,636 434.1,639.5 432,642.4 432,646.8 427.7,650.4 
							433.4,650.4 428.8,654.5 428.8,658.9 433.4,654.5 440.1,650.4 443.3,646.8 454.5,645.1 456,640.8 447.5,634.3 448.4,628.5 
							444.3,629.3 441.1,625.7 						"/>
						<polygon id="Fill-103" class="st5" points="374.4,517.1 382.8,523.5 381.4,527.1 376.9,527.9 372.3,534.4 369.8,544.5 
							366.5,549 367.2,552.6 361.4,555.5 361.4,558.3 356.7,557.5 349.1,557.5 346,560.3 336.8,561.1 333.6,564 332.9,565.5 
							322.3,564 315.8,558.3 314,556.4 314,552.6 310,549 310,544.5 311.4,533.6 309.1,531.6 310.6,530 314.7,530 317.8,529.2 
							317.2,527.1 320.4,529.2 329.5,530 336.8,526.2 346,520.7 349.1,519.8 357.4,514.2 360.5,516.3 366.5,515.4 369.8,517.1 
													"/>
						<polygon id="Stroke-104" class="st6" points="374.4,517.1 382.8,523.5 381.4,527.1 376.9,527.9 372.3,534.4 369.8,544.5 
							366.5,549 367.2,552.6 361.4,555.5 361.4,558.3 356.7,557.5 349.1,557.5 346,560.3 336.8,561.1 333.6,564 332.9,565.5 
							322.3,564 315.8,558.3 314,556.4 314,552.6 310,549 310,544.5 311.4,533.6 309.1,531.6 310.6,530 314.7,530 317.8,529.2 
							317.2,527.1 320.4,529.2 329.5,530 336.8,526.2 346,520.7 349.1,519.8 357.4,514.2 360.5,516.3 366.5,515.4 369.8,517.1 
													"/>
						<polygon id="Fill-105" class="st7" points="515.5,751.1 508.3,748.8 506.5,745.1 509,743.1 510.8,741.1 514.1,741.1 
							514.9,737.4 519.9,738.7 531.1,735 526.4,740.2 527.9,745.1 524.6,743.9 520.6,748.8 516.6,748.8 						"/>
						<polygon id="Stroke-106" class="st8" points="515.5,751.1 508.3,748.8 506.5,745.1 509,743.1 510.8,741.1 514.1,741.1 
							514.9,737.4 519.9,738.7 531.1,735 526.4,740.2 527.9,745.1 524.6,743.9 520.6,748.8 516.6,748.8 						"/>
						<polygon id="Fill-107" class="st7" points="451,730.2 451,724.9 455.6,722.2 454.2,727.8 						"/>
						<polygon id="Stroke-108" class="st8" points="451,730.2 451,724.9 455.6,722.2 454.2,727.8 						"/>
						<polygon id="Fill-109" class="st7" points="415.4,745.1 413.1,742.4 405.6,742.4 400.2,740.2 400.2,735.8 404.1,735.8 
							407.3,735 408.7,738.7 416.4,737.4 418,739.5 426.2,738.7 426.9,742.4 433.5,740.2 433.5,743.9 						"/>
						<polygon id="Stroke-110" class="st8" points="415.4,745.1 413.1,742.4 405.6,742.4 400.2,740.2 400.2,735.8 404.1,735.8 
							407.3,735 408.7,738.7 416.4,737.4 418,739.5 426.2,738.7 426.9,742.4 433.5,740.2 433.5,743.9 						"/>
						<polygon id="Fill-111" class="st7" points="401.5,690.9 398.4,687.3 392.5,680.9 395.8,679.3 399,683.7 404.1,684.5 
							406.7,691.7 409.9,693.7 409.9,695.4 407.3,697.4 						"/>
						<polygon id="Stroke-112" class="st8" points="401.5,690.9 398.4,687.3 392.5,680.9 395.8,679.3 399,683.7 404.1,684.5 
							406.7,691.7 409.9,693.7 409.9,695.4 407.3,697.4 						"/>
						<polygon id="Fill-113" class="st5" points="389.9,639.6 408.1,635.2 411.3,638.8 416.4,638 420.5,640.8 428.8,638.8 
							428.8,631.3 430.3,631.3 435.3,636.1 434.1,639.6 432,642.5 432,646.9 427.7,650.5 426.9,651.6 425.5,648.9 415.4,646 
							413.8,643.3 409.9,648.1 408.1,646 406.7,646 404.1,649.7 399,651.6 405.6,659.8 404.8,660.6 401.5,657 399,657 401.5,660.6 
							401.5,663.5 395.8,659 395,659.8 389.2,655.4 389.9,654.6 389.9,652.5 386,654.6 385.1,661.8 394.4,676.5 389.9,680.1 
							386.7,681.7 391.8,683.7 401.5,690.9 404.8,701.9 398.4,695.4 393.3,698.1 398.4,706.7 394.4,706.7 389.2,702.6 394.4,714.7 
							394.4,718.3 394.4,721.4 389.2,715.6 387.7,716.4 387.7,721.4 386,721.4 382.7,712.7 379.4,712.7 380.1,716.4 377.6,715.6 
							375.4,711.1 376.2,703.8 369.7,699 372.8,693.7 380.1,692.9 391.1,696.6 393.3,693.7 386,690.1 381.3,690.1 369.7,690.9 
							363.9,681.7 369,681.7 369,679.3 364.5,679.3 358.2,670.6 361.3,665.4 367.9,651.6 371,646.9 377.6,648.1 380.1,642.5 
							386,644.4 						"/>
						<polygon id="Stroke-114" class="st6" points="389.9,639.6 408.1,635.2 411.3,638.8 416.4,638 420.5,640.8 428.8,638.8 
							428.8,631.3 430.3,631.3 435.3,636.1 434.1,639.6 432,642.5 432,646.9 427.7,650.5 426.9,651.6 425.5,648.9 415.4,646 
							413.8,643.3 409.9,648.1 408.1,646 406.7,646 404.1,649.7 399,651.6 405.6,659.8 404.8,660.6 401.5,657 399,657 401.5,660.6 
							401.5,663.5 395.8,659 395,659.8 389.2,655.4 389.9,654.6 389.9,652.5 386,654.6 385.1,661.8 394.4,676.5 389.9,680.1 
							386.7,681.7 391.8,683.7 401.5,690.9 404.8,701.9 398.4,695.4 393.3,698.1 398.4,706.7 394.4,706.7 389.2,702.6 394.4,714.7 
							394.4,718.3 394.4,721.4 389.2,715.6 387.7,716.4 387.7,721.4 386,721.4 382.7,712.7 379.4,712.7 380.1,716.4 377.6,715.6 
							375.4,711.1 376.2,703.8 369.7,699 372.8,693.7 380.1,692.9 391.1,696.6 393.3,693.7 386,690.1 381.3,690.1 369.7,690.9 
							363.9,681.7 369,681.7 369,679.3 364.5,679.3 358.2,670.6 361.3,665.4 367.9,651.6 371,646.9 377.6,648.1 380.1,642.5 
							386,644.4 						"/>
						<polygon id="Fill-115" class="st7" points="429.5,691.7 426.2,691.7 426.9,690.9 425.5,687.3 427.7,688.2 						"/>
						<polygon id="Stroke-116" class="st8" points="429.5,691.7 426.2,691.7 426.9,690.9 425.5,687.3 427.7,688.2 						"/>
						<polygon id="Fill-117" class="st7" points="432,679.3 428.8,677.2 428.8,676.5 426.2,677.2 424.4,674.3 430.3,673.5 
							432,676.5 						"/>
						<polygon id="Stroke-118" class="st8" points="432,679.3 428.8,677.2 428.8,676.5 426.2,677.2 424.4,674.3 430.3,673.5 
							432,676.5 						"/>
						<polygon id="Fill-119" class="st3" points="460.7,641.5 473.1,642.5 476.4,642.5 480.3,644.4 487.5,643.3 490.1,638.8 
							495.9,637.3 503.2,631.3 512.3,627.8 528.9,628.6 529.8,625.8 532.1,625.8 533,628.6 538.8,632.2 544.2,632.2 550,639.6 
							551.1,637.3 553.1,638 563.1,643.3 564.9,641.7 570.7,644.4 583.6,641.7 589.6,643.3 600.1,641.7 609.1,633.6 626.6,631.3 
							635.2,638 637.1,646.9 638.6,658.1 650.1,663.5 649.5,667.9 646.3,669.1 648.9,680.9 650.9,689.3 650.9,692.9 653.5,698.1 
							656,706.7 652,708.3 639.6,705.5 633.8,702.6 626.6,708.3 623.3,704.6 619.1,706.7 614.9,706.7 608.3,708.3 597.5,714.7 
							587.8,715.6 579.8,711.9 572.1,714.7 564.9,714.7 562.4,711.9 559.8,713.9 560.8,720.1 559.1,722.9 556.6,726.6 554.3,729.4 
							550,725.8 547.8,720.1 551.9,714.7 550,712.7 544.2,717.6 533,713.9 524.6,722.9 512.3,726.6 506.5,724.9 503.2,719.2 
							491.9,714.7 484.4,715.6 483.6,723.7 482.1,723.7 474.6,726.6 467.9,722.2 466.5,717.6 464.7,718.3 458.9,714.7 455.6,714.7 
							455,717.6 453.1,716.4 445.9,717.6 445.9,715.6 455.6,711.9 444.3,711.9 443.4,710.2 446.6,710.2 446.6,708.3 442.7,707.5 
							441.8,701.9 442.7,701.1 441.8,696.6 436.7,692.9 431,690.9 432.8,689.3 431,685.3 432.8,685.3 435.3,689.3 441.1,689.3 
							438.5,687.3 437.8,685.3 440.1,681.7 436.7,680.1 435.3,674.3 436.7,669.9 427.7,670.6 427.7,663.5 435.3,657 440.1,655.4 
							445.9,656.1 446.6,653.3 449.1,652.5 451,655.4 462.1,655.4 460.8,652.5 471.3,648.1 464.7,646.9 458.5,645.2 						"/>
						<polygon id="Stroke-120" class="st4" points="460.7,641.5 473.1,642.5 476.4,642.5 480.3,644.4 487.5,643.3 490.1,638.8 
							495.9,637.3 503.2,631.3 512.3,627.8 528.9,628.6 529.8,625.8 532.1,625.8 533,628.6 538.8,632.2 544.2,632.2 550,639.6 
							551.1,637.3 553.1,638 563.1,643.3 564.9,641.7 570.7,644.4 583.6,641.7 589.6,643.3 600.1,641.7 609.1,633.6 626.6,631.3 
							635.2,638 637.1,646.9 638.6,658.1 650.1,663.5 649.5,667.9 646.3,669.1 648.9,680.9 650.9,689.3 650.9,692.9 653.5,698.1 
							656,706.7 652,708.3 639.6,705.5 633.8,702.6 626.6,708.3 623.3,704.6 619.1,706.7 614.9,706.7 608.3,708.3 597.5,714.7 
							587.8,715.6 579.8,711.9 572.1,714.7 564.9,714.7 562.4,711.9 559.8,713.9 560.8,720.1 559.1,722.9 556.6,726.6 554.3,729.4 
							550,725.8 547.8,720.1 551.9,714.7 550,712.7 544.2,717.6 533,713.9 524.6,722.9 512.3,726.6 506.5,724.9 503.2,719.2 
							491.9,714.7 484.4,715.6 483.6,723.7 482.1,723.7 474.6,726.6 467.9,722.2 466.5,717.6 464.7,718.3 458.9,714.7 455.6,714.7 
							455,717.6 453.1,716.4 445.9,717.6 445.9,715.6 455.6,711.9 444.3,711.9 443.4,710.2 446.6,710.2 446.6,708.3 442.7,707.5 
							441.8,701.9 442.7,701.1 441.8,696.6 436.7,692.9 431,690.9 432.8,689.3 431,685.3 432.8,685.3 435.3,689.3 441.1,689.3 
							438.5,687.3 437.8,685.3 440.1,681.7 436.7,680.1 435.3,674.3 436.7,669.9 427.7,670.6 427.7,663.5 435.3,657 440.1,655.4 
							445.9,656.1 446.6,653.3 449.1,652.5 451,655.4 462.1,655.4 460.8,652.5 471.3,648.1 464.7,646.9 458.5,645.2 						"/>
						<polygon id="Fill-121" class="st5" points="206.5,601.2 204.7,603.2 203.9,604 203.9,602.4 205.9,600.4 						"/>
						<polyline id="Stroke-122" class="st6" points="206.5,601.2 204.7,603.2 203.9,604 203.9,602.4 205.9,600.4 206.5,601.2 						
							"/>
						<polygon id="Fill-127" class="st3" points="390,461.2 387.8,449.6 381.4,443.2 390,436.7 387.8,426.6 384.6,414.7 
							400.3,408.3 409.9,397.4 412,381.7 430.3,374.4 435.3,370.8 464.7,377.3 476.4,405.6 485.5,416.4 488.7,433.1 481,429.4 
							476.4,432.3 482.1,447.6 481,463.4 470.5,462.1 464.7,466.9 465.4,470.6 445.2,465.7 444.3,461.2 401,464.1 395.1,460.3 
													"/>
						<polygon id="Stroke-128" class="st4" points="390,461.2 387.8,449.6 381.4,443.2 390,436.7 387.8,426.6 384.6,414.7 
							400.3,408.3 409.9,397.4 412,381.7 430.3,374.4 435.3,370.8 464.7,377.3 476.4,405.6 485.5,416.4 488.7,433.1 481,429.4 
							476.4,432.3 482.1,447.6 481,463.4 470.5,462.1 464.7,466.9 465.4,470.6 445.2,465.7 444.3,461.2 401,464.1 395.1,460.3 
													"/>
						<polygon id="Fill-129" class="st5" points="384.6,335.2 384.6,322.3 380.2,325.9 373.7,317.1 372.3,304.1 398.5,294.8 
							410.7,296.9 408.7,300.6 413.8,309.7 414.5,319.4 421.2,332.5 408.1,338.2 392.6,333.3 						"/>
						<polygon id="Stroke-130" class="st6" points="384.6,335.2 384.6,322.3 380.2,325.9 373.7,317.1 372.3,304.1 398.5,294.8 
							410.7,296.9 408.7,300.6 413.8,309.7 414.5,319.4 421.2,332.5 408.1,338.2 392.6,333.3 						"/>
						<polygon id="Fill-133" class="st5" points="349.1,365.6 352.3,344.6 364.6,335.2 372.9,349 378.8,350.6 384.6,346.2 
							384.6,335.2 392.6,333.3 408.1,338.2 421.2,332.5 431,335.2 440.1,348.1 435.3,370.8 430.3,374.4 412,381.7 407.3,377.3 
							402.3,373.6 394.5,367.2 378.8,363.6 367.2,363.6 						"/>
						<polygon id="Stroke-134" class="st6" points="349.1,365.6 352.3,344.6 364.6,335.2 372.9,349 378.8,350.6 384.6,346.2 
							384.6,335.2 392.6,333.3 408.1,338.2 421.2,332.5 431,335.2 440.1,348.1 435.3,370.8 430.3,374.4 412,381.7 407.3,377.3 
							402.3,373.6 394.5,367.2 378.8,363.6 367.2,363.6 						"/>
						<polygon id="Fill-135" class="st5" points="384.6,414.7 375.5,402.6 339.4,402.6 345.2,398.2 338.7,399 340.1,393.7 
							354.1,394.5 349.1,365.6 367.2,363.6 378.8,363.6 394.5,367.2 402.3,373.6 407.3,377.3 412,381.7 409.9,397.4 400.3,408.3 
													"/>
						<polygon id="Stroke-136" class="st6" points="384.6,414.7 375.5,402.6 339.4,402.6 345.2,398.2 338.7,399 340.1,393.7 
							354.1,394.5 349.1,365.6 367.2,363.6 378.8,363.6 394.5,367.2 402.3,373.6 407.3,377.3 412,381.7 409.9,397.4 400.3,408.3 
													"/>
						<polygon id="Fill-137" class="st7" points="430.3,519.8 444.3,525.4 451.6,526.2 458.2,538.1 462.1,543.7 471.3,551.1 
							455.6,554.7 451,560.3 447.6,568.4 445.2,542.8 443.4,540.8 						"/>
						<polygon id="Stroke-138" class="st8" points="430.3,519.8 444.3,525.4 451.6,526.2 458.2,538.1 462.1,543.7 471.3,551.1 
							455.6,554.7 451,560.3 447.6,568.4 445.2,542.8 443.4,540.8 						"/>
						<polygon id="Fill-139" class="st3" points="560.8,535.1 535.5,547.5 537,560.3 533,549 519.9,556.4 521.3,565.5 544.2,571.3 
							546,572.7 542.1,573.6 534.5,573.6 527.2,578.4 514.9,586.5 509,583.8 509.8,574.9 501.6,571.3 496.6,568.4 501,565.5 
							509.8,560.3 508.3,556.4 488.7,554.7 486.1,550.3 488.7,550.3 492.6,549 487.5,540.8 486.8,547.5 483.6,545.2 482.9,544.5 
							475.6,548.2 468.6,560.3 463.3,569.2 451,572 447.6,568.4 451,560.3 455.6,554.7 471.3,551.1 462.1,543.7 458.2,538.1 
							451.6,526.2 444.3,525.4 430.3,519.8 420.5,523.5 408.1,527.9 388.7,524.3 382.8,523.5 374.4,517.1 377.7,505.5 381.4,502.4 
							378.8,494.3 394.5,470.6 390,461.2 395.1,460.3 401,464.1 444.3,461.2 445.2,465.7 465.4,470.6 464.7,466.9 470.5,462.1 
							481,463.4 505.7,469.8 533.7,473.3 555.7,491.6 573.9,491.6 584.5,519 555.7,529.2 						"/>
						<polygon id="Stroke-140" class="st4" points="560.8,535.1 535.5,547.5 537,560.3 533,549 519.9,556.4 521.3,565.5 
							544.2,571.3 546,572.7 542.1,573.6 534.5,573.6 527.2,578.4 514.9,586.5 509,583.8 509.8,574.9 501.6,571.3 496.6,568.4 
							501,565.5 509.8,560.3 508.3,556.4 488.7,554.7 486.1,550.3 488.7,550.3 492.6,549 487.5,540.8 486.8,547.5 483.6,545.2 
							482.9,544.5 475.6,548.2 468.6,560.3 463.3,569.2 451,572 447.6,568.4 451,560.3 455.6,554.7 471.3,551.1 462.1,543.7 
							458.2,538.1 451.6,526.2 444.3,525.4 430.3,519.8 420.5,523.5 408.1,527.9 388.7,524.3 382.8,523.5 374.4,517.1 377.7,505.5 
							381.4,502.4 378.8,494.3 394.5,470.6 390,461.2 395.1,460.3 401,464.1 444.3,461.2 445.2,465.7 465.4,470.6 464.7,466.9 
							470.5,462.1 481,463.4 505.7,469.8 533.7,473.3 555.7,491.6 573.9,491.6 584.5,519 555.7,529.2 						"/>
						<polygon id="Fill-141" class="st3" points="382.7,623.4 389.9,631.3 389.9,639.6 386,644.4 380.1,642.5 377.6,648.1 
							371,646.9 367.9,651.6 364.5,645.2 361.3,638.8 362.3,633.6 362.3,630.6 362.5,626 365.3,624.1 368.5,623.8 370.8,625.2 
							373.4,624.1 376.4,624 377.8,622.7 381.3,622.7 						"/>
						<polygon id="Stroke-142" class="st4" points="382.7,623.4 389.9,631.3 389.9,639.6 386,644.4 380.1,642.5 377.6,648.1 
							371,646.9 367.9,651.6 364.5,645.2 361.3,638.8 362.3,633.6 362.3,630.6 362.5,626 365.3,624.1 368.5,623.8 370.8,625.2 
							373.4,624.1 376.4,624 377.8,622.7 381.3,622.7 						"/>
						<polygon id="Fill-143" class="st3" points="402.3,83.7 404.1,90.2 407.3,98.2 413.8,103.5 419.6,108.4 413.8,122.2 
							428.8,151.1 426.2,165 425.5,167.8 426.2,174.3 431,173.1 430.3,178.7 429.5,183.1 436.1,186.8 433.5,199.7 441.8,207.1 
							442.7,207.1 445.9,210.7 453.1,216.4 441.1,242.6 415.4,275 411.3,275.8 400.3,277.3 391.2,281.1 381.4,284.7 368,291.2 
							359.8,286.7 359.8,284.7 364.6,284.7 365.6,280.3 362.4,283 359.8,282.2 359.8,279.4 354.1,277.3 350.1,277.3 348.4,275 
							345.2,265.7 347.7,263.7 347,256.3 348.4,254.9 344.5,243.8 340.1,228.9 341.1,225.2 345.2,221.7 346,216.4 349.1,217.2 
							352.3,214.3 351.6,210.7 354.1,207.1 355.7,206.3 358.8,202.6 363.1,196.1 370.4,185.2 372.3,177.9 376.9,175.2 381.4,173.1 
							378.8,169.5 377.7,161.4 372.3,156.8 369.8,154.1 364.6,154.1 362.4,146.7 358.8,141.1 361.4,129.5 357.4,123 358.3,121 
							358.8,118.5 355.7,115.6 354.1,104.6 348.4,98.2 340.1,97.4 331.3,91.8 325.5,85.3 325.5,82.5 328.7,83.7 328.1,78.9 
							329.5,78 335.3,80.9 343.7,91 351.6,91 355.7,88.9 358.3,88.2 361.4,90.2 366.5,92.6 369.8,91.8 370.4,87.4 373.7,86.6 
							374.4,80.1 373.7,70.8 378.8,64.3 384.6,64.3 386.8,63.4 392.6,59.8 395.1,62.6 403.4,66.3 407.3,70.8 404.1,75.3 						"/>
						<polygon id="Stroke-144" class="st4" points="402.3,83.7 404.1,90.2 407.3,98.2 413.8,103.5 419.6,108.4 413.8,122.2 
							428.8,151.1 426.2,165 425.5,167.8 426.2,174.3 431,173.1 430.3,178.7 429.5,183.1 436.1,186.8 433.5,199.7 441.8,207.1 
							442.7,207.1 445.9,210.7 453.1,216.4 441.1,242.6 415.4,275 411.3,275.8 400.3,277.3 391.2,281.1 381.4,284.7 368,291.2 
							359.8,286.7 359.8,284.7 364.6,284.7 365.6,280.3 362.4,283 359.8,282.2 359.8,279.4 354.1,277.3 350.1,277.3 348.4,275 
							345.2,265.7 347.7,263.7 347,256.3 348.4,254.9 344.5,243.8 340.1,228.9 341.1,225.2 345.2,221.7 346,216.4 349.1,217.2 
							352.3,214.3 351.6,210.7 354.1,207.1 355.7,206.3 358.8,202.6 363.1,196.1 370.4,185.2 372.3,177.9 376.9,175.2 381.4,173.1 
							378.8,169.5 377.7,161.4 372.3,156.8 369.8,154.1 364.6,154.1 362.4,146.7 358.8,141.1 361.4,129.5 357.4,123 358.3,121 
							358.8,118.5 355.7,115.6 354.1,104.6 348.4,98.2 340.1,97.4 331.3,91.8 325.5,85.3 325.5,82.5 328.7,83.7 328.1,78.9 
							329.5,78 335.3,80.9 343.7,91 351.6,91 355.7,88.9 358.3,88.2 361.4,90.2 366.5,92.6 369.8,91.8 370.4,87.4 373.7,86.6 
							374.4,80.1 373.7,70.8 378.8,64.3 384.6,64.3 386.8,63.4 392.6,59.8 395.1,62.6 403.4,66.3 407.3,70.8 404.1,75.3 						"/>
						<polygon id="Fill-145" class="st5" points="38.1,393.7 42.5,391 48.3,390.2 50.4,390.2 55.5,398.2 53.8,401.1 57,401.1 
							58.1,407.5 50.4,412.8 48.3,410 45.7,411.1 39.9,403.9 39.2,404.7 39.2,406.4 36.7,409.1 33.4,408.3 30.8,403.9 32.7,401.1 
							32.7,398.2 						"/>
						<polygon id="Stroke-146" class="st6" points="38.1,393.7 42.5,391 48.3,390.2 50.4,390.2 55.5,398.2 53.8,401.1 57,401.1 
							58.1,407.5 50.4,412.8 48.3,410 45.7,411.1 39.9,403.9 39.2,404.7 39.2,406.4 36.7,409.1 33.4,408.3 30.8,403.9 32.7,401.1 
							32.7,398.2 						"/>
						<polygon id="Fill-147" class="st5" points="58.9,489.5 53,486.6 59.5,481.4 67.2,471.4 71.9,467.7 82.7,467.7 87.4,460.3 
							80.1,464.1 71.2,460.3 68.6,458.4 62.7,460.3 59.5,454 71.9,446 71.9,436.7 68.6,436.7 65.3,435.8 68.6,433.1 76.9,428.6 
							86,427.4 84.3,423.7 84.9,416.4 84.9,412 82.7,412 78.5,403.9 79.2,400.3 83.6,394.5 78.5,394.5 71.9,398.2 64.6,401.1 
							61.4,396.7 66.1,384.6 64.6,382.9 64.6,375.3 58.9,375.3 57,386.6 56.3,386.6 56.3,379.3 57,368 60.2,360 56.3,363.6 
							51.6,357.9 55.5,352.6 58.1,346.2 54.9,344.6 55.5,336.1 61.4,334.5 60.2,327.9 62.7,327.9 65.3,319.4 75,321.5 84.3,319.4 
							84.9,325.1 75,333.3 75,336.9 73.7,341.7 80.1,339 95.8,339.7 98.1,344.6 94.7,352.6 86,365.6 88.2,369.1 84.9,371.6 
							78.5,373.6 80.1,374.4 90,374.4 100.6,387.3 109,402.6 116.8,411.1 120.5,421.3 116.8,421.3 122.7,431.1 118.7,435 
							122.7,439.5 124.5,435.8 129.1,435 137.6,442.3 134.2,454 129.1,457.5 127.7,461.2 125.1,463.4 134.2,465.7 128.4,473.3 
							121.3,475.8 112.9,474.2 107.1,474.2 96.6,477 86,475.8 78.5,479.4 75.9,485.1 70.4,483.1 						"/>
						<polygon id="Stroke-148" class="st6" points="58.9,489.5 53,486.6 59.5,481.4 67.2,471.4 71.9,467.7 82.7,467.7 87.4,460.3 
							80.1,464.1 71.2,460.3 68.6,458.4 62.7,460.3 59.5,454 71.9,446 71.9,436.7 68.6,436.7 65.3,435.8 68.6,433.1 76.9,428.6 
							86,427.4 84.3,423.7 84.9,416.4 84.9,412 82.7,412 78.5,403.9 79.2,400.3 83.6,394.5 78.5,394.5 71.9,398.2 64.6,401.1 
							61.4,396.7 66.1,384.6 64.6,382.9 64.6,375.3 58.9,375.3 57,386.6 56.3,386.6 56.3,379.3 57,368 60.2,360 56.3,363.6 
							51.6,357.9 55.5,352.6 58.1,346.2 54.9,344.6 55.5,336.1 61.4,334.5 60.2,327.9 62.7,327.9 65.3,319.4 75,321.5 84.3,319.4 
							84.9,325.1 75,333.3 75,336.9 73.7,341.7 80.1,339 95.8,339.7 98.1,344.6 94.7,352.6 86,365.6 88.2,369.1 84.9,371.6 
							78.5,373.6 80.1,374.4 90,374.4 100.6,387.3 109,402.6 116.8,411.1 120.5,421.3 116.8,421.3 122.7,431.1 118.7,435 
							122.7,439.5 124.5,435.8 129.1,435 137.6,442.3 134.2,454 129.1,457.5 127.7,461.2 125.1,463.4 134.2,465.7 128.4,473.3 
							121.3,475.8 112.9,474.2 107.1,474.2 96.6,477 86,475.8 78.5,479.4 75.9,485.1 70.4,483.1 						"/>
						<polygon id="Fill-149" class="st5" points="39.2,350.6 37.3,350.6 37.3,345.4 39.2,346.2 						"/>
						<polygon id="Stroke-150" class="st6" points="39.2,350.6 37.3,350.6 37.3,345.4 39.2,346.2 						"/>
						<polygon id="Fill-151" class="st5" points="39.2,342.6 36,340.5 39.2,339.7 						"/>
						<polygon id="Stroke-152" class="st6" points="39.2,342.6 36,340.5 39.2,339.7 						"/>
						<polygon id="Fill-153" class="st5" points="42.5,336.9 40.6,336.1 42.5,334.5 40.6,331.5 41.4,328.7 43.9,328.7 45,327.1 
							49.7,322.3 49.7,327.1 46.5,330.7 48.3,331.5 48.3,332.5 46.5,334.5 						"/>
						<polygon id="Stroke-154" class="st6" points="42.5,336.9 40.6,336.1 42.5,334.5 40.6,331.5 41.4,328.7 43.9,328.7 45,327.1 
							49.7,322.3 49.7,327.1 46.5,330.7 48.3,331.5 48.3,332.5 46.5,334.5 						"/>
						<polygon id="Fill-155" class="st5" points="88.2,313.4 81.7,312.2 81.7,308.5 84.9,309.7 84.9,311.4 88.2,311.4 						"/>
						<polygon id="Stroke-156" class="st6" points="88.2,313.4 81.7,312.2 81.7,308.5 84.9,309.7 84.9,311.4 88.2,311.4 						"/>
						<polygon id="Fill-157" class="st5" points="53,350.6 52.3,349.8 53,349 48.9,349.8 47.2,345.4 45,343.4 46.5,340.5 
							48.3,342.6 48.9,339.7 49.7,339 50.4,340.5 51.6,347.1 55.5,348.1 						"/>
						<polygon id="Stroke-158" class="st6" points="53,350.6 52.3,349.8 53,349 48.9,349.8 47.2,345.4 45,343.4 46.5,340.5 
							48.3,342.6 48.9,339.7 49.7,339 50.4,340.5 51.6,347.1 55.5,348.1 						"/>
						<polygon id="Fill-159" class="st7" points="103.8,293.2 103.8,285.9 100.6,283.8 103.8,283.8 101.7,279.4 104.8,277.3 
							106.4,282.2 107.1,287.5 						"/>
						<polygon id="Stroke-160" class="st8" points="103.8,293.2 103.8,285.9 100.6,283.8 103.8,283.8 101.7,279.4 104.8,277.3 
							106.4,282.2 107.1,287.5 						"/>
						<polygon id="Fill-161" class="st5" points="158.9,464.9 159.6,461.2 165.6,458.4 170.3,458.4 166.2,455.9 164.7,453.1 
							169.5,444.7 172,432.3 177.1,439.5 177.9,447.6 182.5,448.4 181.1,442.3 182.5,436.7 180.5,436.7 181.1,430.2 187.7,426.6 
							194.2,425 198.2,429.4 198.2,425.8 199.3,422.2 201.3,430.2 200.1,438.8 196,440.2 197.5,453.1 191.6,452.4 188.5,455.9 
							191.6,463.4 190.2,469.8 189,471.4 190.2,475 183.6,474.2 186.9,466.9 178.5,465.7 173.9,463.4 168.8,463.4 164.7,465.7 
							161.5,466.9 						"/>
						<polygon id="Stroke-162" class="st6" points="158.9,464.9 159.6,461.2 165.6,458.4 170.3,458.4 166.2,455.9 164.7,453.1 
							169.5,444.7 172,432.3 177.1,439.5 177.9,447.6 182.5,448.4 181.1,442.3 182.5,436.7 180.5,436.7 181.1,430.2 187.7,426.6 
							194.2,425 198.2,429.4 198.2,425.8 199.3,422.2 201.3,430.2 200.1,438.8 196,440.2 197.5,453.1 191.6,452.4 188.5,455.9 
							191.6,463.4 190.2,469.8 189,471.4 190.2,475 183.6,474.2 186.9,466.9 178.5,465.7 173.9,463.4 168.8,463.4 164.7,465.7 
							161.5,466.9 						"/>
						<polygon id="Fill-163" class="st3" points="762.1,0.4 762,5.1 768.5,1.4 774.3,18.6 773.2,22.3 770,20.7 773.2,29.7 778,30.7 
							778,41.4 756.1,39.7 711.9,34.5 707.6,40.6 719.9,55.5 714,60.7 714,68.1 707.6,68.1 702.9,56.3 685.4,67.2 673.1,66.4 
							665.8,70.1 665.8,78 661.8,76.5 652.7,85.3 648.9,82.5 654.2,74.5 650.1,64.4 656.7,60.7 650.9,61.5 638.6,70.9 643.7,73.6 
							640.3,78 636.4,71.6 606,91 609.8,95.5 600.1,97.4 600.9,109.9 589.6,115.7 571.4,103.5 573.2,97.4 586.4,93.8 576.6,80.9 
							548.5,78.9 558.3,84.5 560.8,108.4 568.9,115.7 570.1,135.9 559.8,126.6 546.7,125.7 535.5,139.5 526.4,150.4 538.8,174.3 
							514.1,173.1 514.1,169.5 498.4,161.4 494.4,169.5 503.2,179.6 509.8,180.8 514.9,191.7 509.1,195.3 481,182.4 473.1,160.6 
							474.6,147.5 442.7,119.3 509.1,139.5 525.4,132.2 536.2,113.7 518,94.6 468.6,74.5 449.8,73.6 447.8,78 446.6,72.8 
							434.3,68.1 442.7,66.4 422.2,65.1 423.1,69.2 419,69.2 414.7,69.2 402.4,83.7 404.2,90.2 407.4,98.2 414,103.5 419.6,108.4 
							414,122.2 428.8,151.1 426.2,165 425.6,167.8 426.2,174.3 431,173.1 430.3,178.7 429.5,183.1 436.1,186.8 433.5,199.9 
							441.8,207.1 442.7,207.1 445.9,210.7 453.1,216.4 441.1,242.7 415.4,275 424.5,268.5 428.8,281.1 437.9,281.1 442.7,288.7 
							430.3,286.8 419.6,292.5 418,298.4 410.9,296.9 409,300.6 414,309.7 414.7,319.4 421.2,332.5 431,335.2 440.1,348.1 
							435.4,370.9 464.7,377.2 476.4,405.6 485.5,416.5 488.7,433.1 481,429.4 476.4,432.3 482.1,447.6 481,463.4 505.7,469.8 
							533.7,473.3 555.7,491.6 574,491.6 584.5,519 555.7,529.2 560.8,535.1 573.2,527.9 575.4,533.6 574.7,544.6 567.5,543.8 
							551.1,568.4 551.1,572.7 567.5,585 577.2,592.3 589.6,602.4 631.4,603.2 666.6,624.1 674.8,632.3 693.7,630.7 682.1,615 
							676.3,604.8 676.3,591.1 672.3,586.6 665.8,581.3 671.7,579.3 665,577.2 671.7,556.4 682.1,553.9 693,545.3 681.4,543.8 
							665.8,500.5 653.5,498.9 669.1,451.2 694.4,446.7 721.7,454 778.6,462.6 778.4,0.4 						"/>
						<polygon id="Stroke-164" class="st4" points="414.7,69.2 419,69.2 423.1,69.2 422.2,65.1 442.7,66.4 434.3,68.1 446.6,72.8 
							447.8,78 449.8,73.6 468.6,74.5 518,94.6 536.2,113.7 525.4,132.2 509.1,139.5 442.7,119.3 474.6,147.5 473.1,160.6 
							481,182.4 509.1,195.3 514.9,191.7 509.8,180.8 503.2,179.6 494.4,169.5 498.4,161.4 514.1,169.5 514.1,173.1 538.8,174.3 
							526.4,150.4 535.5,139.5 546.7,125.7 559.8,126.6 570.1,135.9 568.9,115.7 560.8,108.4 558.3,84.5 548.5,78.9 576.6,80.9 
							586.4,93.8 573.2,97.4 571.4,103.5 589.6,115.7 600.9,109.9 600.1,97.4 609.8,95.5 606,91 636.4,71.6 640.3,78 643.7,73.6 
							638.6,70.9 650.9,61.5 656.7,60.7 650.1,64.4 654.2,74.5 648.9,82.5 652.7,85.3 661.8,76.5 665.8,78 665.8,70.1 673.1,66.4 
							685.4,67.2 702.9,56.3 707.6,68.1 714,68.1 714,60.7 719.9,55.5 707.6,40.6 711.9,34.5 756.1,39.7 778,41.4 778,30.7 
							773.2,29.7 770,20.7 773.2,22.3 774.3,18.6 768.5,1.4 762,5.1 762.1,0.4 778.4,0.4 778.6,462.6 721.7,454 694.4,446.7 
							669.1,451.2 653.5,498.9 665.8,500.5 681.4,543.8 693,545.3 682.1,553.9 671.7,556.4 665,577.2 671.7,579.3 665.8,581.3 
							672.3,586.6 676.3,591.1 676.3,604.8 682.1,615 693.7,630.7 674.8,632.3 666.6,624.1 631.4,603.2 589.6,602.4 577.2,592.3 
							567.5,585 551.1,572.7 551.1,568.4 567.5,543.8 574.7,544.6 575.4,533.6 573.2,527.9 560.8,535.1 555.7,529.2 584.5,519 
							574,491.6 555.7,491.6 533.7,473.3 505.7,469.8 481,463.4 482.1,447.6 476.4,432.3 481,429.4 488.7,433.1 485.5,416.5 
							476.4,405.6 464.7,377.2 435.4,370.9 440.1,348.1 431,335.2 421.2,332.5 414.7,319.4 414,309.7 409,300.6 410.9,296.9 
							418,298.4 419.6,292.5 430.3,286.8 442.7,288.7 437.9,281.1 428.8,281.1 424.5,268.5 415.4,275 441.1,242.7 453.1,216.4 
							445.9,210.7 442.7,207.1 441.8,207.1 433.5,199.9 436.1,186.8 429.5,183.1 430.3,178.7 431,173.1 426.2,174.3 425.6,167.8 
							426.2,165 428.8,151.1 414,122.2 419.6,108.4 414,103.5 407.4,98.2 404.2,90.2 402.4,83.7 						"/>
						<polygon id="Fill-166" class="st5" points="338,498.2 335.1,502.7 331.9,502.4 323.5,512.3 318.8,510.4 314,513.4 
							313.9,520.7 317.1,527.1 320.3,529.2 329.4,530 336.7,526.2 345.9,520.7 349,519.8 357.3,514.2 360.4,516.3 366.4,515.4 
							369.7,517.1 374.3,517.1 377.6,505.5 375.4,503.2 370.3,499.5 363,498 359.7,500.4 355.6,498.8 348.3,501.6 345.9,498.8 
							342.5,495.2 						"/>
						<polygon id="Stroke-167" class="st6" points="338,498.2 335.1,502.7 331.9,502.4 323.5,512.3 318.8,510.4 314,513.4 
							313.9,520.7 317.1,527.1 320.3,529.2 329.4,530 336.7,526.2 345.9,520.7 349,519.8 357.3,514.2 360.4,516.3 366.4,515.4 
							369.7,517.1 374.3,517.1 377.6,505.5 375.4,503.2 370.3,499.5 363,498 359.7,500.4 355.6,498.8 348.3,501.6 345.9,498.8 
							342.5,495.2 						"/>
						<polygon id="Fill-168" class="st5" points="278,513.4 283.4,514.2 289.3,514.2 294.4,506.9 300.8,510.7 314,513.4 314,520.7 
							317.2,527.1 317.8,529.2 314.7,530 310.6,530 309.1,531.6 311.4,533.6 310,544.5 304.9,546.4 304.9,549 300.8,549 
							290.4,552.6 278.8,551.9 275.4,551.9 267.2,548.2 261.4,541.7 256.6,542.8 249.2,542.8 248.3,546.4 241.8,548.2 241,547.5 
							240.3,546.4 240.3,543.7 235.2,543.7 234.4,542.8 233.7,541.7 232.6,540.8 231.2,540 231.2,538.8 230.6,537.3 231.2,536.4 
							231.2,535.1 231.8,532.8 239.2,537.3 241,532.8 244.1,533.6 247.6,535.1 254.8,532.8 258,533.6 260.6,531.6 267.2,531.6 
							271.4,533.6 268.9,529.2 267.2,521.5 277,517.9 278,517.1 						"/>
						<polygon id="Stroke-169" class="st6" points="278,513.4 283.4,514.2 289.3,514.2 294.4,506.9 300.8,510.7 314,513.4 
							314,520.7 317.2,527.1 317.8,529.2 314.7,530 310.6,530 309.1,531.6 311.4,533.6 310,544.5 304.9,546.4 304.9,549 300.8,549 
							290.4,552.6 278.8,551.9 275.4,551.9 267.2,548.2 261.4,541.7 256.6,542.8 249.2,542.8 248.3,546.4 241.8,548.2 241,547.5 
							240.3,546.4 240.3,543.7 235.2,543.7 234.4,542.8 233.7,541.7 232.6,540.8 231.2,540 231.2,538.8 230.6,537.3 231.2,536.4 
							231.2,535.1 231.8,532.8 239.2,537.3 241,532.8 244.1,533.6 247.6,535.1 254.8,532.8 258,533.6 260.6,531.6 267.2,531.6 
							271.4,533.6 268.9,529.2 267.2,521.5 277,517.9 278,517.1 						"/>
						<polygon id="Fill-170" class="st3" points="336.7,620.4 324.8,609.8 323,607.5 318.7,604.7 316.8,602 311.8,598.3 
							312.3,597.7 308.7,596.2 305.1,585 302.6,583.1 300.8,574 301.1,572.9 300.6,571.9 304.9,574.4 307.2,574.2 309.9,571.2 
							312.2,571.3 315.5,572.8 318.6,572.8 319.2,572 322.4,572.1 329.5,573.5 335.5,576.7 336.3,578.2 337.6,578.4 339.4,578.1 
							340.9,578.4 341,579.4 340.5,582 338.5,584 337.7,587 339,589.2 339.7,591.3 341,592.7 342,594.4 342.7,595.8 342,598.9 
							340.8,599.8 341,601.4 339.7,602.7 340,603.7 337.7,607 335.6,615.3 336.8,617.1 338.3,618.1 						"/>
						<polygon id="Stroke-171" class="st4" points="336.7,620.4 324.8,609.8 323,607.5 318.7,604.7 316.8,602 311.8,598.3 
							312.3,597.7 308.7,596.2 305.1,585 302.6,583.1 300.8,574 301.1,572.9 300.6,571.9 304.9,574.4 307.2,574.2 309.9,571.2 
							312.2,571.3 315.5,572.8 318.6,572.8 319.2,572 322.4,572.1 329.5,573.5 335.5,576.7 336.3,578.2 337.6,578.4 339.4,578.1 
							340.9,578.4 341,579.4 340.5,582 338.5,584 337.7,587 339,589.2 339.7,591.3 341,592.7 342,594.4 342.7,595.8 342,598.9 
							340.8,599.8 341,601.4 339.7,602.7 340,603.7 337.7,607 335.6,615.3 336.8,617.1 338.3,618.1 						"/>
					</g>
				</g>
			</g>
		</g>
	</g>
</g>
<g>
	<path class="st9" d="M239.1,316c-1.2,0-2.2,0.8-2.4,1.9c-27.3,4.2-44.2,1.1-65.1-11.9c0-0.2,0.1-0.3,0.1-0.5c0-1.4-1.1-2.5-2.5-2.5
		c-1.4,0-2.5,1.1-2.5,2.5c0,1.4,1.1,2.5,2.5,2.5c0.5,0,0.9-0.1,1.3-0.4c15.6,9.7,29,14,45.8,14c6.3,0,13.2-0.6,20.8-1.8
		c0.4,0.7,1.2,1.1,2.1,1.1c1.4,0,2.5-1.1,2.5-2.5C241.6,317.1,240.5,316,239.1,316z"/>
	<path class="st9" d="M168.6,286.5c7.5-20.8,9-42.1,4.8-66.9c0.7-0.4,1.2-1.2,1.2-2.1c0-1.4-1.1-2.5-2.5-2.5c-1.4,0-2.5,1.1-2.5,2.5
		c0,1.1,0.8,2.1,1.8,2.4c4.2,24.5,2.6,45.6-4.8,66.2c-1.1,0.2-2,1.2-2,2.4c0,1.4,1.1,2.5,2.5,2.5c1.4,0,2.5-1.1,2.5-2.5
		C169.6,287.7,169.2,286.9,168.6,286.5z"/>
	<path class="st9" d="M137.4,324.3c-1.1-0.8-2.7-0.6-3.5,0.6c-0.8,1.1-0.6,2.6,0.5,3.5c-10,25.9-21.1,39-42.6,50.6
		c-1.1-0.6-2.5-0.4-3.3,0.7c-0.8,1.1-0.6,2.7,0.6,3.5c1.1,0.8,2.7,0.6,3.5-0.6c0.4-0.6,0.6-1.3,0.4-2c22-11.9,33.2-25.4,43.4-51.8
		c0.6-0.1,1.2-0.4,1.6-1C138.8,326.7,138.5,325.2,137.4,324.3z"/>
	<path class="st9" d="M143.9,227c-1.3-0.6-2.7,0-3.3,1.3c-0.6,1.3,0,2.7,1.3,3.3c0,0,0,0,0,0c-2.5,36.2-13.4,68.5-32.4,96.3
		c-1-0.1-2,0.5-2.4,1.5c-0.6,1.3,0,2.7,1.3,3.3c1.3,0.6,2.7,0,3.3-1.3c0.4-0.9,0.2-1.9-0.4-2.6c19.2-28.1,30.1-60.7,32.6-97.2
		c0.6-0.2,1-0.7,1.3-1.3C145.7,229,145.1,227.6,143.9,227z"/>
</g>
</svg>
