<svg width="100px" height="100px" viewBox="0 0 126 15" version="1.1" xmlns="http://www.w3.org/2000/svg" xmlns:xlink="http://www.w3.org/1999/xlink"><g id="HOMEPAGES-" stroke="none" stroke-width="1" fill="none" fill-rule="evenodd"><g id="Carrier-/-Contenu" transform="translate(-374.000000, -677.000000)" fill="#FFFFFF"><g id="bloc-reassurance" transform="translate(0.000000, 638.000000)"><g id="logos" transform="translate(230.000000, 23.000000)"><g id="Scandex" transform="translate(144.000000, 16.000000)"><path d="M24.174347,7.56809758 C24.174347,10.3546565 22.3674984,12.613496 20.1390519,12.613496 C19.1069847,12.613496 18.1687684,12.1251937 17.4553848,11.3286137 L23.4934165,4.76418332 C23.9232009,5.56635224 24.174347,6.53030808 24.174347,7.56809758 Z M16.1037568,7.56809758 C16.1037568,4.78153864 17.910313,2.52269919 20.1390519,2.52269919 C21.2067883,2.52269919 22.1748264,3.04482968 22.8966887,3.89141647 L16.842869,10.4726139 C16.3788773,9.65103053 16.1037568,8.6505991 16.1037568,7.56809758 Z M26.852459,1.1127998 L26.098436,0.410644598 L24.5974068,2.04233914 C23.4112604,0.776871335 21.8131643,0 20.0539721,0 C16.3937882,0 13.4262295,3.35781382 13.4262295,7.50014708 C13.4262295,9.38246426 14.0404995,11.1015237 15.0529779,12.4184692 L13.7370192,13.8489597 L14.4910422,14.5508207 L15.7409253,13.1921048 C16.9001736,14.3181417 18.406173,15 20.0539721,15 C23.7147408,15 26.6820071,11.6421862 26.6820071,7.50014708 C26.6820071,5.74343537 26.1469695,4.12939031 25.2531934,2.8512737 L26.852459,1.1127998 Z" id="Fill-2"></path><path d="M57.0277234,9.21828171 C56.4387782,10.7560404 55.2475221,11.8083217 53.8728428,11.8083217 C51.9137683,11.8083217 50.3255216,9.67260697 50.3255216,7.03790639 C50.3255216,4.40348148 51.9137683,2.26776677 53.8728428,2.26776677 C55.1852435,2.26776677 56.3307149,3.22714294 56.9441165,4.65242305 L59.8621109,4.65242305 C58.9850916,1.94135833 56.6335766,0 53.8691459,0 C50.3562343,0 47.5081967,3.13396215 47.5081967,6.99986216 C47.5081967,10.8660378 50.3562343,14 53.8691459,14 C56.6773707,14 59.0587453,11.996613 59.9016393,9.21828171 L57.0277234,9.21828171 Z" id="Fill-4"></path><path d="M8.46445486,5.21664728 C8.46445486,6.38644104 7.35148801,7.34367002 5.99105702,7.34367002 L2.98760095,7.34367002 C2.95309276,7.34367002 2.91951723,7.34119513 2.88594169,7.33927023 L2.88594169,2.7951137 C2.91951723,2.79318879 2.95309276,2.79071391 2.98760095,2.79071391 L5.64348804,2.79071391 C7.19511306,2.79071391 8.46445486,3.88241142 8.46445486,5.21664728 M7.05428233,1 L2.42552161,1 L2.42552161,1.00549974 L0,1.00549974 L0,14 L2.88594169,14 L2.88594169,9.41019566 L7.05272791,9.41019566 C9.42229029,9.41019566 11.3606557,7.69565309 11.3606557,5.59970386 L11.3606557,4.80939186 C11.3606557,2.7139926 9.42291206,1 7.05428233,1" id="Fill-7"></path><path d="M64.6267249,9.16327302 L66.7521592,3.79086024 L68.7167721,9.16327302 L64.6267249,9.16327302 Z M68.2705369,1 L65.1365817,1 L59.9016393,14 L62.9513548,14 L64.0326283,11.2282422 C63.9613485,11.2282422 69.3821485,11.2129602 69.3821485,11.2129602 L70.302306,13.9669801 L73.3278689,13.9669801 L68.2705369,1 Z" id="Fill-9"></path><polygon id="Fill-11" points="83.0362628 1 83.0362628 10.1553932 77.4139932 1 77.0459976 1 74.3606557 1 74.3606557 13.9858524 77.0459976 13.9858524 77.0459976 4.82392951 82.717822 13.9997279 83.0362628 13.9997279 83.0362628 14 85.7213115 14 85.7213115 1"></polygon><polyline id="Fill-13" points="113.606557 13.9878138 113.606557 11.8630768 105.343755 11.8630768 105.343755 8.21533174 113.051483 8.21533174 113.051483 6.09059473 105.343755 6.09059473 105.343755 3.16427455 113.546523 3.16427455 113.546523 1.03980835 105.405758 1.00108322 105.343755 1 102.245902 1 102.245902 14"></polyline><polygon id="Fill-15" points="126 14 121.353765 7.31369643 125.788414 1 122.639992 1 119.803129 5.08239567 116.966267 1 113.818143 1 118.252793 7.31369643 113.606557 14 116.665152 13.9888733 119.803129 9.52111559 122.941405 13.9888733"></polygon><path d="M97.383227,6.36958277 L97.383227,8.5076716 C97.3525954,10.815074 96.0649123,11.8096904 94.1018892,11.8096904 L91.5192986,11.8096904 L91.5192986,3.30847914 L94.1099805,3.30847914 C96.0730037,3.30847914 97.4291744,4.04118439 97.383227,6.36958277 Z M100.167524,7.15800808 C100.138915,2.52409152 97.6430176,1.0115747 94.0701016,1.0115747 L91.5192986,1.0115747 L91.5192986,1 L88.8196721,1 L88.8196721,14 L91.5192986,14 L91.5192986,13.9612382 L94.0701016,13.9612382 C97.6430176,13.9612382 100.252772,12.7978466 100.178794,7.91009421 L100.167524,7.15800808 Z" id="Fill-17"></path><path d="M43.2093289,6.25216927 C42.5247651,6.04075663 41.5475634,5.94805606 40.7364221,5.8174451 C39.23433,5.57504003 38.5018642,4.98729073 38.2376772,4.65052478 C38.0321339,4.4050758 37.9145561,4.12310003 37.9145561,3.82286087 C37.9145561,2.87593145 39.0772694,2.10831538 40.5117179,2.10831538 C41.9458762,2.10831538 43.1085895,2.87593145 43.1085895,3.82286087 C43.1085895,3.97256537 43.0766548,4.11728895 43.0217851,4.25564801 L45.9443906,4.25564801 C45.9496162,4.18148756 45.9531,4.10705038 45.9531,4.03178305 C45.9531,1.80503232 43.5568365,0 40.6014254,0 C37.645724,0 35.2497508,1.80503232 35.2497508,4.03178305 C35.2497508,5.15719566 35.8623163,6.17441148 36.8496791,6.90577748 C36.8473566,6.90743779 36.8447437,6.9090981 36.8424212,6.91048169 C36.9208064,6.96693218 37.0229974,7.03555828 37.1504459,7.1122092 C37.5789515,7.38505327 38.0652298,7.60781136 38.5936039,7.7688613 C39.2700388,8.00075109 40.040536,8.20884312 41.0940907,8.31980709 C41.4186633,8.36518886 44.2085946,8.75812859 43.2772627,10.9605281 C43.2702951,10.9774079 43.1962647,11.092246 43.1895875,11.1085723 C42.6954706,11.7046232 42.0384868,11.983555 40.8798379,11.983555 C39.2473942,11.983555 37.9145561,10.9754709 37.9145561,10.0285415 C37.9145561,9.91923784 37.932846,9.81270136 37.9665226,9.70893207 L35.1205604,9.70893207 C35.1176573,9.76123179 35.1147541,9.81353152 35.1147541,9.86638468 C35.1147541,12.1493092 37.6828844,14 40.8508064,14 C44.018438,14 46.5203764,12.7782895 46.4747969,9.77645129 C46.4480878,8.04447256 45.3065676,6.86703694 43.2093289,6.25216927" id="Fill-19"></path></g></g></g></g></g></svg>